<svg id="Layer_1" data-name="Layer 1" xmlns="http://www.w3.org/2000/svg" viewBox="0 0 600 148.47"><defs><style>.cls-1{fill:#fff;}.cls-2{fill:#fdb913;}.cls-3{fill:#00ab95;}.cls-4{fill:#8a8c8e;}</style></defs><title>abn-amro-logo</title><polygon class="cls-1" points="0.28 0.28 111.07 0.28 111.07 92.68 55.67 148.08 0.28 92.68 0.28 0.28"/><polygon class="cls-2" points="111.35 92.79 55.67 148.47 55.4 147.8 55.4 36.45 111.07 92.12 111.35 92.79"/><polygon class="cls-3" points="0 0 111.35 0 111.35 92.79 55.67 37.12 55.67 148.47 0 92.79 0 0"/><path class="cls-4" d="M162.58,74.23l3.66-14.29h18.39l3.57,14.29h14.2L184.9,9.77H167.13L149.27,74.23ZM181.77,50H168.92l6.16-27.86h.18Z"/><path class="cls-4" d="M227.42,46h7.86c6.79,0,8.93,3.48,8.93,9.2,0,9-6.43,9.11-9.29,9.11h-7.5Zm0-26.34h8.3c4.55,0,7.77,3.48,7.77,8.21,0,6.25-4.11,8.21-7.05,8.21h-9Zm10.36,54.55c5.71,0,19.91-.71,19.91-17.05,0-8.84-2.5-15-12.05-16.34v-.18c7.32-1.43,11-6.79,11-14.2,0-13.75-8.48-16.7-18.75-16.7H213.94V74.23Z"/><polygon class="cls-4" points="286.02 74.23 286.02 27.09 286.2 27.09 303.79 74.23 321.56 74.23 321.56 9.77 308.96 9.77 308.96 54.41 308.79 54.41 291.64 9.77 273.43 9.77 273.43 74.23 286.02 74.23"/><polygon class="cls-4" points="342.71 45.76 351.36 37.11 342.71 28.48 334.09 37.11 342.71 45.76"/><path class="cls-4" d="M369,74.23l3.66-14.29H391l3.57,14.29h14.2L391.32,9.77H373.55L355.69,74.23ZM388.19,50H375.33l6.16-27.86h.18Z"/><polygon class="cls-4" points="433.04 74.23 433.04 24.5 433.22 24.5 445 74.23 457.86 74.23 470.27 24.5 470.45 24.5 470.45 74.23 483.57 74.23 483.57 9.77 462.59 9.77 451.88 53.61 451.7 53.61 441.61 9.77 419.91 9.77 419.91 74.23 433.04 74.23"/><path class="cls-4" d="M514.75,19.68h6c4.29,0,6.87,2.32,6.87,8.48,0,4.11-1.52,9.47-6.87,9.47h-6Zm0,27.86h3.48c10.36,0,9.64,6.52,9.64,14.2,0,4.19-.36,8.57,1.43,12.5h13.22C541.27,71.55,541,59.41,541,55.3c0-11.61-8.75-12.32-11.7-12.68v-.18c8.75-1.43,12-7.59,12-15.8,0-11-5.89-16.88-15.09-16.88H501.26V74.23h13.48Z"/><path class="cls-4" d="M577.77,65.66c-7.59,0-8.57-7.14-8.57-23.66s1-23.66,8.57-23.66,8.57,7.14,8.57,23.66S585.36,65.66,577.77,65.66Zm0,9.64C600,75.3,600,58.87,600,42c0-17.05,0-33.3-22.23-33.3S555.53,24.94,555.53,42C555.53,58.87,555.53,75.3,577.77,75.3Z"/></svg>