<svg id="Layer_1" data-name="Layer 1" xmlns="http://www.w3.org/2000/svg" viewBox="0 0 600 111.47"><defs><style>.cls-1{fill:#c92731;}.cls-1,.cls-2,.cls-3{fill-rule:evenodd;}.cls-2{fill:#50c6dd;}.cls-3{fill:#fff;}</style></defs><title>achmea-logo</title><path class="cls-1" d="M167.58,27.19a21.4,21.4,0,0,0-18.15,9.25h-.2V9.07c0-3.06-1.72-4.16-4-4.16H130.49V82.73h18.74v-23c0-11.64,4-17,11.66-17,5.13,0,8.64,3.43,8.64,13.61V82.73h18.78V48.83c0-11.26-6-21.64-20.74-21.64"/><path class="cls-1" d="M88.89,56.09c0-9.42,6.38-14.87,14.51-14.87a22.26,22.26,0,0,1,8.26,1.4,5.4,5.4,0,0,0,1.43.5h.17a1.86,1.86,0,0,0,1.89-1.85V30a34.73,34.73,0,0,0-13.92-2.6c-18,0-31.8,10.3-31.8,28.41s13.73,28.32,31.72,28.32a51.92,51.92,0,0,0,15-2.26V67.69a26.5,26.5,0,0,1-11.78,2.62c-8.14,0-15.46-5.54-15.46-14.22"/><path class="cls-1" d="M277.66,27.19c-7.69,0-14.91,3.13-19.26,10.41-2.92-7.06-9.25-10.41-17-10.41-8,0-14,2.81-20.27,9.09a4,4,0,0,1-2.37,1.32,2.86,2.86,0,0,1-1.92-.75l-7.46-7.54a2.95,2.95,0,0,0-5.05,2.08V82.73H223.1V59.8c0-11.66,4-17,10.65-17,5.28,0,7.46,4.58,7.46,10.73V82.73H260V59.8c0-11.66,3.95-17,10.65-17,5.25,0,7.49,4.58,7.49,10.73V82.73h18.72v-32c0-14.72-3.55-23.57-19.16-23.57"/><path class="cls-1" d="M29.19,68.5c-6.68,0-12-5.71-12-12.77S22.51,43,29.19,43s12,5.7,12,12.75-5.38,12.77-12,12.77m24.6-38.44a2.89,2.89,0,0,0-2.07.86l-2.8,2.85a3,3,0,0,1-2,.86,2.88,2.88,0,0,1-1.94-.79,22.93,22.93,0,0,0-16.58-6.46,28.36,28.36,0,0,0,0,56.72,22.88,22.88,0,0,0,16.58-6.46,2.92,2.92,0,0,1,1.94-.77,2.79,2.79,0,0,1,2,.87l2.8,2.83a2.94,2.94,0,0,0,5-2.07V33a3,3,0,0,0-3-2.93"/><path class="cls-1" d="M407.25,68.5c-6.69,0-12.06-5.71-12.06-12.77S400.56,43,407.25,43s12,5.7,12,12.75-5.4,12.77-12,12.77m24.6-38.44a3,3,0,0,0-2.11.86l-2.79,2.85a3,3,0,0,1-2,.86,2.87,2.87,0,0,1-1.95-.79,23,23,0,0,0-16.55-6.46,28.36,28.36,0,1,0,0,56.72A22.9,22.9,0,0,0,423,77.64a2.92,2.92,0,0,1,1.95-.77,2.78,2.78,0,0,1,2,.87l2.79,2.83a3.06,3.06,0,0,0,2.11.86,2.94,2.94,0,0,0,2.94-2.93V33a2.94,2.94,0,0,0-2.94-2.93"/><path class="cls-1" d="M347.3,50.7H330.82a1.81,1.81,0,0,1-1.9-2.25c1-5.23,4.15-9.24,10.07-9.24,6.48,0,9.56,4,10.23,9.12a1.86,1.86,0,0,1-1.92,2.37m-8-23.33c-16.77,0-28.85,10.43-28.85,28.36S324,84.09,341.78,84.09a54.08,54.08,0,0,0,19.83-3.43V67.47a35.43,35.43,0,0,1-16.5,4.16c-9.09,0-14.8-2.86-15.85-10.35h37.22V57.81c0-16.12-7.24-30.43-27.21-30.43"/><path class="cls-1" d="M508.08,55.73a34.47,34.47,0,0,0,34.46,34.48c8.34,0,16.25-2.64,22-7.86a3.31,3.31,0,0,1,2.3-.92,3.41,3.41,0,0,1,2.44,1l3.87,3.85a2.21,2.21,0,0,0,1.59.66,2.32,2.32,0,0,0,2.34-2.3V26.82a2.32,2.32,0,0,0-2.34-2.3,2.21,2.21,0,0,0-1.59.66L569.24,29a3.41,3.41,0,0,1-2.44,1,3.31,3.31,0,0,1-2.3-.92c-5.71-5.22-13.61-7.86-22-7.86a34.47,34.47,0,0,0-34.46,34.48m91.92,0a55.74,55.74,0,0,1-55.72,55.74c-13.48,0-26.26-4.29-35.43-12.73a5.58,5.58,0,0,0-7.73.14l-6.24,6.21a3.77,3.77,0,0,1-2.64,1.09,3.72,3.72,0,0,1-3.7-3.75V9a3.72,3.72,0,0,1,3.7-3.75,3.77,3.77,0,0,1,2.64,1.09l6.24,6.21a5.58,5.58,0,0,0,7.73.14C518,4.28,530.8,0,544.28,0A55.73,55.73,0,0,1,600,55.73"/><path class="cls-2" d="M508.08,55.73a34.46,34.46,0,0,0,34.45,34.48c8.35,0,16.25-2.64,22-7.86a3.34,3.34,0,0,1,2.31-.92,3.4,3.4,0,0,1,2.44,1l3.87,3.85a2.24,2.24,0,0,0,1.59.66,2.32,2.32,0,0,0,2.34-2.3V26.82a2.32,2.32,0,0,0-2.34-2.3,2.24,2.24,0,0,0-1.59.66L569.24,29a3.4,3.4,0,0,1-2.44,1,3.34,3.34,0,0,1-2.31-.92c-5.7-5.22-13.61-7.86-22-7.86a34.46,34.46,0,0,0-34.45,34.48"/><path class="cls-3" d="M529.43,55.73c0-8.19,6.24-14.87,14-14.87s14,6.68,14,14.87-6.26,14.87-14,14.87-14-6.67-14-14.87"/></svg>