<svg id="Layer_1" data-name="Layer 1" xmlns="http://www.w3.org/2000/svg" viewBox="0 0 409.38 300"><defs><style>.cls-1,.cls-2{fill:#0756a5;}.cls-2{fill-rule:evenodd;}</style></defs><title>adbirds-logo</title><path class="cls-1" d="M18.35,106.51l1,4.85-1,3.18,1.23,1.23L21,121.63l.5,5.63-.22,5.63-.78,1.23-.45,1.23.45,1.73L18.86,142l3.9.23,1.45,1.73.28,5.86,2,1.23.22,4.91H18.58l-2,2-.5,4.13-.95,2.23-.72,2,.95,2.46-1.23,3.4L13.22,174,11,173.79l-2.9.5-.72-1.73-2.45,2-2.23.5L0,173.5v-3.17l.73-6.58,2-2.23L3,155.44l3.18-14.67.72-3.68,1-3,1-4.91,3-16.63,1.17-1.45-.45-1,3.63-13.95Zm2.46-13.72h4.91l1.17.95h1.23V92.56l5.19.22L34,94.52l2,7.08.73,5.86.22,3.18v1.45l-.45,2.23,2,.5L39.66,118l1,7.59.5,3.4,1.45,4.41-.22,6.36,1.45,1.73,2.45,9.26,1,4.69,1,5.63,1.23,3.62.22,7.86L45.24,174l-2.9-.72-2,.72-4.91-.95-1-5.19L34.25,164l-2-2,.22-5.35-.95-4.41-.28-3.46-2-2,1-2.18-2-6.64-1-5.86-2.45-12.94-4.13-25Z"/><path class="cls-1" d="M55,107.69l1.16-.23.28-.93,2.74-.14,1.31.28.79,1,1.16-1.16,2.46-.28,1.21.79.23,13.06-.88,1.44.51,1.3.51,1.16.14,10.46.28,3.26-.79,1.16-.42.93.79,1.53v17.39l-.65.79v1.16l.42,1.44.88,2.74-.37,5.21L66.09,173,65,174l-1.68.42-1.86-.55-1-.74-1.16,1.29H57.07l-1.3-.55-1.16-.74.09-5.77.93-.65v-1.58l-.93-1.17.42-10.45.79-.88-.79-1.44v-9l-.28-9.76.79-2.23-.51-1.58-.28-12,.42-2.74L55.4,112Zm15.16-.84L70,109l.79.88.23,1.58-1.16,1.16.14,3.25,1.16,1.07,1.44,1.58v1.4l.93,1.86-.14,1.44.79,2.18.88,2L74.69,129l-.42,2,.14,3.77v14.36l.42,2.88.09.51L75.2,154l-1.16.79-.42,1.3-.51,2.6-.79,1.81-1.16,1.86-1,1.53v2.09l.09,2.88.93.93-.65.51-.14,2.6.42,1.72h2.46l2-.41,2-.89,1.3-1.07.51-.93,1.58-.37,1.72-1.81,1.3-2.23.79-2.1.75-3.25-.65-2.09v-1.3l1.44-1.07.79-1.67-.14-12.27-.79-.51v-1.07l.65-1V125.92l-.51-2.38-.51-.65-1-1.16.51-1.21a6.17,6.17,0,0,0-.4-2.65c-.36-1.09-.64-2-.86-2.74a13.62,13.62,0,0,0-2.74-3.86,39,39,0,0,0-3.58-3.72,18.62,18.62,0,0,0-3-2l-3.39.09Z"/><path class="cls-1" d="M95.46,93.29H97.8l1.39.28,1.12.84h.95l1.23-1.12,3-.17,1.9.61.17,1.73v6.92l-.33,6.08-.45,2.18.61,2.23.17,11.27-.95,8.42-.45,1.9.89,1.12.5,21.31-1.56,2.62.61,2.23.78,1.68L107,173.79,105,175h-4.07l-.78-1.06-.78-.78-1.56,1.68-2.51.17-1.56-.45L92.78,173l.17-8.31,1.06-.61-.28-1.56-.78-4.07-.67-1.28.34-3.9v-7l.78-1.28V122.58l1.12-.61v-1.12l-.78-.61-.17-13.34,1.23-.78-.45-1.23-.95-.17.17-11.27Zm16.46,40.23-.33-.12-.17-5.52,1.39-.45L115,126l1.84-2.4.78-3.4.61-1.9.95-.78.33-1.23-1.39-.67v-1.4l-.5-2.34-1.06-2.85-2.06-1.4-1.9-.78-1.39-1.56.34-3.91,1.23-.33L113,100l-1.11-1.12-.28-5.47,1.06-.5,2.68-.45h1.28l1.67.61,3.18.17,1.56.45,1.23,1.12,2.17,1.73,1.45,1.4-.33.95v.61l1.56.17,1.11,1.23,1.23,2.68,1,3.46.61,4.69-1.23,1.9-.61,1.73.78.78.61,1.23v6.13l-1.4,3L129.88,128,128,131.78l-2.84,1.62-1.12.45.45.39L126.7,136l1.45,1.4-.34.95v.61l1.56.17,1.12,1.23,1.23,2.68.95,3.46.62,4.69L132.06,153l-.62,1.73.78.78.61,1.22v6.13l-1.39,3-1.28,1.56-1.84,3.74-2.84,1.62-2.34.89.22.05-2.12.73-5.41.17-2.73-1-.28-.61-.95-.28-.17-5.52,1.4-.45,2.23-1.4,1.84-2.4.78-3.4.61-1.9.95-.78.34-1.23-1.4-.67v-1.4l-.5-2.34-1.06-2.85-2.06-1.39-1.9-.78-1.39-1.57.33-3.9,1.23-.33.17-1.06-1.12-1.12Z"/><path class="cls-2" d="M395.75,252.46c3.21,3.9,12.06,20.59,13.63,24.1-2.65-10.07-15.44-30.13-20.75-37.69-13.32-18.95-15.4-24-19.42-31.72-8.34-16-11.22-25.78-13.19-28.59,2.66.89,15.44,11.74,20.38,16.73,6.41,6.41,25.92,24.17,31.39,27.81-7.43-7-32.55-39.23-34.86-43-4.51-7.45-20.24-26.65-23.12-30.48-10.28-13.68-12.9-21.12-22.15-35.83-9.06-14.42-13.27-32.09-22.23-46.86-3.64-6-6.76-12.81-10.82-18.63C290.13,41.8,284.56,35.58,280.2,29c-3.69-5.55-6.28-11.53-10.21-16.82C259.48-1.93,231.82-7,224.92,14.6c-4.16,1.05-11.73.61-15,4.2,0-.07,1.69,2.85,16.19,1.81,2.46,5.94,6.74,10.6,8.41,16.83,1.38,5.16-.93,11.77-1.8,15.62-1.76,7.77-1.68,15.72,4,30.09,6.92,16.26,40.27,40.48,40.48,40.21,6.72,4.06,30.36,19.33,40.15,30.85,13.35,16.24,26.7,32.29,31.95,44.25,5.13,11.65,10.09,22.6,15,33.65,2.29,5.13,2.56,5.62,8.87,24.58,1.77,5.32,4.21,13.56,5.41,18.68A122.66,122.66,0,0,1,381.37,300a33.94,33.94,0,0,0,.75-12.36,186.56,186.56,0,0,0-3.49-21.3c-3-14.12-7.47-25.72-8.91-30.1-2.07-6.34-6.5-17.36-7.8-21-3.58-9.88-3.55-15.19-3.6-16.2.08.2,1.65,2.54,19.83,29.42C386,238.22,387.12,239.94,395.75,252.46Z"/><path class="cls-1" d="M140.46,107.69l1.16-.23.28-.93,2.74-.14,1.3.28.79,1,1.16-1.16,2.47-.28,1.21.79.23,13.06-.89,1.44.51,1.3.51,1.16.14,10.46.28,3.26-.79,1.16-.42.93.79,1.53v17.39l-.65.79v1.16l.42,1.44.89,2.74-.37,5.21-.65,2.88-1.07,1-1.67.42-1.86-.55-1-.74-1.16,1.29h-2.23l-1.3-.55-1.16-.74.09-5.77.93-.65v-1.58l-.93-1.17.42-10.45.79-.88-.79-1.44v-9l-.28-9.76.79-2.23-.51-1.58-.28-12,.42-2.74.14-1.81Z"/><path class="cls-1" d="M160.81,106.53h2l1.16.23.93.69h.79l1-.93,2.46-.14,1.58.51.14,1.44v5.76l-.28,5.07L170.2,121l.51,1.86.14,9.39-.79,7-.37,1.58.74.93.42,17.76-1.3,2.18.51,1.86.65,1.39-.28,8.65-1.67,1h-3.39l-.65-.89-.65-.65-1.3,1.4-2.09.14-1.3-.37-.79-1.31.14-6.93.88-.52-.23-1.29-.65-3.4-.56-1.06.28-3.25v-5.86l.65-1.07V130.94l.93-.51v-.93l-.65-.51-.14-11.11,1-.65-.37-1-.79-.14.14-9.39Zm14.32-.28,2.23-.37h1.07l1.39.51,2.65.14,1.31.37,1,.93,1.81,1.44,1.21,1.16-.28.79v.51l1.3.14.93,1,1,2.23.79,2.88.51,3.9-1,1.58-.51,1.44.65.65.51,1v5.11l-1.16,2.46-1.07,1.3L188,138.61,185.59,140l-2,.75,2,.79,2.23,1.16,2.09,1.44.74,2.51.7,2.46.37,1.3-.14,2.88-.23,1.68-.56,1.44,1.21.79.09,2.88.42,3.76-.42,4.32.42,1.82.79,2.37-.79,2.32-4.46.14-1-.79-.65-.51-1.3,1.16H184l-2.18.14-.56-.79-.65-1.3-.23-2.09-.28-1.3-.65-1.3-.14-3.91,1.44-.65.42-1.45-.56-.5-1.3-.8.14-1.58-.14-3.76.79-1.72.28-1.16-.56-1-.88-1.44-.79-1.07-.65-1.16-1.81-.28L174,145.81l.28-4.56,1-.56-.23-.51-.79-.24-.14-4.6,1.16-.37,1.86-1.16,1.53-2,.65-2.84.51-1.58.79-.65.28-1-1.16-.56V124l-.42-2-.88-2.37-1.72-1.16-1.58-.65-1.16-1.3.28-3.25,1-.28.14-.89-.93-.93-.23-4.56Z"/><path class="cls-1" d="M198.79,107.69l1.16-.23.28-.93,2.74-.14,1.3.28.79,1,1.16-1.16,2.46-.28,1.21.79.23,13.06-.88,1.44.51,1.3.51,1.16.14,10.46.28,3.26-.79,1.16-.42.93.79,1.53v17.39l-.65.79v1.16l.42,1.44.89,2.74-.37,5.21L209.9,173l-1.07,1-1.67.42-1.86-.55-1-.74-1.16,1.29h-2.23l-1.3-.55-1.16-.74.09-5.77.93-.65v-1.58l-.93-1.17.42-10.45.79-.88-.79-1.44v-9l-.28-9.76.79-2.23-.51-1.58-.28-12,.42-2.74.14-1.81Zm15.15-.84-.14,2.09.79.88.23,1.58-1.16,1.16.14,3.25L215,116.9l1.44,1.58v1.4l.93,1.86-.14,1.44.79,2.18.88,2L218.5,129l-.42,2,.14,3.77v14.36l.42,2.88.09.51L219,154l-1.17.79-.41,1.3-.51,2.6-.79,1.81L215,162.31l-1,1.53v2.09l.09,2.88.93.93-.65.51-.14,2.6.42,1.72h2.46l2-.41,2-.89,1.3-1.07.51-.93,1.58-.37,1.72-1.81,1.3-2.23.79-2.1.74-3.25-.65-2.09v-1.3l1.44-1.07.79-1.67-.14-12.27-.79-.51v-1.07l.65-1V125.92l-.51-2.38-.51-.65-1-1.16.51-1.21a6.18,6.18,0,0,0-.39-2.65c-.36-1.09-.65-2-.86-2.74a13.76,13.76,0,0,0-2.75-3.86,39,39,0,0,0-3.58-3.72,18.48,18.48,0,0,0-3-2l-3.39.09Z"/><path class="cls-1" d="M236.13,154.71l9.24-2.13-.23,1,1.07.6v1.24l.37,2.08.8,2.52,1.58,1.24,1.49.69,1.07,1.38-.28,3.47-.93.29-.14.95.89,1,.19,4.86-.79.44-2.05.4h-1l-1.26-.55-2.47-.14-1.16-.39-1-1-1.63-1.54-1.12-1.23L239,169v-.55l-1.22-.15-.83-1.08-.94-2.38-.75-3.07-.46-4.17.93-1.68Zm6.39-11.6.19,0-1.82-.79-2.19-1.44-1.4-3.32-1-1.39-1.07-2.63V128l.47-1.1.6-.69-.46-1.54-1-1.68.46-4.17.75-3.07.93-2.39.89-1.09,1.17-.15v-.54l-.24-.84,1.12-1.24,1.68-1.54.93-1,1.21-.39,2.43-.15,1.31-.54h1l2.05.4.84.44-.23,4.86-.84,1,.09.94,1,.29.23,3.47-1.07,1.39-1.44.7-1.58,1.24-.84,2.53-.37,2.08v1.24l-1.07.6.28,1.09.7.69.46,1.69.6,3,1.45,2.13L250.4,137l1.07.4-.09,4.91-.75.24-.23.55-2.1.84-4.15-.14Zm20.8-5.25-.14,0,1.77.8,2.19,1.44,1.4,3.33,1,1.39,1.07,2.62v5.46l-.51,1.08-.56.7.47,1.53.93,1.69-.46,4.16-.75,3.07-.94,2.38-.84,1.09-1.21.15v.54l.23.84-1.12,1.24L264.26,173l-1,1-1.17.39-2.47.16-1.31.55h-1l-2.05-.39-.79-.46.19-4.85.89-1-.14-.93-.93-.31-.28-3.46,1.07-1.39,1.45-.69,1.59-1.24.84-2.53.37-2.08v-1.24l1.07-.6-.23-1.09-.74-.69-.47-1.69-.6-3-1.4-2.13L255.44,144l-1.07-.4.14-4.91.7-.25.23-.54,2.1-.84,4.15.1Zm6.53-12.19-9.23,2.13.23-1-1.07-.6V125l-.37-2.08-.79-2.53L257,119.12l-1.5-.69L254.46,117l.28-3.47.93-.3.15-.94-.89-1-.19-4.86.79-.45,2.05-.39h1l1.26.54,2.47.15,1.16.39,1,1,1.63,1.54,1.12,1.24-.23.85v.54l1.21.15.84,1.09.93,2.38.75,3.07.46,4.16-.93,1.69Z"/><path class="cls-1" d="M278.46,161.84a6.75,6.75,0,1,1-6.81,6.79A6.73,6.73,0,0,1,278.46,161.84Zm0,12.53a5.77,5.77,0,1,0-5.72-5.74A5.69,5.69,0,0,0,278.46,174.36Zm3.67-4.47a3.43,3.43,0,0,1-3.39,2.83,3.92,3.92,0,0,1-4-4.14,3.83,3.83,0,0,1,4-4.12,3.19,3.19,0,0,1,3.43,2.76h-1a2.32,2.32,0,0,0-2.4-1.78,2.87,2.87,0,0,0-2.92,3.1,3,3,0,0,0,3,3.2,2.32,2.32,0,0,0,2.36-1.85Z"/></svg>