<svg id="Layer_1" data-name="Layer 1" xmlns="http://www.w3.org/2000/svg" viewBox="0 0 600 137.55"><defs><style>.cls-1{fill:#106db6;}.cls-2{fill:#1c2453;}</style></defs><title>agis-logo</title><path class="cls-1" d="M75.91,60.32c1.38,6.47-2.47,10.45-7.85,11s-12.26-2.07-17.48-9.64c2.75.15,11.15,0,7.29-9.49a15.5,15.5,0,0,1-3.72,1l-4.27-5.5c3.86-1,8.26-3.17,7.84-8.4,0,0-1.24-14.73-16.38-19.13-.41-1.66-1.24-3.58-1.65-5.09s-.27-3,1.65-2.75c9.92,1.24,20.38,13.91,27.13,27.12-.28-9.22-8.68-18.58-8.68-18.58-2.34-2.48-2.06-6.47,2.76-5.92,17.21,2.2,27.81,24.37,23.82,35.24A19.11,19.11,0,0,1,75.91,60.32M50.72,119l-.27-.27c-8.68-14.32-26.17-22-26.17-22C40.53,81.25,52,119,52,119Zm67-6.61c-.27,1.24-1.24,7.31-5.78,9.11-2.47-11.57-10-29.06-25.33-21.9-13.35,6.18-23,36.19-23.41,38H60.08C56.91,103.69,51.82,91,42.19,82.48c-3.31-2.9-8-4.26-12.26-4.68C18.1,76.69,15.62,70.1,15.48,68.3c-.27-3,.14-4.26,1.92-8.25a24.82,24.82,0,0,0,1.79-8.13c-.68-.41-3.71-2.89-3.71-4.82,0,0,15.42-17.48,25.33-21.06,0,0,2.2.27.28,2.2A39.33,39.33,0,0,1,36,33.34c-.14.13-1.8,2.06,0,3.44.41.13,4.26,1.92,3.57,8.26-12.8-7.44-14.87,3-12.95,8.12,0,0,2.34,6.19.14,8.39-2.34.42-5,1.25-5.37,3.86a5.55,5.55,0,0,0-.14,1.38s0,6.19,12.39,7.16c.14,0,26,3.71,29.88,44.87l38.55-79.43c-7.71-10.87,5.64-14.32,7.16-14.59l2.2-5.1C96.7,1.26,121.06,0,121.06,0a33,33,0,0,1,6.33.27c0,3.44-4.12,3.72-4.12,3.72-7.3.41-9.22,2.61-9.36,4.68a6.89,6.89,0,0,0,1.1,4L117.35,8a4.8,4.8,0,0,1,4.55,2.2l-3.16,7.16c8,10.19-5.65,14.73-7,15.14L83.34,93.36c4.26-2.62,24.92-12.8,31.39,18.85.41-2.47,1.24-7.43-.82-10.59,0,0,12.11,4.54,13.76,20.09-.69-1.51-4.55-8.66-9.92-9.36m-76.54,15.3c-5.37-3.59-2.76-7.58-1.93-8.55C27,108.51,6.53,107,6.53,107c12.95-19.14,40.34,12.94,40.34,12.94-7.17,2.76-2.07,6.06-1.94,6.2,3.87,2.89,9.91,1.24,10.19,1.1l.41,1.52c-7.15,3.71-14.31-1.09-14.31-1.09M.89,116.5c-2.48-3.17,1-4.56,1.65-4.69,0,0,12.53-3.45,27.95,7-14.18,7.71-27.27.7-29.6-2.33"/><path class="cls-2" d="M227.07,80.28V72.85a55.91,55.91,0,0,0,11.7,1.65c4.55,0,6.47-1.24,6.47-4.14,0-2.06-1.11-3.16-4.41-5l-5.37-2.47c-5.51-2.48-8.11-6.2-8.11-11.84,0-8.4,5.36-12.95,15.27-12.95,3.17,0,6.06.54,12.25,2.06v7.16a40,40,0,0,0-11-1.51c-3.71,0-5.5,1.1-5.5,3.57,0,2.07.83,2.62,4.82,4.55l4.54,2.2c5.78,2.77,8.68,6.33,8.68,12.53,0,8.67-5.79,13.49-15.56,13.49-3.44,0-7-.41-13.76-1.93M208.35,38.7h11.29V81.79H208.35ZM172.28,78.63c-4.69-3.44-7.15-9.22-7.15-17.2S167.73,47.1,172.55,43c4-3.44,8.41-4.69,15.42-4.69,2.76,0,5.52.41,11.57,1.92v7a43.76,43.76,0,0,0-8.54-1c-9.9,0-14.31,4.54-14.31,14.73,0,9.09,3.57,13.35,11.28,13.35.55,0,1.11-.14,1.65-.14V61.84h10.6V80.28c-6.73,1.51-9.91,1.93-13.63,1.93-6.61,0-10.73-1-14.32-3.58M137,63.49h9.23l-4.68-17.34Zm11.29,7.29H135.38l-2.89,11H122.44L136.35,38.7h13.49l13.35,43.09h-12Z"/><path class="cls-1" d="M591.35,121.32V105.88c0-2.47-1-3.44-3.6-3.44a11.07,11.07,0,0,0-2.72.41v18.47h-8.55V97.08h8.26v1.51c.29-.13.42-.13.55-.28,4.13-1.38,5.51-1.79,7.44-1.79a7.94,7.94,0,0,1,5.65,2.34c1.22,1.51,1.63,3.17,1.63,6.6v15.85ZM563,106.16v-.69c0-3.17-1-4.55-3.17-4.55s-3.31,1.52-3.31,4.68v.83H563Zm-6.48,5c0,3.71,1.95,5.23,7.16,5.23a49.29,49.29,0,0,0,6.34-.41v4.27c-5.25,1.11-7.44,1.37-9.49,1.37a14.41,14.41,0,0,1-8.4-2.48c-2.62-2.2-3.86-5.09-3.86-9.77,0-8,4.56-12.8,12.12-12.8,5.23,0,8.68,2.34,10,6.61.55,1.65.68,3.3.68,8Zm-22-9.08a.49.49,0,0,1-.27-.14H533c-3.71,0-5.79,2.47-5.79,7.16,0,4.27,1.79,6.6,5.23,6.6a10.45,10.45,0,0,0,2.07-.27Zm4.14,28.08a17.67,17.67,0,0,1-8.27,1.65c-2.89,0-4.68-.28-10-1.51v-5a35.59,35.59,0,0,0,7.86,1c4.93,0,6.32-1.1,6.32-4.93V119.8c-3.3,1.52-4.81,1.92-6.32,1.92-6.07,0-9.64-4.55-9.64-12,0-7.71,4.54-13.09,11.15-13.09a9.12,9.12,0,0,1,5.1,1.52v-1.1H543v24.37c0,4.68-1.1,7-4.39,8.66m-33.88-8.79V105.88c0-2.47-1-3.44-3.57-3.44a11.39,11.39,0,0,0-2.77.41v18.47h-8.53V97.08h8.25v1.51c.28-.13.41-.13.55-.28,4.14-1.38,5.51-1.79,7.44-1.79a7.88,7.88,0,0,1,5.64,2.34c1.24,1.51,1.66,3.17,1.66,6.6v15.85ZM474.87,97.08h8.67v24.24h-8.67Zm4.41-2.21c-3.86,0-5-.82-5-3.57s1.1-3.45,5-3.45,4.82.82,4.82,3.45-1.11,3.57-4.82,3.57m-13.77,8a12.5,12.5,0,0,0-3.16.42v18h-8.54V97.08h8.25v1.79c4.41-1.94,5-2.21,6.21-2.21a8.1,8.1,0,0,1,2.62.55V104a12.26,12.26,0,0,0-5.38-1.1m-25.05,3.31v-.69c0-3.17-1-4.55-3.17-4.55s-3.44,1.52-3.44,4.68v.83h6.6Zm-6.6,5c0,3.71,2.06,5.23,7.15,5.23a49.09,49.09,0,0,0,6.33-.41v4.27c-5.22,1.11-7.43,1.37-9.35,1.37a13.6,13.6,0,0,1-8.41-2.48c-2.75-2.2-3.85-5.09-3.85-9.77,0-8,4.41-12.8,12-12.8,5.23,0,8.68,2.34,10.19,6.61.55,1.65.68,3.3.68,8ZM415.67,107l8.12,14.34h-10l-6.47-12.81v12.81h-8.54V85.24h8.54v22.85l8.13-11h8.53Zm-30.43-.82v-.69c0-3.17-1-4.55-3.16-4.55s-3.3,1.52-3.3,4.68v.83h6.46Zm-6.46,5c0,3.71,1.93,5.23,7.16,5.23a49.2,49.2,0,0,0,6.33-.41v4.27c-5.24,1.11-7.44,1.37-9.36,1.37a14.86,14.86,0,0,1-8.54-2.48c-2.62-2.2-3.86-5.09-3.86-9.77,0-8,4.56-12.8,12.13-12.8,5.23,0,8.67,2.34,10.05,6.61.55,1.65.69,3.3.69,8Zm-32.36,10.2v-5.11l11-14.32H347.26V97.08h19.68v4.82l-11.14,14.45h11.7v5Zm-8-18.47a11.84,11.84,0,0,0-3.16.42v18h-8.53V97.08H335v1.79c4.41-1.94,5-2.21,6.2-2.21a8,8,0,0,1,2.61.55V104a12.24,12.24,0,0,0-5.37-1.1m-25.19,3.31v-.69c0-3.17-1-4.55-3.17-4.55s-3.31,1.52-3.31,4.68v.83h6.48Zm-6.48,5c0,3.71,1.93,5.23,7.17,5.23a49.14,49.14,0,0,0,6.33-.41v4.27c-5.22,1.11-7.43,1.37-9.35,1.37a14.86,14.86,0,0,1-8.54-2.48c-2.61-2.2-3.85-5.09-3.85-9.77,0-8,4.53-12.8,12.11-12.8,5.23,0,8.67,2.34,10,6.61.57,1.65.7,3.3.7,8Zm-18.3,10.2h-9.78l-8-24.24h9.22l4.68,18.16L289,97.08h7.7ZM258.32,102c-.14,0-.28-.14-.42-.14h-1.1c-3.72,0-5.78,2.47-5.78,7.16,0,4.27,1.79,6.6,5.23,6.6a11.92,11.92,0,0,0,2.07-.27Zm4.13,28.08a17.68,17.68,0,0,1-8.26,1.65c-2.89,0-4.68-.28-10.19-1.51v-5a37.81,37.81,0,0,0,7.85,1c5.1,0,6.48-1.1,6.48-4.93V119.8c-3.44,1.52-4.83,1.92-6.48,1.92-5.92,0-9.5-4.55-9.5-12,0-7.71,4.55-13.09,11.15-13.09a9.42,9.42,0,0,1,5.09,1.52v-1.1h8.27v24.37c0,4.68-1.24,7-4.4,8.66m-28.36-27.26a12.58,12.58,0,0,0-3.17.42v18h-8.54V97.08h8.27v1.79c4.4-1.94,5-2.21,6.18-2.21a8,8,0,0,1,2.62.55V104a12.26,12.26,0,0,0-5.37-1.1m-29.6-1.37c-2.89,0-4.13,2.21-4.13,7.57,0,5.65,1.1,7.84,4.13,7.84,2.75,0,4-2.34,4-7.71s-1.25-7.71-4-7.71m-.27,20.37c-7.85,0-12.53-4.53-12.53-12.25,0-8.27,4.68-13.22,12.94-13.22,7.85,0,12.39,4.54,12.39,12.25,0,8.26-4.68,13.21-12.8,13.21m-36.63-.53v-5.11l11-14.32H168.43V97.08h19.68v4.82L177,116.35h11.7v5Z"/></svg>