<svg id="Layer_1" data-name="Layer 1" xmlns="http://www.w3.org/2000/svg" viewBox="0 0 462.91 300"><defs><style>.cls-1{fill:#350457;}.cls-2{fill:#00ab4e;}</style></defs><title>centraal-beheer-logo</title><path class="cls-1" d="M390.76,112.82l16-70.73-.87.27a358,358,0,0,0-35.26,12.76l-.24.11L355.9,121.54h.65a87.6,87.6,0,0,0,11.5-.86l7.69-1.47c6.23-1.5,11.51-3.73,14.87-6.27Z"/><path class="cls-1" d="M462.22,78c-3.33-9.79-16-15.41-34.78-15.41A109.41,109.41,0,0,0,409.21,64l-.35.06-4,18.27,2.61-.54a71,71,0,0,1,12.89-1.39l1.93.08c5.18.24,14.3,1.82,17,9.61,2.07,5.84-3.1,13.06-14.54,20.31-7.64,4.81-17.92,9.36-29.76,13.15l-8.14,2.4-.08.3-1,4.16,6.34-1.65,7-2c31.59-10,55.31-24.37,61.9-37.44C463,85.37,463.44,81.53,462.22,78Z"/><path class="cls-2" d="M420.09,0l-.66.19L406.12,4.13l-5,1.63c-52.71,17.4-116.18,51.17-121.6,89.08a24.88,24.88,0,0,0,6,20.58c10.36,11.91,32.45,18.48,62.21,18.48a230.62,230.62,0,0,0,23.52-1.32l.39,0,.89-4.5-12.53.4c-22.13,0-39.62-5.05-48-13.87a18.66,18.66,0,0,1-5.46-14.22h0c1.06-21.8,44.27-51.71,100.49-69.57l12.65-3.63.38-.1Z"/><path class="cls-2" d="M319.34,279.59l-.32.09-.66,3.74.78-.18c15-3.56,30-11.67,29.82-21.76-.09-5.76-6-9.78-14.35-9.78l-2.29.14c-20.81,1.81-33,16.88-34.07,30.15A17.65,17.65,0,0,0,303,294.86c3.31,3.36,8.18,5.14,14.09,5.14h3.32c9.7-.66,20.93-6.06,27.34-13.14l.22-.24-1.38-3.28-.53.34c-10.18,6.69-16,7.32-21,7.4h-.61c-3,0-7-.68-9.2-3.94s-1.94-8.6.81-15.34c1.78-4.3,8.94-14.57,14-15.36l1.47-.15c2.4,0,3.57,1.22,3.57,3.72A20.84,20.84,0,0,1,319.34,279.59Z"/><path class="cls-2" d="M264.13,279.59l-.32.09-.66,3.74.77-.18c15-3.56,30-11.67,29.83-21.76-.09-5.76-6-9.78-14.43-9.78l-2.39.16C256.3,253.64,244.09,268.72,243,282a17.66,17.66,0,0,0,4.73,12.88c3.31,3.36,8.18,5.14,14.1,5.14h3.32c9.71-.66,20.93-6.06,27.34-13.14l.22-.24-1.37-3.28-.53.34c-10.18,6.69-15.93,7.32-21,7.4h-.69c-3,0-7-.68-9.21-3.94s-1.94-8.61.81-15.34c1.66-4.17,8.85-14.56,14-15.36l1.46-.15c2.4,0,3.57,1.22,3.57,3.72A20.85,20.85,0,0,1,264.13,279.59Z"/><path class="cls-2" d="M152.07,279.59l-.32.09-.66,3.74.78-.19c14.5-3.46,30-11.74,29.75-21.76,0-5.66-6-9.78-14.34-9.78l-2.2.13C144.24,253.64,132,268.71,131,282a17.66,17.66,0,0,0,4.72,12.89c3.29,3.35,8.17,5.12,14.11,5.12h3.32c9.62-.65,20.84-6.05,27.34-13.14l.23-.25-1.47-3.27-.51.34c-10.1,6.69-15.89,7.32-21,7.4h-.68c-4.23,0-7.5-1.4-9.2-3.94a9.74,9.74,0,0,1-1.46-5.49,26.66,26.66,0,0,1,2.33-9.84c1.66-4.18,8.83-14.56,14-15.36l.37,0,1.09-.1c2.43,0,3.57,1.22,3.57,3.72C167.83,267.36,163,276.62,152.07,279.59Z"/><path class="cls-2" d="M112.13,252.16h-.19c-.42,0-10.44.61-16.83,5.75L95,258l-1.39,5.66,1.29-1.2a11.81,11.81,0,0,1,7.83-3.18l1.39.07c4,.71,7.22,5.49,7.22,10.68,0,.27,0,.54,0,.82-.5,6.84-2.65,11.07-8.25,16.17-6.71,5.31-14.89,7-19,7.74l14.63-65.71-.89.33L82.57,235,68.23,299.08h2c0,.08,3.24.15,3.24.15a85.85,85.85,0,0,0,17.49-1.71c15.26-3.3,33.13-9.47,35.93-27.93.2-5.34-1.37-10-4.43-13.17A14.13,14.13,0,0,0,112.13,252.16Z"/><path class="cls-2" d="M389.83,251.62h-1c-4.67.78-9,3.44-12.82,7.9-.12.24-1,4.41-1,4.41l-.2,1,.93-.43a13.05,13.05,0,0,1,6.34-1.42c2.47,0,8.6,2.27,9.8,4.8l.64,1.36,3.75-16.1-.3-.2C394.31,251.79,391.41,251.62,389.83,251.62Z"/><path class="cls-2" d="M375.12,252l-14.85,5.81-9.16,41h1.19c4.74,0,11.6-1.9,13.85-3.84l.13-.11L376,251.68Z"/><path class="cls-2" d="M230.05,251.54c-6.15,0-13.8,3.25-22.68,9.49l7.19-32.2-.91.35L198.72,235l-14.49,64.39h.89c4.58,0,12.13-1.88,14.42-4.08l.12-.11,6.61-29.09c5.6-2.78,11.32-4.79,13.68-4.79,1.74,0,3,.59,3,1.41a5.42,5.42,0,0,1-.21,2.62l-.08.35c-.22.89-5.42,21.91-5.88,25.07a8.09,8.09,0,0,0,5.78,8.84l.84.1c3.73,0,9.4-5.79,9.64-6l.35-.36-.35-.37a4.61,4.61,0,0,1-1.42-4s6.26-25.44,6.26-25.44a13.13,13.13,0,0,0,.56-5C238.12,254.19,234.85,251.54,230.05,251.54Z"/><path class="cls-2" d="M19.94,206.5a9.78,9.78,0,0,1-2.82-6.95c0-.17,0-.34,0-.52.62-11.92,23.23-27.69,56.26-39.22l2.68-.85.29-.09,4-17.08-.74.09a46.32,46.32,0,0,0-6.36,1.72l-2.94.93C39.88,154.66,3.19,174.26.1,196.16a16.56,16.56,0,0,0,4.18,13.29c5.84,6.45,17.29,9.85,33.09,9.85a150,150,0,0,0,16-1l.35,0,1.46-5-8.73.34C33.73,213.63,24.33,211.1,19.94,206.5Z"/><path class="cls-2" d="M79.93,219.07c9.59-.59,20.82-6,27.34-13.06l.23-.26L106,202.48l-.51.34c-10.19,6.69-15.73,7.32-21,7.4l-.15,0-.53.05c-4.2,0-7.47-1.42-9.19-4-2.24-3.34-2-8.65.79-15.37,1.79-4.31,8.95-14.57,14-15.36l1.54-.15c2.38,0,3.49,1.18,3.49,3.72a20.93,20.93,0,0,1-15.76,19.58l-.32.09-.66,3.73.78-.18c15-3.63,30-11.74,29.82-21.68,0-4.9-4.92-9.86-14.34-9.86l-2.45.16c-20.58,1.78-32.8,16.86-33.83,30.14a17.35,17.35,0,0,0,4.6,12.77c3.3,3.38,8.19,5.17,14.14,5.17Z"/><path class="cls-2" d="M321,219l2.09-.08c7.9-.66,14.5-4.89,16.5-6.28a8.31,8.31,0,0,0,6.13,6.19l.84.1c3.73,0,9.4-5.78,9.64-6l.35-.36-.35-.37a4.62,4.62,0,0,1-1.42-4c.11-.56,5.21-23.5,7.89-35.55l.21-1L346.91,178,340,206.91c-5,2.67-8,3-9.74,3a8.56,8.56,0,0,1-6.19-2.58,6.44,6.44,0,0,1-1.78-4.83c.37-12,11.88-22.52,19.93-26.19l.23-.11,1.17-5.16-.81.19c-14.83,3.33-25.19,9.78-32.59,20.28-2.07,3.63-4.42,8.39-4.42,13.58C305.91,213.68,311.7,219,321,219Z"/><path class="cls-2" d="M295,208.19c.1-.58,5.2-23.51,7.88-35.55l.21-1L287.22,178l-7,28.9c-5,2.67-8,3-9.74,3a8.58,8.58,0,0,1-6.11-2.56,6.59,6.59,0,0,1-1.87-4.86c.45-12,12-22.55,20-26.18l.24-.11,1.17-5.16-.81.19c-14.84,3.33-25.19,9.78-32.59,20.28-1.91,3.23-4.42,8.11-4.42,13.58.08,8.57,5.87,13.89,15.12,13.89l2.08-.08c7.91-.66,14.47-4.89,16.44-6.29a8.31,8.31,0,0,0,6.12,6.19l.92.1c3.73,0,9.4-5.78,9.64-6l.35-.36-.34-.37A4.58,4.58,0,0,1,295,208.19Z"/><path class="cls-2" d="M231,183.84l-.22,1,.94-.42a13.39,13.39,0,0,1,6.43-1.42c2.44,0,8.51,2.22,9.8,4.81l.66,1.31,3.65-16.08-.31-.2c-1.93-1.22-5.19-1.31-6.15-1.31h-.93c-4.74.71-9.07,3.34-12.83,7.83C231.94,179.59,231,183.84,231,183.84Z"/><path class="cls-2" d="M380.8,215.57l.72-.43.2-.12,14.93-66.63-.89.32-15.26,5.5-14.42,64.55h2C372.17,218.76,378,217.64,380.8,215.57Z"/><path class="cls-2" d="M208.35,218.76c4.42,0,11.41-1.71,13.79-3.92l.12-.12,9.83-43.21-.92.36-14.93,5.9-9.08,41Z"/><path class="cls-2" d="M192.28,212.9l-.25-.37c-1.46-2.13-2-3.39-2-4.76a8.83,8.83,0,0,1,.29-2l6.32-28.25h14.13l1.25-5.38H197.89c.25-1.13,2.54-11.52,2.54-11.52l-.92.36-14.93,5.89-1.21,5.34-7.18-.08L175,177.53h7.17l-6.5,28.71a16.87,16.87,0,0,0-.4,3.61c0,4.52,2.08,7.94,5.77,9.13l.93.1c3.72,0,9.68-5.62,9.93-5.86Z"/><path class="cls-2" d="M147.52,180.61c1.75,0,2.88.6,2.94,1.52a6.1,6.1,0,0,1-.37,2.91c-.23.92-5.34,21.94-5.81,25.1A8.13,8.13,0,0,0,150,219l.92.1c3.73,0,9.4-5.78,9.64-6l.35-.36-.35-.37a4.74,4.74,0,0,1-1.42-4.05l6.18-25.35a12.74,12.74,0,0,0,.64-4.61v-.38c-.34-4.37-3.6-7-8.32-7-6.22,0-13.87,3.24-22.68,9.49l1.94-8.81L121,177.77l-9.24,41h.89c4.51,0,12-1.88,14.41-4.08l.12-.11,6.39-28.94C139.21,182.85,145.17,180.69,147.52,180.61Z"/></svg>