<svg id="Layer_1" data-name="Layer 1" xmlns="http://www.w3.org/2000/svg" viewBox="0 0 600 188"><defs><style>.cls-1{fill:#232e3e;}</style></defs><title>knab-logo</title><path class="cls-1" d="M228.32,50c-19.62,0-32.05,9.58-39.52,21.28h-.55l.26-18.9H150.8c-3.32,0-6.52,4-6.52,7.87V175.91c0,3.86,3.19,7.63,6.71,7.63h37.52v-64.9c0-18.91,5.27-33.8,24.32-33.8,18.26,0,21,13,21,30.34v60.64c0,4,3.14,7.72,6.46,7.72h37.76v-77.4c0-31.67-10.23-56.13-49.75-56.13"/><path class="cls-1" d="M510.32,150.89c-18.56,0-31.22-13.82-31.22-34.05s12.66-34.07,31.22-34.07,30.92,13.84,30.92,34.07-12.36,34.05-30.92,34.05M519.89,50c-17.77,0-30,6.07-37.39,12.49.16-4.68.33-11.56.33-18.36V0H445.14c-3.32,0-6.52,4.06-6.52,7.77v168c0,4,3.12,7.72,6.62,7.72h35.39l-.18-10.74c10.09,9.31,23.87,13.67,39.17,13.67,39.51,0,64.41-29.8,64.41-68.37S559.14,50,519.89,50"/><path class="cls-1" d="M136.54,52.39H91a13.74,13.74,0,0,0-9.25,4.17L44.22,95.75V0H6.51C3.19,0,0,4,0,7.72V175.94c0,3.77,2.64,7.6,6.54,7.6H44.22V143.91l12.16-11.45,30.23,46.15c2.82,3.78,6.73,4.93,11.26,4.93h42.84L86.8,101.61Z"/><path class="cls-1" d="M377.87,147.36c-2.78,4.55-10.8,12-22.68,12-12.17,0-20.73-6.14-20.73-16.23,0-9.85,8-15.43,21.56-16l21.85-1.33ZM405.5,65.16C394.72,55.58,380.08,50,354.64,50A138.18,138.18,0,0,0,302,60.78c-3.15,1.4-4.39,5.49-3.12,8.62L307.94,91c6.91-4.26,24.32-11.71,41.74-11.71,17.69,0,27.91,7.2,27.91,21v2.94l-34.26,1.34c-25.15,1.06-53.09,10.91-53.09,40.16s25.44,41.77,49.48,41.77c22.12,0,33.17-11.18,39-16.76l.57,8.93c.18,2.46,2.64,4.89,6.05,4.89h36.5V109.6c0-22.09-5.8-34.86-16.32-44.43"/><path class="cls-1" d="M588.44,172.79h-1.56v3.56h1.56c1.27,0,2.38-.33,2.38-1.77s-1.11-1.79-2.38-1.79m5.79,10.72H591l-2.77-5.05h-1.35v5.05h-2.7V170.65h4.7c2.94,0,4.77,1.44,4.77,3.88a3.5,3.5,0,0,1-2.72,3.6Zm-5.61-15.72a9.3,9.3,0,1,0,9.63,9.27,9.34,9.34,0,0,0-9.63-9.27m0,20.22c-6.38,0-11.41-4.78-11.41-10.95s5-10.93,11.41-10.93a10.95,10.95,0,1,1,0,21.88"/></svg>