<svg xmlns="http://www.w3.org/2000/svg" xmlns:xlink="http://www.w3.org/1999/xlink" viewBox="0 0 400.15 300"><defs><style>.cls-1{isolation:isolate;}.cls-2{fill:#231f20;}.cls-3{fill:url(#linear-gradient);}.cls-4{fill:url(#linear-gradient-2);}.cls-5{fill:url(#linear-gradient-3);}.cls-6{fill:url(#linear-gradient-4);}.cls-7{fill:url(#linear-gradient-5);}.cls-10,.cls-11,.cls-12,.cls-8,.cls-9{mix-blend-mode:multiply;}.cls-8{fill:url(#linear-gradient-6);}.cls-9{fill:url(#linear-gradient-7);}.cls-10{fill:url(#linear-gradient-8);}.cls-11{fill:url(#linear-gradient-9);}.cls-12{fill:url(#linear-gradient-10);}</style><linearGradient id="linear-gradient" x1="19.1" y1="90.88" x2="60.8" y2="90.88" gradientUnits="userSpaceOnUse"><stop offset="0" stop-color="#2a5caa"/><stop offset="0.15" stop-color="#4e74b8"/><stop offset="0.52" stop-color="#a1abd7"/><stop offset="1" stop-color="#2a5caa"/></linearGradient><linearGradient id="linear-gradient-2" x1="60.8" y1="90.88" x2="102.5" y2="90.88" xlink:href="#linear-gradient"/><linearGradient id="linear-gradient-3" x1="102.49" y1="90.88" x2="144.19" y2="90.88" xlink:href="#linear-gradient"/><linearGradient id="linear-gradient-4" x1="144.18" y1="90.88" x2="185.88" y2="90.88" xlink:href="#linear-gradient"/><linearGradient id="linear-gradient-5" x1="185.89" y1="90.88" x2="227.59" y2="90.88" xlink:href="#linear-gradient"/><linearGradient id="linear-gradient-6" x1="19.11" y1="90.89" x2="33.67" y2="90.89" gradientUnits="userSpaceOnUse"><stop offset="0" stop-color="#231f20"/><stop offset="0.15" stop-color="#514e4f"/><stop offset="0.38" stop-color="#8e8c8d"/><stop offset="0.58" stop-color="#bfbebe"/><stop offset="0.76" stop-color="#e2e1e1"/><stop offset="0.91" stop-color="#f7f7f7"/><stop offset="1" stop-color="#fff"/></linearGradient><linearGradient id="linear-gradient-7" x1="60.8" y1="90.89" x2="75.36" y2="90.89" xlink:href="#linear-gradient-6"/><linearGradient id="linear-gradient-8" x1="102.5" y1="90.89" x2="117.06" y2="90.89" xlink:href="#linear-gradient-6"/><linearGradient id="linear-gradient-9" x1="144.19" y1="90.89" x2="158.75" y2="90.89" xlink:href="#linear-gradient-6"/><linearGradient id="linear-gradient-10" x1="185.88" y1="90.89" x2="200.44" y2="90.89" xlink:href="#linear-gradient-6"/></defs><title>kosmos-logo</title><g class="cls-1"><g id="Layer_1" data-name="Layer 1"><path class="cls-2" d="M18.91,228.3H28v34h.31c1.88-2.72,3.77-5.24,5.55-7.54L55.44,228.3H66.74L41.2,258.24l27.53,40.61H58L34.82,264.2,28,271.95v26.9H18.91Z"/><path class="cls-2" d="M101,300c-18.73,0-31.71-14.44-31.71-35.8,0-22.4,13.82-37.05,32.66-37.05,19.36,0,31.82,14.76,31.82,35.69C133.8,287,119,300,101.14,300Zm.42-7.43c14.45,0,22.61-13.29,22.61-29.31,0-14-7.33-28.68-22.5-28.68S78.85,248.71,78.85,264c0,14.87,8.16,28.58,22.5,28.58Z"/><path class="cls-2" d="M144.06,287.75a30.9,30.9,0,0,0,16.23,4.6c9.32,0,14.76-4.81,14.76-12,0-6.49-3.77-10.36-13.29-13.92-11.51-4.19-18.63-10.26-18.63-20.1,0-11,9.11-19.16,22.82-19.16,7.12,0,12.46,1.68,15.49,3.46L178.91,238a26.11,26.11,0,0,0-13.29-3.35c-9.63,0-13.29,5.76-13.29,10.57,0,6.59,4.29,9.84,14,13.61,11.93,4.71,17.9,10.36,17.9,20.72,0,10.89-8,20.41-24.6,20.41-6.81,0-14.24-2.09-18-4.61Z"/><path class="cls-2" d="M352.17,287.75a30.91,30.91,0,0,0,16.23,4.6c9.32,0,14.76-4.81,14.76-12,0-6.49-3.77-10.36-13.29-13.92-11.51-4.19-18.63-10.26-18.63-20.1,0-11,9.11-19.16,22.82-19.16,7.12,0,12.46,1.68,15.49,3.46L387,238a26.1,26.1,0,0,0-13.29-3.35c-9.63,0-13.29,5.76-13.29,10.57,0,6.59,4.29,9.84,14,13.61,11.93,4.71,17.9,10.36,17.9,20.72,0,10.89-8,20.41-24.6,20.41-6.81,0-14.24-2.09-18-4.61Z"/><path class="cls-2" d="M255.85,267.86c-.52-9.84-1.15-21.77-1.15-30.46h-.21c-2.51,8.16-5.34,17.06-8.89,26.79l-12.46,34.23h-6.91l-11.51-33.6c-3.35-10.05-6.07-19-8.06-27.42h-.21c-.21,8.79-.73,20.52-1.36,31.19l-1.89,30.25h-8.69l4.92-70.55H211l12,34.13c2.93,8.69,5.24,16.43,7.12,23.76h.21c1.88-7.12,4.4-14.86,7.54-23.76l12.56-34.13h11.62l4.4,70.55h-9Z"/><path class="cls-2" d="M309.83,300c-18.74,0-31.72-14.44-31.72-35.8,0-22.4,13.82-37.05,32.66-37.05,19.36,0,31.82,14.76,31.82,35.69,0,24.18-14.76,37.16-32.66,37.16Zm.42-7.43c14.44,0,22.61-13.29,22.61-29.31,0-14-7.33-28.68-22.5-28.68S287.63,248.71,287.63,264c0,14.87,8.16,28.58,22.51,28.58Z"/><rect class="cls-3" x="19.1" width="41.7" height="181.75"/><rect class="cls-4" x="60.8" width="41.7" height="181.75"/><rect class="cls-5" x="102.49" width="41.7" height="181.75"/><rect class="cls-6" x="144.18" width="41.7" height="181.75"/><rect class="cls-7" x="185.89" width="41.7" height="181.75"/><rect class="cls-8" x="19.11" y="0.02" width="14.56" height="181.75"/><rect class="cls-9" x="60.8" y="0.02" width="14.56" height="181.75"/><rect class="cls-10" x="102.5" y="0.02" width="14.56" height="181.75"/><rect class="cls-11" x="144.19" y="0.02" width="14.56" height="181.75"/><rect class="cls-12" x="185.88" y="0.02" width="14.56" height="181.75"/><path class="cls-2" d="M268.84,181.75h21.75v4.18H0v-4.18H227.59V0h63V4.18H268.84V86.42l61.89-60.49c6.69-6.41,10.59-10.87,10.59-14.78,0-5-4.46-7-13.94-7h-3.62V0h67.74V4.18h-4.74c-18.4,0-34.29,8.91-52.13,26.47L303.69,61.05l77.5,120.7h19v4.18H312.61v-4.18h19L273.86,89.21l-5,4.74Z"/></g></g></svg>