<svg id="Layer_1" data-name="Layer 1" xmlns="http://www.w3.org/2000/svg" viewBox="0 0 600 189.48"><defs><style>.cls-1{fill:#0067a6;}.cls-2{fill:#ed1c24;}</style></defs><title>master-it-logo</title><path class="cls-1" d="M7.44,148.72V154h8.79v32.64h5.61V154h8.89v-5.32H7.44Z"/><path class="cls-1" d="M104.16,159.54c0-7.29-4.63-10.83-14.11-10.83H84v38h5.61V170.95l10.84,15.73h6.88L95.6,170.14C100.82,169.15,104.16,165.14,104.16,159.54ZM89.61,154H90c5.5,0,8.48.92,8.48,5.79,0,4.07-2.44,5.74-8.44,5.74h-.48Z"/><path class="cls-1" d="M174.34,147.44l-17.29,39.23h6.15s4-9.47,4.39-10.33h14.51l4.29,10.33h6.19L175.06,145.8Zm.61,11.79c1,2.43,4.25,10.19,4.93,11.8h-10C170.6,169.39,173.91,161.65,175,159.23Z"/><polygon class="cls-1" points="245.38 148.72 245.38 186.67 250.99 186.67 250.99 148.72 250.22 148.72 245.38 148.72"/><path class="cls-1" d="M336.14,175.74,307.75,146v40.67h5.63V159.78c2.42,2.55,28.37,29.69,28.37,29.69V148.72h-5.61Z"/><polygon class="cls-1" points="398.56 148.72 398.56 186.67 404.17 186.67 404.17 148.72 403.39 148.72 398.56 148.72"/><path class="cls-1" d="M489.32,175.74c-2.45-2.55-28.39-29.74-28.39-29.74v40.67h5.6V159.78l28.39,29.69V148.72h-5.6Z"/><path class="cls-1" d="M587,166.82H570.31v5.33H581c-.5,5.9-6.47,9.85-12.11,9.85a14.52,14.52,0,0,1-9.78-4.42,13.83,13.83,0,0,1-4-9.72,14.28,14.28,0,0,1,14.09-14.43c4.79,0,8.8,2.2,11.86,6.53l.52.72,4.11-3.84-.43-.56c-4.16-5.42-9.56-8.16-16-8.16A19.6,19.6,0,1,0,569,187.3,18.81,18.81,0,0,0,583.09,181c3.42-4,4.05-8.21,4-13.36Z"/><polygon class="cls-1" points="537.48 46.6 537.48 114.05 551.71 114.05 551.71 46.6 550.92 46.6 537.48 46.6"/><path class="cls-1" d="M587.62,46.6V6.32H573.38V46.6h-6.89V60h6.89v54.06h14.24V60H600V46.6Z"/><path class="cls-1" d="M164.79,2.27l-48,104.7L95.86,0l-1,2.27-35.77,82L22.34,0,0,114.05H15.26l12.15-68.7,31.71,72.12S89.24,49,90.81,45.37c.7,3.91,12.14,68.69,12.14,68.69h26.56l12.12-26.61h47.72l12.12,26.61H217.4L165.5.73Zm18.38,71.51H147.81c.87-2,16.4-37.32,17.68-40.25Z"/><path class="cls-1" d="M246.07,6.12c-16,0-32,8.1-32,26.19,0,15.34,11.32,22.34,23.56,27.61L244.92,63c8.63,3.59,17.83,8.33,17.83,19.43s-8.26,19.92-18.79,19.92a20,20,0,0,1-14.45-5.83A18.74,18.74,0,0,1,224.18,83V82l-15,3.16.1.7c2.33,17.62,16.45,30.4,33.58,30.4,19.79,0,34.72-14.56,34.72-33.86,0-19.54-13.57-27.48-26.83-32.7l-7.61-3c-9.61-3.68-14.29-8.42-14.29-14.47,0-8.46,8.53-12.24,17-12.24L282.54,20h14.18v94.06h14.8V20h25.2V6.32H282.54Z"/><path class="cls-1" d="M343.29,6.32V114.05h58.59V100.4h-43.8V61.8h42.53V48.14H358.09V20h43.8V6.32H343.29Z"/><path class="cls-1" d="M476.22,37.38c0-10.86-5.49-20.84-14.32-26s-19.72-5-28.42-5H416.64V114.05h14.81V69.13h4.3L467,114.05h18L451.29,67.6C466,65.23,476.22,53,476.22,37.38ZM462.27,38c0,16.53-14.64,18.65-27.39,18.65h-3.43V19.71h2.74C446.25,19.71,462.27,21.59,462.27,38Z"/><polygon class="cls-2" points="558.53 6.32 530.25 6.32 530.25 35.4 559.32 35.4 559.32 6.32 558.53 6.32"/><rect class="cls-1" x="0.07" y="129.72" width="599.16" height="4.67"/></svg>