<svg id="Layer_1" data-name="Layer 1" xmlns="http://www.w3.org/2000/svg" viewBox="0 0 600 138.39"><defs><style>.cls-1{fill:#342a7b;}.cls-2{fill:#f1645d;}</style></defs><title>modint-logo</title><path class="cls-1" d="M15.14,57.43V137h-14V54.87H15.1ZM67.51,84.64l38.84-49.85h13V137h-14V57.43h-.28L84.34,84.83Z"/><path class="cls-1" d="M186.55,33.44c32,0,52.27,24,52.27,52.47,0,27.59-19.66,52.48-52.56,52.48-31.76,0-51.85-24.74-51.85-52.48C134.41,57.58,155.07,33.44,186.55,33.44Zm0,91.46c21.79,0,37.89-16.64,37.89-39s-16.1-39-37.89-39-37.75,16.49-37.75,39S164.89,124.9,186.55,124.9Z"/><path class="cls-1" d="M267.82,123.85V48h21.51c27.21,0,39.6,17.39,39.6,37.93,0,12.59-7.26,37.93-38.88,37.93h-8.71V137h10.42c32,0,51.56-24.89,51.56-51.13,0-24.14-15.81-51.13-51.7-51.13H253.86V137h13.89Z"/><path class="cls-1" d="M505.73,137h-12l-65-78.71v60.35h-13.1V34.79h11.11L492.63,114V34.79h13.1Z"/><path class="cls-1" d="M600,48H566.38V137h-14V48H518.81V34.79H600Z"/><circle class="cls-1" cx="354.48" cy="13.88" r="13.88"/><path class="cls-2" d="M59.33,85.82c11.6,22.83,23.15,45.8,42.22,51.23-33.7,0-47.69-25.28-59.4-51.25l.07.34C30.63,63.32,19.07,40.34,0,34.92c33.7,0,47.69,25.28,59.4,51.25Z"/><path class="cls-2" d="M386.56,85.82c11.59,22.83,23.15,45.8,42.22,51.23-33.7,0-47.69-25.28-59.4-51.25l.07.34c-11.6-22.83-23.15-45.8-42.22-51.23,33.7,0,47.69,25.28,59.4,51.25Z"/></svg>