<svg id="Layer_1" data-name="Layer 1" xmlns="http://www.w3.org/2000/svg" viewBox="0 0 600 141.39"><defs><style>.cls-1{fill:#007bb9;}.cls-2{fill:#ed2024;}</style></defs><title>nlziet-logo</title><path class="cls-1" d="M598.9,100.63a8.08,8.08,0,0,0-11-2.95,30.47,30.47,0,0,1-13.3,3.58c-4.54,0-7.92-1.29-10.63-4.06a15.89,15.89,0,0,1-4.22-10.57c0-.17,0-46.62,0-46.62h30a8.07,8.07,0,0,0,0-16.13h-30V8.06a8.07,8.07,0,0,0-16.14,0V86a31.72,31.72,0,0,0,8.83,22.46c5.79,5.91,13.24,8.9,22.15,8.9A46,46,0,0,0,596,111.63,8,8,0,0,0,598.9,100.63Z"/><path class="cls-1" d="M376.85,116H319.42a8.07,8.07,0,0,1-6.52-12.82l46-63.05H320.25a8.07,8.07,0,0,1,0-16.14h54.49a8.07,8.07,0,0,1,6.52,12.83l-46,63.05h41.56a8.07,8.07,0,0,1,0,16.14Z"/><path class="cls-1" d="M415.51,116.8a8.06,8.06,0,0,1-8.07-8.06V31.23a8.07,8.07,0,1,1,16.13,0v77.51A8.06,8.06,0,0,1,415.51,116.8Z"/><path class="cls-1" d="M521.34,69.15V60.5a37.85,37.85,0,1,0-75.7,0V70.81c0,42,29.13,46.51,41.66,46.51a62.17,62.17,0,0,0,27.86-6.82,8.07,8.07,0,0,0-7.84-14.11,46.27,46.27,0,0,1-20,4.79c-15.27,0-23.56-7.86-25.21-24h51.19A8.07,8.07,0,0,0,521.34,69.15Zm-16.14-8.07H461.77V60.5a21.72,21.72,0,1,1,43.44,0Z"/><path class="cls-2" d="M23.5,117.39a9.22,9.22,0,0,0,9.22-9.21V61.26A20.32,20.32,0,0,1,53,41h.06a20.32,20.32,0,0,1,20.3,20.24v46.92a9.22,9.22,0,0,0,9.22,9.21h0a9.22,9.22,0,0,0,9.21-9.24V61.24A38.71,38.71,0,0,0,25.48,34.18,31.32,31.32,0,0,0,20,29l-5.23-3.9a9.23,9.23,0,0,0-11,14.81L9,43.85l.08.07A12.88,12.88,0,0,1,14.4,54.47v53.68a9.23,9.23,0,0,0,9.23,9.23"/><path class="cls-2" d="M144.34,141.39a9.15,9.15,0,0,1-5.4-1.76l-6.06-4.38a31.64,31.64,0,0,1-13-25.53V27.65a9.23,9.23,0,1,1,18.45,0v82.08a13.13,13.13,0,0,0,5.4,10.59l6,4.37a9.23,9.23,0,0,1-5.41,16.71Z"/><path class="cls-2" d="M227.16,80.32A21.86,21.86,0,0,0,245,45.86c8.64,3.78,17.36,10.24,26.07,19.38A9.63,9.63,0,0,0,285,52c-18.52-19.45-38-29.3-57.86-29.3S187.84,32.51,169.32,52a9.63,9.63,0,0,0,13.94,13.28c8.7-9.14,17.43-15.61,26.07-19.38a21.86,21.86,0,0,0,17.84,34.47Z"/></svg>