<svg id="Layer_1" data-name="Layer 1" xmlns="http://www.w3.org/2000/svg" viewBox="0 0 300.02 300"><defs><style>.cls-1{fill:#f36f21;}.cls-2{fill:#fff;}</style></defs><title>npo-logo</title><path class="cls-1" d="M9.18,130.73C-3.06,143-3.06,157,9.18,169.24L130.75,290.82c12.24,12.24,26.27,12.24,38.51,0L290.85,169.24c12.23-12.24,12.23-26.28,0-38.52L169.26,9.17C157-3.06,143-3.06,130.76,9.17Z"/><path class="cls-2" d="M155.64,69.25c-4.15,4.15-7.6,4.26-11.29.57l-8.86-8.88c-3.69-3.67-3.58-7.15.55-11.26l7.76-7.77c4.13-4.14,7.59-4.25,11.28-.57L164,50.23c3.68,3.67,3.56,7.15-.55,11.27ZM126.71,39.9c-10.27,10.27-10.11,21.25-1,30.42L135,79.53c9.15,9.17,20.15,9.34,30.43-.93l7.31-7.33C183,61,182.83,50,173.69,40.84l-9.24-9.21c-9.15-9.16-20.15-9.32-30.43.95ZM109.4,115.49c-4.14,4.15-7.59,4.25-11.29.56l-8.87-8.88c-3.69-3.68-3.58-7.15.54-11.27l7.76-7.76c4.15-4.14,7.6-4.25,11.29-.57l8.89,8.89c3.67,3.67,3.56,7.14-.57,11.27Zm-.28,30.66c3.41,3.41,7.25,2.9,9.89.28s3.06-6.41-.34-9.83l-6.82-6.8c1.84-.39,4.13-1.8,6.82-4.48l7.81-7.82c10.28-10.27,10.11-21.25,1-30.43l-9.24-9.21c-9.15-9.16-20.15-9.32-30.42,1l-7.32,7.32c-10.28,10.27-10.11,21.25-1,30.43Zm-27.92,7.92c3.4,3.41,7.2,3,9.83.34s3.13-6.47-.28-9.88L71.16,124.94c-9.17-9.16-20.16-9.33-30.43.94l-7.32,7.31c-10.27,10.28-10.11,21.27-.94,30.43l19.59,19.61c3.42,3.42,7.26,2.92,9.88.3s3.08-6.45-.35-9.84L42.18,154.24c-3.7-3.67-3.58-7.14.57-11.27l7.76-7.76c4.13-4.14,7.59-4.25,11.28-.56Z"/></svg>