<svg id="Layer_1" data-name="Layer 1" xmlns="http://www.w3.org/2000/svg" viewBox="0 0 600 289.98"><title>play-logo</title><path d="M245.55,154.31,229.43,145l16.13-9.32a23.44,23.44,0,0,0,0-40.59L86.35,3.18A23.43,23.43,0,0,0,51.2,23.47V42.06L35.15,32.78a23.19,23.19,0,0,0-23.43,0A23.19,23.19,0,0,0,0,53.08V236.91a23.2,23.2,0,0,0,11.72,20.3,23.19,23.19,0,0,0,23.43,0l16.05-9.27v18.58a23.38,23.38,0,0,0,35.15,20.29l159.2-91.91a23.44,23.44,0,0,0,0-40.59m-9.65,23.88L76.7,270.1a4.13,4.13,0,0,1-6.2-3.58V103.46a9.65,9.65,0,0,0-19.3,0V225.65L25.5,240.49a4.14,4.14,0,0,1-6.2-3.58V53.08a4.14,4.14,0,0,1,6.2-3.58L166.65,131a9.65,9.65,0,1,0,9.65-16.71L70.5,53.2V23.47a4.13,4.13,0,0,1,6.2-3.58L235.9,111.8a4.14,4.14,0,0,1,0,7.16l-25.77,14.89-.06,0L190.78,145l.06,0L94.59,200.6a9.65,9.65,0,1,0,9.65,16.71l105.89-61.17L235.9,171a4.14,4.14,0,0,1,0,7.16"/><path d="M311,62.72h27.86c27.86,0,46.66,12.19,46.66,36.92,0,24.9-19.15,37.26-46.66,37.26H321.93v49.28H311Zm11,9.4V127.5H337.6c21.77,0,36.39-7.31,36.39-27.69S359.37,72.13,337.6,72.13Z"/><path d="M400.81,173.12V57.5h10.45V172.08c0,3.31,1,5.57,5.4,5.57h9.93v8.53c-3.14.35-9.06.52-11.32.52-10.62,0-14.45-4.18-14.45-13.58"/><path d="M437.72,163.89c0-20,17.41-27.34,38.83-27.34a76.48,76.48,0,0,1,19.33,2.26v-9.05c0-14.28-5.92-24.73-24-24.73-9.06,0-16.89,2.61-25.6,9.05l-4.35-7.66c10.45-8.88,23-10.62,31.52-10.62,25.42,0,32.91,15.84,32.91,31.34v44.93c0,3.31,1,5.57,5.4,5.57h9.92v8.53c-3.14.35-9.06.52-11.32.52-10.1,0-13.76-3.66-14.1-11.84L492.39,178c-9.92,8.18-19.85,10.45-28.21,10.45-19,0-26.47-11.49-26.47-24.55m51.72,6.27,6.44-4.87V147.53a79.12,79.12,0,0,0-18.11-1.91c-16.89,0-29.43,3.83-29.43,18.81,0,8.36,4,15,17.06,15,8.18,0,15.5-2.61,24-9.23"/><path d="M514.68,223.8l1.39-8.36a42.29,42.29,0,0,0,13.76,2.27c7.49,0,14.63-2.27,20-16.72l5.22-14.1L521.82,98.07h11.49L561,175l28.38-77H600l-39.88,105.7c-7,18.46-16,23.16-28.73,23.16a41.24,41.24,0,0,1-16.72-3.13"/><polygon points="310.33 222.51 313.83 222.51 322.27 245.96 330.91 222.51 334.15 222.51 324.02 249.36 320.41 249.36 310.33 222.51"/><path d="M338.4,242.57c0-6.1,5.31-8.33,11.83-8.33a23.22,23.22,0,0,1,5.89.69v-2.76c0-4.35-1.8-7.53-7.32-7.53a12.42,12.42,0,0,0-7.8,2.76l-1.33-2.33a14.7,14.7,0,0,1,9.6-3.24c7.75,0,10,4.83,10,9.55v13.69c0,1,.32,1.7,1.64,1.7h3v2.6c-1,.11-2.76.16-3.45.16-3.07,0-4.19-1.12-4.3-3.61l-1.17,1a13.16,13.16,0,0,1-8.6,3.18c-5.78,0-8.06-3.5-8.06-7.48m15.76,1.91,2-1.48v-5.41a24.2,24.2,0,0,0-5.52-.58c-5.15,0-9,1.17-9,5.73,0,2.55,1.22,4.56,5.2,4.56a11.39,11.39,0,0,0,7.32-2.81"/><path d="M369.71,222.51h3.08v4l1.33-1c3.45-2.55,6-3.71,9-3.71,5.31,0,7.8,3.82,7.8,9.12v14.11c0,1,.32,1.7,1.64,1.7h3v2.6c-1,.11-2.76.16-3.45.16-3.24,0-4.4-1.28-4.4-4.14V231.53c0-4.24-1.59-6.9-5.09-6.9-2.28,0-4.51,1.11-7.48,3.29l-2.23,1.65v19.79h-3.18Z"/><path d="M416.14,210.15h3.18v39.2h-3.18Zm12.26,35.49-8.81-11.57,13.21-11.57h4.3l-13.69,11.83,7.64,9.71c1.91,2.44,2.65,2.71,4.72,2.71h2.17v2.6c-1,.11-2.44.16-3.24.16-2.33,0-3.71-.43-6.31-3.87"/><path d="M445.7,226.81c0-1-.32-1.7-1.65-1.7h-3v-2.6c1-.11,2.76-.16,3.45-.16,2.86,0,4,1,4.25,3.18l1.11-.9a12.89,12.89,0,0,1,8.12-2.81c7.16,0,10.77,5.78,10.77,13.1,0,8.44-4.77,15.12-13.26,15.12a13.65,13.65,0,0,1-6.58-1.54v12.57H445.7Zm3.18,1.8v16.92a11.37,11.37,0,0,0,6.26,1.75c6.21,0,10.29-4.72,10.29-12.2,0-5.73-2.39-10.5-8-10.5a11.06,11.06,0,0,0-7.11,2.81Z"/><path d="M476.32,222.51h3.08v4l1.33-1c3.45-2.55,6-3.71,9-3.71,5.31,0,7.8,3.82,7.8,9.12v14.11c0,1,.32,1.7,1.64,1.7h3v2.6c-1,.11-2.76.16-3.45.16-3.24,0-4.4-1.28-4.4-4.14V231.53c0-4.24-1.59-6.9-5.09-6.9-2.28,0-4.51,1.11-7.48,3.29l-2.23,1.65v19.79h-3.18Z"/></svg>