<svg id="Layer_1" data-name="Layer 1" xmlns="http://www.w3.org/2000/svg" viewBox="0 0 600 135.74"><defs><style>.cls-1{fill:#231f20;}.cls-1,.cls-2,.cls-3,.cls-4,.cls-5{fill-rule:evenodd;}.cls-2{fill:#fcb76a;}.cls-3{fill:#a4674e;}.cls-4{fill:#e68f73;}.cls-5{fill:#6ea7bc;}</style></defs><title>qicq-logo</title><path class="cls-1" d="M286.68,105.22A37.35,37.35,0,1,1,320.51,51.9h32.26a67.87,67.87,0,1,0,.29,30.68h-32a37.43,37.43,0,0,1-34.4,22.64"/><path class="cls-1" d="M41.29,94.1a37.19,37.19,0,1,1,61.33-13.76L125.29,103a67.6,67.6,0,1,0-21.4,21.8L81.42,102.33A37.21,37.21,0,0,1,41.29,94.1"/><polyline class="cls-1" points="132.18 134.87 63.24 70.74 68.72 64.85 137.65 128.98 132.18 134.87"/><path class="cls-1" d="M414.34,94.1a37.19,37.19,0,1,1,61.33-13.76L498.34,103a67.6,67.6,0,1,0-21.4,21.8l-22.48-22.48a37.21,37.21,0,0,1-40.12-8.23"/><polyline class="cls-1" points="505.22 134.87 436.29 70.74 441.77 64.85 510.7 128.98 505.22 134.87"/><path class="cls-1" d="M162.64,34h30.55V135.74H162.64V34Zm0,0"/><path class="cls-1" d="M162.64.25h30.55V24.36H162.64V.25Zm0,0"/><path class="cls-2" d="M540.51,38.33h25.73V64.05H540.51V38.33Zm0,0"/><path class="cls-3" d="M540.51,72.09h25.73V97.81H540.51V72.09Zm0,0"/><path class="cls-4" d="M574.27,72.09H600V97.81H574.27V72.09Zm0,0"/><path class="cls-5" d="M574.27,38.33H600V64.05H574.27V38.33Zm0,0"/></svg>