<svg id="Layer_1" data-name="Layer 1" xmlns="http://www.w3.org/2000/svg" viewBox="0 0 600 161.69"><defs><style>.cls-1{fill:#022169;}</style></defs><title>roland-berger-logo</title><path class="cls-1" d="M600,13.69l-.19,21.43c-1.22-.12-8.1.62-12.68,4.89V86.48H565.9v-71h19l1.53,6.63A27.55,27.55,0,0,1,600,13.69Z"/><path class="cls-1" d="M453.94,13.69l-.18,21.43c-1.23-.12-8.12.62-12.69,4.89V86.48H419.85v-71h19l1.53,6.63a27.62,27.62,0,0,1,13.54-8.43Z"/><path class="cls-1" d="M240.31,86.48H219.64V31.72c0-2.41-.79-3.53-3.17-3.53A9.76,9.76,0,0,0,212,29.8V86.48H191.28v-71h19.64l1.1,4.83c.24,0,6.53-6.38,14-6.38,9.33,0,14.33,5.33,14.33,18.64V86.48Z"/><polygon class="cls-1" points="112.06 0 133.35 0 133.35 86.48 112.06 86.48 112.06 0 112.06 0"/><path class="cls-1" d="M31.68,29.18V23.23c0-5.7-1.59-9.41-7-9.41H22.66V38.66h2.07c4.7,0,7-4,7-9.48Zm24.15,57.3H33.76L28.39,58.85c-1.53-7.74-2.26-10.35-4-10.35a6.11,6.11,0,0,0-1.77.13V86.48H1.37V0H31.44c12.08,0,20.8,3.53,20.8,20.94V25.4c0,12.89-4.7,17.1-9.7,19.14,0,0,4.51,2.54,6.65,12.14l6.65,29.8Z"/><path class="cls-1" d="M85.84,70.31V30.85c0-2.42-1.16-4.09-3.78-4.09s-3.72,1.67-3.72,4.09V70.31c0,2.41,1.1,4.15,3.72,4.15s3.78-1.73,3.78-4.15ZM107.06,59c0,25.21-13.3,29-25,29S57,85.06,57,59V43.61c0-24.84,13.35-29.67,25.07-29.67s25,4.83,25,29.67V59Z"/><path class="cls-1" d="M164.94,73.1V51.6c-1.47.25-6.28.25-7.32,5.45a34.36,34.36,0,0,0-.43,6.13v5.27c0,4.58.91,6.13,3.9,6.13a6.15,6.15,0,0,0,3.84-1.48Zm21,13.38H166.58l-1.16-4a16.86,16.86,0,0,1-12.75,5.14C143,87.59,138.1,83,138.1,68.89V59.16c0-16.91,21.34-18.71,26.84-19.33V35.5c0-3.53-1.22-4.89-4.88-4.89-8.91,0-19.76,4.09-19.76,4.09l-.43-16s13.35-4.71,24.33-4.71c14.39,0,21.71,5.2,21.71,21.68V86.48Z"/><path class="cls-1" d="M274.52,72.11v-43a4.5,4.5,0,0,0-3.72-1.61c-3,0-3.78,2.29-3.78,4.71V69c0,2.42.73,4.77,3.78,4.77a4.2,4.2,0,0,0,3.72-1.67Zm21.22,14.37H275.26l-1-3.65s-5.85,4.77-13,4.77c-10.12,0-15.49-6.44-15.49-28.19V43.12c0-23.29,5.49-29.18,16.47-29.18,6.83,0,12,4.52,12.26,4.52V0h21.22V86.48Z"/><path class="cls-1" d="M341.05,65.6V53.09c0-4.4-2.5-6.32-6.34-6.32H332V71.92h2.74c3.72,0,6.34-1.92,6.34-6.32Zm0-38.28V20.13c0-4.15-2.74-6.32-6.34-6.32H332V33.64h2.74c3.6,0,6.34-2,6.34-6.32Zm21.59,36.42c0,13.63-9,22.74-22.81,22.74H311.36V0H340c11.58,0,20.13,5.45,20.13,18.46v2.17c0,9.11-4.21,17.53-13.42,18.09,9.64.37,16,9.42,16,20.32v4.71Z"/><path class="cls-1" d="M395.46,46V32.34c0-3.28-1-4.83-3.72-4.83S388,29.05,388,32.34V46Zm19.39,12h-27v4.89c0,5.76,2.8,7.12,7.5,7.12a74.17,74.17,0,0,0,18.54-2.72l.43,16.41a72.54,72.54,0,0,1-23,3.53c-11.71,0-24.45-3.47-24.45-28.93V44.11c0-26.14,13.35-30.17,25.06-30.17s23,4.52,23,30.17V58Z"/><path class="cls-1" d="M486.32,59.72V30.54a4.5,4.5,0,0,0-3.72-1.61c-3.05,0-3.78,2.29-3.78,4.71v23c0,2.42.73,4.77,3.78,4.77a4.2,4.2,0,0,0,3.72-1.67ZM507.54,75c0,18.14-10.49,24.28-25.92,24.28-14.09,0-22.5-2.11-22.5-2.11l.31-15.8a139.07,139.07,0,0,0,19.88,1.73c5.07,0,7-1.8,7-5.76V69.75c-4.21,4.21-7.62,5.82-12.62,5.82-11.1,0-16.16-6.26-16.16-25.09V39c0-19,5.07-25.09,16.16-25.09,7.38,0,13,5.64,13.3,5.64l1.1-4.09h19.45V75Z"/><path class="cls-1" d="M541.51,46V32.34c0-3.28-1-4.83-3.72-4.83S534,29.05,534,32.34V46Zm19.4,12h-27v4.89c0,5.76,2.8,7.12,7.5,7.12a74.29,74.29,0,0,0,18.54-2.72l.43,16.41a72.66,72.66,0,0,1-23.06,3.53c-11.7,0-24.45-3.47-24.45-28.93V44.11c0-26.14,13.36-30.17,25.06-30.17s23,4.52,23,30.17V58Z"/><path class="cls-1" d="M410.67,147.54c0,1-1,1.22-1.7,1.22H398.6c-.73,0-1.7-.24-1.7-1.22a1.2,1.2,0,0,1,.92-1.28l3-1.1c.49-.18.74-.3.74-1.22v-33c0-.61-.13-.61-.43-.61h-3.11c-.61,0-1-.18-1-1.1,0-.61.43-.92,1.16-1.28l5.18-2.62a2.79,2.79,0,0,1,1.53-.43c.79,0,1.1.55,1.1,1.28v37.77c0,.91.24,1,.73,1.22l3,1.1a1.2,1.2,0,0,1,.92,1.28Z"/><path class="cls-1" d="M393.08,147.31c0,1-.73,1.4-1.65,1.4h-7.31v-3.5a9,9,0,0,1-8,4c-5.72,0-9-4.63-9-9.62V122.88c0-.55-.12-.61-.43-.61h-3.11a1,1,0,0,1-1-1.1c0-.67.43-.91,1.17-1.28l5.17-2.62a2.74,2.74,0,0,1,1.53-.43c.79,0,1.1.55,1.1,1.28v21.68a5.42,5.42,0,0,0,5.36,5.42,7.08,7.08,0,0,0,7.31-7V122.88c0-.55-.12-.61-.43-.61h-3.11c-.61,0-1-.31-1-1.1s.42-.91,1.16-1.28l5.17-2.62a2.74,2.74,0,0,1,1.53-.43c.79,0,1.1.55,1.1,1.28V143.9a1.14,1.14,0,0,0,.79,1.22l2.32.73c1,.3,1.45.55,1.45,1.46Z"/><path class="cls-1" d="M333.57,147.54c0,1-1,1.22-1.7,1.22H321.51c-.73,0-1.7-.24-1.7-1.22a1.2,1.2,0,0,1,.92-1.28l3-1.1c.49-.18.74-.3.74-1.22V126.16a4.94,4.94,0,0,0-5.06-4.93c-2.86,0-7.6,1.63-7.6,8.22v14.5c0,.91.24,1,.73,1.22l3,1.1a1.2,1.2,0,0,1,.92,1.28c0,1-1,1.22-1.7,1.22H304.46c-.73,0-1.7-.24-1.7-1.22a1.2,1.2,0,0,1,.92-1.28l3-1.1c.49-.18.74-.3.74-1.22V122.2c0-.55-.13-.61-.43-.61h-3.11a1,1,0,0,1-1-1,1.17,1.17,0,0,1,.67-1l.49-.31,5.36-2.92a2.68,2.68,0,0,1,1.41-.43c.85,0,1,.73,1,1.28v4.69a8.44,8.44,0,0,1,7.91-4.93c4.39,0,9.14,2.56,9.14,8.53v18.52c0,.91.24,1,.73,1.22l3.05,1.1a1.21,1.21,0,0,1,.91,1.28Z"/><path class="cls-1" d="M265.29,115.76a1.71,1.71,0,0,1-1.77,1.83c-.85,0-1.34-.55-1.83-1.89l-2-6c-.3-.92-3.47-2.31-7.62-2.31-7.25,0-14.31,6.39-14.31,19.31,0,18,10.91,19.43,14.31,19.43s6.58-1.59,7-2.74l2-5.42c.49-1.28,1-2.31,2-2.31a1.76,1.76,0,0,1,2,1.89v7.25a20.24,20.24,0,0,1-13,4.63c-12.24,0-20.16-9.32-20.16-22.66,0-14.07,10.72-22.65,20.16-22.65a21.14,21.14,0,0,1,13.22,4v7.62Z"/><path class="cls-1" d="M213.07,118.71a1.62,1.62,0,0,1-1.2,1.5l-1.82.69c-1.17.46-1.51.77-1.75,1.56l-13,38.63H189.5c-.61,0-1.64-.1-1.63-1.15a1.34,1.34,0,0,1,1-1.35l.75-.19c1.19-.3,2.57-.42,3-1.76l3.23-9.44-8.22-24.73c-.24-.73-.5-1.35-1.17-1.6l-2-.66c-1.16-.42-1.64-.85-1.64-1.7s1-1.16,1.52-1.16h9.87c1.22,0,1.83.3,1.83,1.28,0,.73-.67,1-1.77,1.54l-1.88.75c-.18.09-.43.2-.37.41l.41,1.39,5.13,16.07a14.35,14.35,0,0,1,.61,3.05,14.5,14.5,0,0,1,.64-3l4.79-15.2s.58-2,.6-2.16-.22-.27-.3-.3L200.66,120a1.39,1.39,0,0,1-1-1.35c0-.79.76-1.33,1.71-1.33h10.29a1.29,1.29,0,0,1,1.39,1.36Z"/><path class="cls-1" d="M121.55,145.53c0,1.89-3.71,3.72-7.37,3.72a6.09,6.09,0,0,1-6.27-6.22V121.29H106c-1.4,0-2.44-.49-2.32-1.65.06-.73.36-1.28,1.52-1.7l2.19-.79c1.52-.55,1.46-3.1,1.58-4.51.12-1,.37-3,1.83-3a1.72,1.72,0,0,1,1.58,1.94v5.67h7.74l-1.1,4h-6.64v20.41c0,2.86,1.34,3.59,3.35,3.59a10.77,10.77,0,0,0,3.41-.92,2.82,2.82,0,0,1,1-.18,1.4,1.4,0,0,1,1.46,1.33Z"/><path class="cls-1" d="M72,125.29c0,.37-.24,1.9-1.58,1.9-.79,0-1.52-.79-1.89-2l-1-3.59c-2.74.61-5.6,3.17-5.6,6.27v16.08c0,.91.24,1,.73,1.22l3,1.1a1.21,1.21,0,0,1,.91,1.28c0,1-1,1.22-1.7,1.22H54.49c-.73,0-1.7-.24-1.7-1.22a1.21,1.21,0,0,1,.91-1.28l3-1.1c.49-.18.73-.3.73-1.22V122.18c0-.55-.12-.61-.43-.61H53.94a1,1,0,0,1-1-1,1.15,1.15,0,0,1,.67-1l.49-.31,5.36-2.92a2.66,2.66,0,0,1,1.4-.43c.85,0,1,.73,1,1.28v4.46a8.67,8.67,0,0,1,7.92-4.7l1.7.12.37,6.52.12,1.76Z"/><path class="cls-1" d="M48.69,145.46c0,1.89-3.72,3.71-7.37,3.71-2.62,0-6.27-1.2-6.27-5.65V121.21H33.1c-1.4,0-2.44-.48-2.32-1.64.06-.73.36-1.28,1.52-1.7l2.19-.79c1.52-.55,1.46-3.1,1.58-4.51.12-1,.37-3,1.83-3a1.72,1.72,0,0,1,1.58,1.95v5.66h7.74l-1.1,4H39.5v20.41c0,2.87,1.34,3.59,3.35,3.59a11,11,0,0,0,3.41-.91,2.8,2.8,0,0,1,1-.18,1.4,1.4,0,0,1,1.46,1.34Z"/><path class="cls-1" d="M357.67,139.76a9.73,9.73,0,0,1-10.11,9.44c-2.62,0-5.48-.12-8.1-1.59L339,142.5c-.06-.8-.18-1.47-.18-2a1.69,1.69,0,0,1,1.76-1.89c1.1,0,1.41.61,2,2l1.64,4.14c.24.61,1.81,1.36,2.91,1.37,3.77,0,6-2.44,6-5.61,0-2.31-2.13-4-4.15-5.14-4.21-2.44-9.67-4.52-9.67-10.36s5.23-8.1,10.17-8.1a18.9,18.9,0,0,1,6.34,1.4l.3,3.9c.07.73.19,1.46.19,2a1.59,1.59,0,0,1-1.7,1.46,2.25,2.25,0,0,1-1.83-1.52l-1-2.62c-.24-.67-.85-1.51-3-1.51a4.69,4.69,0,0,0-4.76,4.75c0,2.39,2,3.62,4.23,4.94,4,2.32,9.59,4.56,9.59,10.1Z"/><path class="cls-1" d="M432.69,145.51c0,1.88-3.72,3.71-7.36,3.71A6.09,6.09,0,0,1,419,143V121.26H417.1c-1.41,0-2.44-.49-2.31-1.65.06-.73.36-1.28,1.51-1.7l2.19-.79c1.53-.55,1.47-3.1,1.58-4.5.12-1,.37-3,1.84-3,.73,0,1.57.61,1.57,1.95v5.67h7.75l-1.1,4h-6.65v20.4c0,2.87,1.35,3.6,3.36,3.6a10.79,10.79,0,0,0,3.41-.92,2.77,2.77,0,0,1,1-.18,1.4,1.4,0,0,1,1.45,1.34Z"/><path class="cls-1" d="M517.64,145.53c0,1.89-3.72,3.72-7.36,3.72A6.09,6.09,0,0,1,504,143V121.29H502c-1.41,0-2.44-.49-2.31-1.65.06-.73.36-1.28,1.51-1.7l2.19-.79c1.53-.55,1.47-3.1,1.58-4.51.12-1,.37-3,1.84-3a1.72,1.72,0,0,1,1.59,1.94v5.67h7.73l-1.1,4h-6.64v20.41c0,2.86,1.33,3.59,3.35,3.59a10.8,10.8,0,0,0,3.41-.92,2.77,2.77,0,0,1,1-.18,1.4,1.4,0,0,1,1.45,1.33Z"/><path class="cls-1" d="M496.44,147.49c0,1-1,1.22-1.72,1.22H484.38c-.74,0-1.72-.24-1.72-1.22a1.22,1.22,0,0,1,.92-1.28l3.05-1.1c.49-.18.73-.3.73-1.22V126.11a4.94,4.94,0,0,0-5.05-4.93,7.87,7.87,0,0,0-7.62,8.22v14.5c0,.91.24,1,.73,1.22l3.05,1.1a1.21,1.21,0,0,1,.91,1.28c0,1-1,1.22-1.7,1.22H467.31c-.73,0-1.7-.24-1.7-1.22a1.22,1.22,0,0,1,.92-1.28l3.05-1.1c.48-.18.73-.3.73-1.22V122.15c0-.55-.12-.61-.43-.61h-3.11a1,1,0,0,1-1-1,1.15,1.15,0,0,1,.67-1l.49-.3,5.35-2.93a2.67,2.67,0,0,1,1.41-.43c.86,0,1,.73,1,1.28v4.14c1.58-2,4-4.39,7.91-4.39,4.39,0,9.14,2.56,9.14,8.53V143.9c0,.91.24,1,.73,1.22l3.05,1.1a1.22,1.22,0,0,1,.92,1.28Z"/><path class="cls-1" d="M542,139.76a9.73,9.73,0,0,1-10.11,9.44c-2.62,0-5.48-.12-8.1-1.59l-.49-5.11c-.06-.8-.18-1.47-.18-2a1.69,1.69,0,0,1,1.76-1.89c1.1,0,1.41.61,2,2l1.64,4.14c.24.61,1.81,1.36,2.91,1.37,3.77,0,6-2.44,6-5.61,0-2.31-2.15-4-4.15-5.14-4.21-2.44-9.67-4.52-9.67-10.36s5.23-8.1,10.17-8.1a18.9,18.9,0,0,1,6.34,1.4l.3,3.9c.06.73.19,1.46.19,2a1.59,1.59,0,0,1-1.7,1.46A2.25,2.25,0,0,1,537,124.1l-1-2.62c-.24-.67-.85-1.51-3-1.51a4.68,4.68,0,0,0-4.76,4.75c0,2.39,1.94,3.62,4.22,4.94,4,2.32,9.61,4.56,9.61,10.1Z"/><path class="cls-1" d="M461.79,147.35c0,1-.73,1.4-1.65,1.4h-7.31V145a8.27,8.27,0,0,1-7,4.23c-5.09,0-8.27-3.53-8.27-8.83,0-7.58,7-9.92,10.37-10.37l4.86-.84v-1.53c0-6.35-3.9-6.95-5.85-6.95-2.56,0-3,1-3.56,2.06l-1.25,2.82a1.9,1.9,0,0,1-1.82,1.34,1.38,1.38,0,0,1-1.28-1.4,12.38,12.38,0,0,1,.36-2.25l1.1-5.06A17.54,17.54,0,0,1,447,116.9c4.7,0,10.24,2.92,10.24,10.17v16.88a1.12,1.12,0,0,0,.79,1.22l2.31.73c1,.3,1.47.55,1.47,1.46Zm-9-8.32v-6.42c-5.12.84-10.3,2-10.3,8a4.4,4.4,0,0,0,4.6,4.47,5.73,5.73,0,0,0,5.7-6.1Z"/><path class="cls-1" d="M298.14,132.93c0,11.45-7.13,16.26-12.55,16.26-8.65,0-13.16-7.55-13.16-16.39,0-9.13,5.73-16,13.16-16,6.58,0,12.55,6.52,12.55,16.08Zm-5.12.18c0-6.88-2.74-12.67-7.62-12.67-3.84,0-7.86,3.9-7.86,13.46,0,5,2.13,11.69,7.79,11.69,3.78,0,7.68-3.83,7.68-12.48Z"/><path class="cls-1" d="M180.56,151.75c0,4.21-3.41,9.93-13.76,9.93-9.69,0-12.78-5.67-12.79-9.39a7.25,7.25,0,0,1,4-6.51,3.05,3.05,0,0,1-1.58-2.38c0-1.46,1.16-3.1,4.08-5.48a12.53,12.53,0,0,1-5.05-10.29c0-5.36,3.16-10.79,10-10.79a9,9,0,0,1,5.48,1.89h8.65v3.59H174a12,12,0,0,1,1.58,6.58c0,3.66-1.83,10.72-9.69,10.72a12.93,12.93,0,0,1-2.32-.18c-1.7,1.1-2.5,2.5-2.5,3.41,0,.36.3.85,1.28.85s4.14-.24,6.22-.24c11.57,0,11.94,6.52,11.94,8.28Zm-9.69-22c0-6.7-3.29-9.32-5.91-9.32-1.58,0-4.81,1.4-4.81,6.7,0,3.71,1.89,9.19,5.91,9.19,2.68,0,4.81-2.5,4.81-6.58Zm5.67,22.48c0-3.9-5.36-4.5-8.83-4.5-3.9,0-9,.24-9,4.75s4.51,5.91,8.65,5.91,9.14-1.47,9.14-6.16Z"/><path class="cls-1" d="M148.16,141.32c0,2.87-4.69,7.92-10.66,7.92-9.63,0-12.85-9.56-12.85-16.2,0-10,6.39-16.14,12.43-16.14,8,0,10.6,7.5,11.08,14.25l-18.7,4.5c.67,4.45,2.92,9.26,8.47,9.26a9,9,0,0,0,7.19-2.86c.49-.55,1.28-1.65,2.07-1.65a1,1,0,0,1,1,.91ZM143,127.62c0-3.16-2.44-6.76-5.91-6.76-5,0-8.09,5.39-7.89,11l13-3.21c.61-.18.79-.36.79-1Z"/><path class="cls-1" d="M100.95,147.35c0,1-.73,1.4-1.64,1.4H92V145a8.25,8.25,0,0,1-7,4.23c-5.1,0-8.28-3.53-8.28-8.83,0-7.58,7.26-9.92,10.37-10.37L92,129.2v-1.53c0-6.35-3.9-6.95-5.85-6.95-2.56,0-3,1-3.56,2.06l-1.25,2.82A1.9,1.9,0,0,1,79.51,127a1.38,1.38,0,0,1-1.28-1.4,12.21,12.21,0,0,1,.36-2.25l1.1-5.06a17.53,17.53,0,0,1,6.46-1.34c4.69,0,10.23,2.92,10.23,10.17v16.88a1.13,1.13,0,0,0,.79,1.22l2.32.73c1,.3,1.46.55,1.46,1.46ZM92,139v-6.42c-5.58,1-10.54,2-10.46,8.25,0,2.26,1.59,4.37,4.8,4.37A5.82,5.82,0,0,0,92,139Z"/><path class="cls-1" d="M25.25,136.34c.17,6.67-3.92,13.18-15.08,13.1a21.18,21.18,0,0,1-8.77-1.83L.12,139.94,0,139a1.69,1.69,0,0,1,1.71-1.64,2,2,0,0,1,1.7,1.4c.55,1.1.9,1.92,1.27,2.84a11.4,11.4,0,0,0,1.22,2.31c.92,1.14,2.31,2,5,2,8.48,0,9.58-5.56,9.58-7.94,0-4.06-2.86-6.13-5.91-8C8.89,126.6,1,123.86,1,115.82c0-7.31,5-11.69,14-11.69a22.46,22.46,0,0,1,8.28,1.76l.3,5.12c0,.48.12,1.09.12,1.83a1.7,1.7,0,0,1-1.64,1.76,1.48,1.48,0,0,1-1.64-1.16l-1.28-3.6c-.24-.67-1.06-2.16-5.14-2.18s-8.13,2-8.13,6.82c0,3.77,3.1,6,6,7.73,5.6,3.35,13.18,6.22,13.37,14.13Z"/></svg>