<svg id="Layer_1" data-name="Layer 1" xmlns="http://www.w3.org/2000/svg" viewBox="0 0 600 292.67"><defs><style>.cls-1{fill:#0094d3;}</style></defs><title>shakies-logo</title><path class="cls-1" d="M299.4,0C182.94.46,79.77,31.84,30.16,81.86,10.32,101.85-.1,124.55,0,147.55S10.71,193.18,30.69,213c50,49.61,153.44,80.14,269.9,79.66C468.82,292,600.33,227.16,600,145.1S467.63-.69,299.4,0Zm1.15,285.73c-113,.47-217-30-265-77.66C16.64,189.31,7,168.94,6.93,147.52s9.38-41.86,28.15-60.79c47.63-48,151.4-79.36,264.34-79.82,164.35-.67,293.35,60,293.66,138.23S464.91,285.07,300.56,285.74Z"/><path class="cls-1" d="M370.08,72.36c10,.57,19.56,1.24,29.51,2.09A898.53,898.53,0,0,1,403,168l-30.45.19C372.89,136.3,372.09,105.9,370.08,72.36Zm28.6-8.17c-9.87-1-19.34-1.72-29.26-2.37-.74-11.34-1.59-22.38-2.6-34.2,9.58.91,18.7,2,28.2,3.29C396.43,42.41,397.62,53.14,398.67,64.19Z"/><path class="cls-1" d="M113.87,90.91c-6.35-2-13.64-2.45-22.3-.53C86.79,91.45,78.8,93.44,77,99.84c-2.32,13,38.23-7.51,37,34.73-2,29.35-21.68,35.82-40.23,35.82A147,147,0,0,1,39.62,166a143,143,0,0,1,.18-22.62,72,72,0,0,0,27.88,3.92c7.54-.49,14-2.63,14.49-7.71.15-6.81-10.18-6.15-20.66-8.16s-20.59-6-15.07-23.13c8.69-24.28,32.69-36.25,49.84-42A70.36,70.36,0,0,1,120,62.53C117.58,72.25,115.57,81.41,113.87,90.91Z"/><path class="cls-1" d="M135.16,48.52c9.15-2.61,18-4.91,27.27-7.1-3.18,17.87-5.54,34.39-7.27,51.35l.23,0c3.69-7.58,11.14-14.54,19.46-15.74,15.71-1.85,20,10,19.27,28.29-1,21.82-1.28,42.17-.79,63.46l-30.22,0c-.52-17-.35-33.25.53-50.51.25-5.18.78-12-4.47-11.63-5.39.63-5.82,7.34-6.11,12.44-1,17-1.15,33-.6,49.71H122.4C120.73,129.1,124.86,91.16,135.16,48.52Z"/><path class="cls-1" d="M209.74,78.56c9.15-4.72,14.15-6.83,25.77-7.68,17.08-1.13,36.62,3.05,37,39.17-.1,20.07-.07,38.88.1,58.54l-28.26.09c-.05-4.6-.09-9-.12-13.6H244c-4.33,10.84-11.66,15.71-20.33,15.79-11.86-.14-23-7.39-23.23-26.84.55-28.57,17.64-34.94,32.82-35.7a82.84,82.84,0,0,1,11.7.83C244.83,96.56,237,95.58,229.42,96c-7.24.46-14.75,4.34-21,9.27C208.79,96.32,209.19,87.69,209.74,78.56Zm35,48.46-3,.07c-6.36.18-13.34,1.17-13.57,11.07,0,6.59,2.33,8.92,7.1,8.88,6.36-.25,9.32-8.75,9.45-17.09C244.73,128.94,244.74,128,244.74,127Z"/><path class="cls-1" d="M313.12,110.19h.24C319.07,97,324.42,84.3,329.78,70.81c11.32.23,22.17.6,33.48,1.17-6.17,14.54-12.53,28.34-19.39,42.73,7.82,18.44,15.22,35.65,22.56,53.46l-35.54.18c-5.79-15.7-11.48-30.77-17.4-46.74h-.24c.13,16,.2,31.06.22,46.82l-30.47.12c-.28-46.66-.2-91.23.28-143.31,9.62-.35,18.82-.48,28.44-.41C312.38,55.18,312.83,82.44,313.12,110.19Z"/><path class="cls-1" d="M440.83,133.78c1.05,11.24,8,13.69,17.08,13.93,8.41.16,15.64-1.57,20.45-4.77.19,7.31.19,14.28,0,21.57-8.27,3.4-17.65,5-28.38,5.12-25.74,0-37.77-16.81-39.47-49.22-1-31.52,9.46-46.22,34.22-43.19,23.73,3.52,35.64,25,37.64,53.48.12,1.67.2,3.27.28,4.94C468.51,134.9,455,134.31,440.83,133.78ZM455.39,116c-.54-6.81-2.24-17.28-9.06-18.12-6.94-.48-7.38,9.87-6.59,17.06C445,115.29,450.1,115.63,455.39,116Z"/><path class="cls-1" d="M501.94,62.89a201.58,201.58,0,0,1-1.31,44.33c-6.31-.81-12.35-1.55-18.67-2.28a303.15,303.15,0,0,0-3.05-48.34C486.73,58.58,494.19,60.62,501.94,62.89Z"/><path class="cls-1" d="M512.93,142.21A40.93,40.93,0,0,0,535.26,150c5.1.16,10.85-.63,10.81-4.23-1.19-8.83-32.38-1.37-37.69-32.18-3-23,13.74-23,27.88-19.77,7.18,1.69,14.42,4.54,22.12,7.91a157.35,157.35,0,0,1,5.79,17.76c-6.82-3.31-13.29-5.91-20-7-5.05-.83-9.82-1.12-9,3.43,2.24,7.62,35.21,3.78,38,28.53,1.09,18.83-20.13,23.76-34.48,24.08A82.13,82.13,0,0,1,513,164.39C513.26,156.89,513.26,149.73,512.93,142.21Z"/><path class="cls-1" d="M40.73,189.89A2684.47,2684.47,0,0,0,556.6,188h0a2.66,2.66,0,0,0,2.06-1.92c.23-1-.28-1.68-1.16-1.61h0a3114.4,3114.4,0,0,1-517.65,1.91h0c-.88-.06-1.4.63-1.17,1.61a2.61,2.61,0,0,0,2,1.89Z"/><path class="cls-1" d="M86.66,204.83c3.21.64,6.31,1.26,9.54,1.88.37,1.28.73,2.51,1.12,3.79-2-.41-4-.84-6.05-1.28.64,2,1.27,3.84,2,5.8,1.92.46,3.75.91,5.68,1.36.41,1.29.83,2.52,1.28,3.82l-5.62-1.45c1.28,3.49,2.59,6.84,4,10.35l-3.22-1C92,220.18,89.18,212.67,86.66,204.83Z"/><path class="cls-1" d="M108.58,209l3.76.65c3.79.67,7.94,1.1,9.82,8.5.71,3.13.07,5.34-2,5.36a.38.38,0,0,0,0,.07c1,.35,1.85,1.84,2.52,3.1,1.85,3.68,3.67,7.23,5.58,11l-3.68-1c-1.51-3-2.93-5.76-4.41-8.68-1-2.08-1.65-2.87-3.1-3.21l-1.08-.26c1,3.61,2.1,7.06,3.26,10.7l-3.27-.92C113.11,225.7,110.71,217.53,108.58,209Zm6.29,11.51c.42.09.69.16,1.12.24,1.7.37,3.46.45,2.68-2.84a4.94,4.94,0,0,0-4.49-4.07l-1.13-.21C113.64,216,114.23,218.19,114.87,220.52Z"/><path class="cls-1" d="M134.13,213.22c3.5.53,6.85,1,10.37,1.51.26,1.49.51,2.92.77,4.41-2.31-.35-4.51-.69-6.8-1.06.43,2.29.87,4.5,1.35,6.8L146,226c.3,1.5.59,2.93.88,4.42-2.07-.37-4-.74-6.12-1.14.58,2.64,1.14,5.16,1.76,7.81,2.24.49,4.38.95,6.63,1.42.33,1.52.65,3,1,4.48-3.36-.75-6.58-1.48-9.92-2.28C137.85,231.29,135.88,222.42,134.13,213.22Z"/><path class="cls-1" d="M168.54,223.15a8.07,8.07,0,0,0-3.77-1.73c-1.23-.15-2.62.46-2.18,3.68,1,5.12,7.84,3.86,9.65,14,1,6.68-1.41,8.53-4.89,7.89a12.6,12.6,0,0,1-4.55-2c-.24-1.77-.46-3.48-.68-5.25a9,9,0,0,0,4.2,2.53c1.3.23,2.8-.57,2.39-3.3-1.15-5.73-8-4.49-9.73-14.19-1-6.58,1.67-8.39,4.84-8.07a10.84,10.84,0,0,1,4.39,1.57C168.32,220,168.42,221.5,168.54,223.15Z"/><path class="cls-1" d="M182.64,219.37l3.59.37c.44,4.15.89,8.13,1.39,12.32,2.39.3,4.68.55,7.08.83-.47-4.24-.87-8.27-1.29-12.47l3.59.33c1,10.44,2.05,20.54,3.33,31.28l-3.45-.5c-.6-4.68-1.12-9.12-1.65-13.74l-7-.9c.57,4.56,1.15,9,1.78,13.58l-3.43-.53C185,239.46,183.76,229.6,182.64,219.37Z"/><path class="cls-1" d="M229,223.13c3.4.21,6.64.37,10,.54.08,1.72.16,3.38.25,5.11l-6.38-.36c.15,2.69.3,5.27.46,8l6,.4c.1,1.73.2,3.4.3,5.16-2-.13-4-.27-6-.42.31,4.84.63,9.5,1,14.42l-3.49-.31C230.3,244.46,229.59,234,229,223.13Z"/><path class="cls-1" d="M252,224.25l3.91.15c3.95.13,8.41-.14,8.78,9.2.09,3.94-1.17,7-3.46,7.57a.59.59,0,0,1,0,.09c1,.21,1.6,2,2,3.51,1.09,4.46,2.14,8.75,3.24,13.28l-3.91-.17c-.85-3.61-1.67-7-2.51-10.6-.61-2.55-1.07-3.47-2.6-3.56l-1.14-.05c.18,4.68.36,9.18.57,13.92l-3.51-.21C252.83,246,252.38,235.29,252,224.25Zm4.13,14.18,1.17.05c1.8.07,3.72-.27,3.66-4.45s-2.13-4.37-4-4.43l-1.2,0C255.89,232.55,256,235.42,256.11,238.43Z"/><path class="cls-1" d="M278.45,225l3.63,0c.09,6.46.16,12.67.23,19.23.1,5.82,1.06,9.5,3.78,9.59s3.64-3.68,3.63-9.5c0-6.58-.07-12.8-.09-19.26h3.64c0,7.16,0,14.05,0,21.34-.08,9.16-2.59,12.78-7.16,12.77s-7.16-3.79-7.39-12.95C278.65,239,278.54,232.09,278.45,225Z"/><path class="cls-1" d="M307.46,225l3.64,0c-.14,11.19-.29,22-.51,33.58l-3.55.06C307.17,249.82,307.3,240.88,307.46,225Z"/><path class="cls-1" d="M328.58,229.74l-5.19.16c.05-1.77.09-3.44.12-5.2,4.77-.14,9.31-.28,14-.47-.05,1.75-.12,3.43-.18,5.17-1.75.08-3.42.14-5.17.2-.31,9.41-.65,18.51-1.05,28.18l-3.51.18C328,248.27,328.3,239.16,328.58,229.74Z"/><path class="cls-1" d="M377.08,227.78a5.28,5.28,0,0,0-3.54-1.09c-1.26.12-2.84,1.13-3.15,4.7-.2,5.66,7.43,2.33,6.59,13.36-.76,7.2-3.93,10.15-7.48,10.57a7.62,7.62,0,0,1-4.35-.81l.82-6a4.75,4.75,0,0,0,3.79,1.63c1.35-.16,3.18-1.54,3.49-4.52.36-6.31-7.18-2.83-6.63-13.69.59-7.33,3.73-10,7-10.26a7.62,7.62,0,0,1,4.23.82C377.59,224.29,377.35,226,377.08,227.78Z"/><path class="cls-1" d="M392.54,220.7l3.62-.32c-.43,4.25-.85,8.34-1.31,12.63,2.41-.27,4.71-.53,7.11-.83.5-4.25,1-8.29,1.38-12.5l3.59-.36c-1.13,10.35-2.41,20.36-4,31l-3.45.54c.66-4.7,1.25-9.15,1.83-13.79l-7.05.88c-.54,4.68-1.08,9.18-1.68,13.93-1.17.15-2.29.33-3.46.49C390.47,241.5,391.57,231.27,392.54,220.7Z"/><path class="cls-1" d="M426.46,217.12l4-.49c.94,9.64,1.48,18.84,1.65,28.42-1.25.27-2.48.51-3.75.75,0-2.22-.09-4.34-.15-6.57l-7,1.21c-.91,2.44-1.77,4.77-2.71,7.24l-3.54.65C419,237.49,422.74,227.43,426.46,217.12Zm1.1,5.69a.06.06,0,0,0-.05,0c-1.47,4.25-2.93,8.35-4.47,12.69l5.07-.82C428,230.67,427.8,226.84,427.56,222.8Z"/><path class="cls-1" d="M449.92,214l3.54-.51c-.74,4.07-1.52,8-2.38,12.08,3-4.49,5.81-8.7,8.75-13,1.48-.22,2.88-.44,4.33-.68-3.33,4.74-6.55,9.34-9.95,14.27,1.38,4.53,2.55,8.78,3.57,13.14-1.48.37-2.88.71-4.38,1.07-.84-3.91-1.81-7.72-2.93-11.76h0c-1,4.44-2,8.72-3.07,13.2l-3.37.77C446.29,232.75,448.23,223.53,449.92,214Z"/><path class="cls-1" d="M476.79,209.71c3.48-.6,6.82-1.19,10.29-1.83-.36,1.36-.71,2.66-1.1,4l-6.72,1.31c-.56,2.18-1.13,4.25-1.74,6.43l6.08-1.32c-.41,1.35-.81,2.67-1.25,4-2,.49-4,.95-6,1.42-.71,2.49-1.44,4.88-2.26,7.38,2.21-.58,4.32-1.13,6.51-1.73-.48,1.37-.92,2.69-1.42,4.06-3.27.95-6.43,1.82-9.73,2.72C472.3,227.16,474.68,218.61,476.79,209.71Z"/><path class="cls-1" d="M508.34,207.71a5,5,0,0,0-3.11-.25,5.66,5.66,0,0,0-3.84,3.95c-1.3,4.24,6.56.42,3.28,8.4-2.33,5.18-5.92,7.95-9.21,9a7.48,7.48,0,0,1-3.75.37c.73-1.53,1.4-3,2.09-4.51a3.29,3.29,0,0,0,3.08.4,7.5,7.5,0,0,0,4.2-3.93c1.76-4.61-5.89-.56-3.32-8.76,1.93-5.52,5.33-8,8.41-8.63a8.13,8.13,0,0,1,3.84,0C509.45,205.11,508.93,206.38,508.34,207.71Z"/></svg>