<svg id="Layer_1" data-name="Layer 1" xmlns="http://www.w3.org/2000/svg" viewBox="0 0 600 187.69"><defs><style>.cls-1,.cls-2{fill:#f57f20;}.cls-2{fill-rule:evenodd;}</style></defs><title>simyo-logo</title><path class="cls-1" d="M128.46,14.27c0-8.35,6.8-14.27,15.32-14.27s15.31,5.92,15.31,14.27-6.8,14.1-15.31,14.1-15.32-5.76-15.32-14.1"/><path class="cls-1" d="M419.07,187.69c-8.08,0-15.28-5.74-15.28-14.27a12.87,12.87,0,0,1,6.32-11.33V136c0-1.48-.44-2.66-2.72-2.75-22.26-1-37.31-11.12-37.31-31.88v-56H391V99.77c0,8.52,3.39,16.48,23.27,16.48h9.69c19.85,0,23.25-8,23.25-16.48V45.43h20.87v56c0,20.77-15,30.88-37.28,31.88-2.27.09-2.73,1.27-2.73,2.75v26.07a12.87,12.87,0,0,1,6.33,11.33c0,8.53-7.2,14.27-15.32,14.27"/><path class="cls-1" d="M221.9,61.17c-19.72,0-23.25,7.94-23.25,16v57.08h-20.9V76c0-21.34,15.16-31.77,39.88-31.77h16c12.36,0,22.38,3.21,29.57,8.23,6.8-5.14,17.52-8.23,29.73-8.23h15.59c24.55,0,40.15,10.43,40.15,31.77v58.26H327.84V77.2c0-8.09-3.53-16-23.26-16h-7.65c-19.69,0-23.24,7.94-23.24,16v57.08h-20.9V77.2c0-8.09-3.51-16-23.23-16Z"/><path class="cls-1" d="M20,106.4c0,8.25,4.1,12,16.31,12H66.67c19.14,0,24.25-.74,24.25-10.3v-.59c0-6.19-1.31-9.87-15.73-9.87H32.8c-21.92,0-31.61-7.2-31.61-24.86V67.61C1.19,51.74,10,44,46.94,44H68.72c34.12,0,39.72,10.3,39.72,22.26v3.34H88.28c0-7-6.91-8.69-20.44-8.69H43.26c-18.23,0-21,1.6-21,8.68v3.23c0,5,1.18,8.09,13.37,8.09H71.43c22.5,0,40.54,2.06,40.54,27.37,0,26.64-24.13,27.06-42.36,27.06H43.87c-5.45,0-11.18,0-15.59-.42-5-.45-10.45-1.48-13.69-3C6.05,128,0,120.72,0,107.49V106.4Z"/><rect class="cls-1" x="133.34" y="45.42" width="20.87" height="88.85"/><path class="cls-2" d="M488.56,80.41c0-29.7,21.49-36.47,49.74-36.47h12c28.25,0,49.74,6.76,49.74,36.47V99.1c0,29.29-21.49,36.47-49.74,36.47h-12c-28.26,0-49.74-7.18-49.74-36.47Zm90.42.9c0-17.2-10-20.44-24.44-20.44H534c-14.43,0-24.58,3.24-24.58,20.44v16.9c0,17.06,10.15,20.46,24.58,20.46h20.5c14.42,0,24.44-3.4,24.44-20.46Z"/></svg>