<svg id="Layer_1" data-name="Layer 1" xmlns="http://www.w3.org/2000/svg" viewBox="0 0 600 173.89"><defs><style>.cls-1{fill:#f26522;}</style></defs><title>solarbird-logo</title><path class="cls-1" d="M81.43,112.31C79.61,96.06,71.43,40.08,45,41.73c-13.43.84-16.35-5.57-26-15.64-.15.11-13-15.6-13-15.6-.78-.9-1.64-.16-1.22,1.37C7.27,20.64,10.48,29,12.14,34.32c-23.8,30.23-18.48,95.5,69.65,82C81.8,116.28,81.73,115.06,81.43,112.31Z"/><path class="cls-1" d="M98.74,48.06C90.3,15.76,61.53.08,35.5,12.95c0,0-26.7-12.34-27.88-12.8a1.27,1.27,0,0,0-1.52,2C6.6,2.7,20.57,19.47,23,21.49c7.56,8.23,11.13,15.17,20.26,15.66A14.67,14.67,0,1,1,67.7,48.82C74.3,60,83.7,77.23,88.22,115.23c3.18-.35,25.23-3.45,27.08-4.21.91-.37,1.42-1.06.72-3.11C114.45,103.3,100.45,54.58,98.74,48.06Z"/><path class="cls-1" d="M62.48,29.5a9.33,9.33,0,0,0-4.69-1.27,8.51,8.51,0,0,0-8.29,5.26,2.74,2.74,0,0,0-.1,2.23,2.39,2.39,0,0,0,1.33,1.38,3.43,3.43,0,0,0,1.24.25A2.59,2.59,0,0,0,54.22,36c1.16-2,2.29-2.4,3.84-2.4a3.42,3.42,0,0,1,1.74.49c1.59.94,2.85,2.66,1.07,5.71a2.67,2.67,0,0,0,.93,3.42,2.86,2.86,0,0,0,1.44.37,2.5,2.5,0,0,0,2.2-1.09C68.9,36.6,66.39,31.83,62.48,29.5Z"/><path class="cls-1" d="M46.44,90.14v82.17c0,.43-.19,1-.35,1h-7c-.19,0-.34-.54-.34-1v-82Z"/><path class="cls-1" d="M67.78,90.74v82.17c0,.43-.19,1-.35,1h-7c-.19,0-.35-.54-.35-1V91Z"/><path class="cls-1" d="M166.21,96.18c0-2.73-2.41-4.19-12.48-7.13-14.36-4.3-21.39-11.11-21.39-22.12,0-14.26,11.43-26.32,32.61-26.32a47.28,47.28,0,0,1,20.34,4.09c1.36.52,2.2,1.36,2.2,4.09V65.56c0,1.47-.84,2.31-1.89,2.31a2.26,2.26,0,0,1-1.36-.63C179.22,62.62,171,60,163.17,60c-5.45,0-7.13,2-7.13,4.3,0,3.77,6.29,5.24,12.16,6.82,17.82,4.82,21.6,12.37,21.6,22.44,0,17-14.36,25.27-31.87,25.27-11.11,0-18.45-2.31-22.44-4.4-1.36-.84-2.2-1.89-2.2-4.51V96.6c0-1.47.84-2.52,1.78-2.52a2.41,2.41,0,0,1,1.78.84c5.45,3.88,13.95,5.56,20,5.56C163.7,100.48,166.21,99,166.21,96.18Z"/><path class="cls-1" d="M252.65,90.83c0,13.53-8.7,27.58-28,27.58-19.08,0-28.1-14.05-28.1-27.58s9-27.16,28.1-27.16C243.95,63.67,252.65,77.41,252.65,90.83Zm-21.49.31c0-9.12-1.36-12.06-6.5-12.06-5.45,0-6.5,3.14-6.5,12.06,0,9.44,1.26,12.37,6.5,12.37S231.16,100.37,231.16,91.14Z"/><path class="cls-1" d="M316.59,63.67c19.19,0,23.38,7.65,23.38,18.14,0,6.82-.52,13.63-.52,18.87,0,6,1.57,11.32,2.52,12.48a3,3,0,0,1,1,2.31,1.63,1.63,0,0,1-1.68,1.57H331c-2.2,0-2.93-.52-3.77-2.62A29.32,29.32,0,0,1,324.87,104c-2.1,9.65-8.39,14.47-18.77,14.47-8.49,0-14.47-4.82-14.47-13.32,0-11.53,11.74-19.08,28.31-20.76v-3c0-1.78-1.78-3.36-5-3.36-3.77,0-6,1.57-7.24,3.77-.84,1.57-2.52,3-5.87,3-4.51,0-8.91-2.73-8.91-8.28C292.89,71.33,297.51,63.67,316.59,63.67Zm-3.77,40.26c4.51,0,7.13-4.61,7.13-8.18v-.94c-6.08.84-9.86,3.25-9.86,6.39A2.44,2.44,0,0,0,312.81,103.94Z"/><path class="cls-1" d="M399.42,103V44.07a1,1,0,0,1,.94-1h19a1.12,1.12,0,0,1,.94,1c0,9.86-.1,21.18-.94,30,1.15-5.77,5.66-10.38,14.36-10.38,14.57,0,21.7,14.16,21.7,27.37,0,13-7,27.37-21.81,27.37-8,0-14.68-3.15-15.94-11a56.1,56.1,0,0,1-.63,8.7c-.1.42-.52.94-.94.94H399.42a.88.88,0,0,1-.94-.94A100,100,0,0,0,399.42,103Zm26.84,1.26c5.14,0,7.65-1.15,7.65-12.58,0-9-1.68-12.69-7-12.69-5.14,0-6.61,2.52-6.61,9.23v5.14C420.28,101.73,422.69,104.25,426.26,104.25Z"/><path class="cls-1" d="M599.05,117H582.38c-.42,0-.84-.52-.94-.94a54.07,54.07,0,0,1-.63-8.49,17.24,17.24,0,0,1-15.94,10.8c-14.78,0-21.81-15.21-21.81-28S550,63.67,564.45,63.67c8.39,0,13.32,4.72,14.68,10.17-.84-8.6-.94-19.82-.94-29.78a1.12,1.12,0,0,1,.94-1h19a1,1,0,0,1,.94,1V103A99.76,99.76,0,0,0,600,116.1.88.88,0,0,1,599.05,117Zm-20.87-30c0-6.61-1.36-9.12-6.4-9.12-5.45,0-7.24,3.67-7.24,12.58,0,11.11,2.41,13.32,7.65,13.32,3.57,0,6-2.31,6-10.7Z"/><path class="cls-1" d="M475.63,62c6.29,0,11.22-4.3,11.22-10.38A11.1,11.1,0,0,0,475.63,40.4a11.23,11.23,0,0,0-11.22,11.22C464.41,57.7,469.55,62,475.63,62Z"/><path class="cls-1" d="M373.3,117a1,1,0,0,0,.94-.94V92.82c0-9.65,3.46-10.7,5.66-10.7,4.72,0,2,3.88,8.28,3.88,5.35,0,7.86-5.56,7.86-10.59,0-6.4-2.31-11.64-9.44-11.64s-13.21,5.77-15.94,16.88a100.71,100.71,0,0,0-1-14.16c-.11-.42-.42-.94-.94-.94H353.06a1,1,0,0,0-.84.94,125,125,0,0,1,1.15,16.25V116.1a1,1,0,0,0,.94.94Z"/><path class="cls-1" d="M519.27,117a1,1,0,0,0,.94-.94V92.82c0-9.65,3.46-10.7,5.66-10.7,4.72,0,2,3.88,8.28,3.88,5.35,0,7.86-5.56,7.86-10.59,0-6.4-2.31-11.64-9.44-11.64s-13.21,5.77-15.94,16.88a100.54,100.54,0,0,0-1-14.16c-.11-.42-.42-.94-.94-.94H499a1,1,0,0,0-.84.94,125,125,0,0,1,1.15,16.25V116.1a1,1,0,0,0,.94.94Z"/><path class="cls-1" d="M262.36,117c-.61,0-1-.63-1.14-1-.88-3-1.32-7.81-1.32-14.12V44.07a1,1,0,0,1,.94-1h19a1.12,1.12,0,0,1,.94,1v58.8A118.55,118.55,0,0,0,282,116.1a.88.88,0,0,1-.94.94H262.36Z"/><path class="cls-1" d="M465.25,107.61a54.08,54.08,0,0,0,.63,8.49c.1.42.52.94.94.94H486.1a.88.88,0,0,0,.94-.94,106.41,106.41,0,0,1-.92-11.29V66.61a1.12,1.12,0,0,0-.94-1h-19a1,1,0,0,0-.94,1Z"/></svg>