<svg id="Layer_1" data-name="Layer 1" xmlns="http://www.w3.org/2000/svg" viewBox="0 0 600 137.15"><defs><style>.cls-1{fill:#f78f20;}.cls-2{fill:#e37425;}.cls-3{fill:#fff;}</style></defs><title>thuiscomfort-logo</title><path class="cls-1" d="M35.43,6.8,5.26,45.68A24.39,24.39,0,0,0,.66,66.43l14.52,60.4C17,134.56,25.87,139,34,136.38l30.13-9.82c21.81-7.13,36.74-25.67,37.71-46.87l1-21.71a24.82,24.82,0,0,0-7.06-18.33L63.07,5.53C55.56-2.34,42-1.71,35.43,6.8Z"/><path class="cls-2" d="M128.24,42.53V52.6h16.85v2.75q0,5-6.41,5H128.33V84.64q0,9.89,8.06,9.89,5.49,0,7.69-1.37h.46V96.1q0,6.31-8.84,6.31-8.06,0-11.86-4.21T120,85.44V53.6a13.24,13.24,0,0,1,2.1-7.6,8.27,8.27,0,0,1,2.51-2.39,5.51,5.51,0,0,1,2.61-1.1h1Z"/><path class="cls-2" d="M191.49,101.48h-2.2q-3.3,0-4.71-1.33a5.33,5.33,0,0,1-1.42-4.07V72.92q0-7.14-2.95-10.3t-8.84-3.16A11.71,11.71,0,0,0,163,63.17q-3.76,3.71-3.75,10.21v28.11h-2.39q-5.89,0-5.89-5.4V35.56h2.47q5.95,0,5.95,6.22v18.4q4.67-8.6,13.18-8.61,9.08,0,14,5.21t4.91,15.88v28.83Z"/><path class="cls-2" d="M237.47,80.42q0,10.71-5.31,16.35T217,102.4q-9.16,0-14.56-6T197,79.67V52.47h2.56q5.76,0,5.76,6.5V79.2q0,7.32,3.34,11.31a11,11,0,0,0,8.84,4q5.89,0,8.75-3.57t2.89-11.35V52.48h2.29q6,0,6,6.5V80.42Z"/><path class="cls-2" d="M264.22,97a4.91,4.91,0,0,1-1.33,3.61,4.77,4.77,0,0,1-3.52,1.3q-14.65,0-14.65-14.56V52.5h2.56a5.54,5.54,0,0,1,4,1.74A6.44,6.44,0,0,1,253,59V86.19q0,8.06,7.6,8.06h3.57ZM253.06,36a5.64,5.64,0,0,1,1.65,4.07,5.48,5.48,0,0,1-1.65,4,5.37,5.37,0,0,1-3.93,1.65,5.78,5.78,0,0,1-5.67-5.67A5.56,5.56,0,0,1,245.14,36a5.45,5.45,0,0,1,4-1.7A5.3,5.3,0,0,1,253.06,36Z"/><path class="cls-2" d="M300.75,86.66q0,7.51-5.26,11.62t-13.87,4.12A19.38,19.38,0,0,1,271,99.7q-4.26-2.7-4.26-7V89.13h.46a16.42,16.42,0,0,0,6.09,3.93,22.58,22.58,0,0,0,8.47,1.56q10.44,0,10.44-7.14a5.38,5.38,0,0,0-2.42-4.81q-2.42-1.6-10.49-3.34-7.14-1.46-10.3-4.26T265.87,67a13.81,13.81,0,0,1,5.31-10.85q5.31-4.54,14.1-4.54a19.34,19.34,0,0,1,10,2.51q4.26,2.52,4.26,6.73v3.66h-.46A13.26,13.26,0,0,0,293.75,61a20.62,20.62,0,0,0-7.85-1.51q-11.62,0-11.62,7a4.24,4.24,0,0,0,2.29,3.93q2.29,1.33,9.7,2.95Q300.75,76.43,300.75,86.66Z"/><path class="cls-1" d="M342.42,65.77H342a10.48,10.48,0,0,0-5-4.54,16.5,16.5,0,0,0-7.41-1.88,15.36,15.36,0,0,0-11.72,4.76A17,17,0,0,0,313.3,76.3q0,8.84,5,13.6a16.13,16.13,0,0,0,11.4,4.71q8.6,0,12.27-4.3h.46v3.48q0,3-3.57,5.81t-10.62,2.79q-8.51,0-16-6.87t-7.46-17.95a26.67,26.67,0,0,1,6.77-18.4A22.34,22.34,0,0,1,329,51.57a15.71,15.71,0,0,1,9.57,2.79,9.25,9.25,0,0,1,3.8,7.92v3.5Z"/><path class="cls-1" d="M382.81,78q0-9.06-3.75-13.74t-11-4.67A11.56,11.56,0,0,0,358.55,64Q355,68.51,355,76.11q0,8.51,4,13.46t11.12,4.91a11,11,0,0,0,9.39-4.57Q382.81,85.37,382.81,78Zm8.42-2q0,12.27-5.95,19.32t-16,7A21.35,21.35,0,0,1,353,95.49q-6.45-6.87-6.45-17.67,0-12.09,6.14-19.13t16.57-7q9.82,0,15.88,6.73T391.23,76Z"/><path class="cls-1" d="M464.58,101.48h-2.95a5.21,5.21,0,0,1-4-1.6,6.35,6.35,0,0,1-1.51-4.54V73.75q0-14.28-10.52-14.28-6,0-8.75,3.3t-2.67,10.72v28h-2.84q-5.59,0-5.59-6.14V73.76q0-6.69-2.89-10.49a9.59,9.59,0,0,0-8.1-3.8q-11,0-11,14.28V101.5h-2.65a5.68,5.68,0,0,1-4.21-1.56,6.2,6.2,0,0,1-1.56-4.57V72.65a21.85,21.85,0,0,1,5.36-15q5.36-6.09,14.6-6.09,10.44,0,15.2,8.84A19,19,0,0,1,437.08,54a17,17,0,0,1,8.84-2.42q18.65,0,18.65,21.88v28Z"/><path class="cls-1" d="M496,45.91h-.46a10.8,10.8,0,0,0-7.32-2.47q-4.76,0-6.87,2.34t-2.1,7.65v6h14.57v3a4,4,0,0,1-1.47,3.13,5.89,5.89,0,0,1-4,1.29h-9.16v34.61H476q-5.12,0-5.12-5.95V52.5a17.41,17.41,0,0,1,4.44-11.9,14.92,14.92,0,0,1,11.78-5,10.28,10.28,0,0,1,6.46,1.88Q496,39.32,496,41.51v4.4Z"/><path class="cls-1" d="M532.72,78q0-9.06-3.75-13.74t-11-4.67A11.56,11.56,0,0,0,508.46,64q-3.57,4.49-3.57,12.09,0,8.51,4,13.46T520,94.48a11,11,0,0,0,9.39-4.57Q532.72,85.37,532.72,78Zm8.42-2q0,12.27-5.95,19.32t-16,7a21.35,21.35,0,0,1-16.25-6.87q-6.45-6.87-6.45-17.67,0-12.09,6.14-19.13t16.57-7q9.82,0,15.88,6.73T541.14,76Z"/><path class="cls-1" d="M571.1,62.85h-.46a11,11,0,0,0-7.51-2.47q-4.91,0-7,2.95t-2,10.66v27.49h-3.57a4.26,4.26,0,0,1-3.48-1.56,6.13,6.13,0,0,1-1.29-4V73.37q0-10,4.4-15.38a14.33,14.33,0,0,1,11.72-5.4q4.67,0,6.87,1.74A5.44,5.44,0,0,1,571,58.81v4Z"/><path class="cls-1" d="M583.15,42.53V52.6H600v2.75q0,5-6.41,5H583.27V84.64q0,9.89,8.06,9.89,5.5,0,7.69-1.37h.46V96.1q0,6.31-8.84,6.31-8.06,0-11.86-4.21T575,85.44V53.6a13.23,13.23,0,0,1,2.1-7.6,8.25,8.25,0,0,1,2.51-2.39,5.51,5.51,0,0,1,2.61-1.1h.94Z"/><path class="cls-2" d="M26.37,136.89l-.85-.25c-3.1-.92-8.51-2.95-10.34-9.82L.66,66.43a24.39,24.39,0,0,1,4.6-20.75L35.43,6.8C42-1.7,55.56-2.34,63.08,5.5l5,5.14c-7.72-6-19.64-4.85-25.74,2.95L14.86,52.47c-4.66,6-4.51,13.55-2.78,20.75"/><path class="cls-3" d="M36.89,100.77c.21,0,20.62,5.84,32.7-4.41C81.38,86.37,84.47,76,85,72.8l4.85,3.35s-2,14.28-15.8,25.47C58.77,114,36,112.22,35.51,112.11Z"/></svg>