<svg id="Layer_1" data-name="Layer 1" xmlns="http://www.w3.org/2000/svg" viewBox="0 0 600 138.88"><defs><style>.cls-1{fill:#7ccecf;}</style></defs><title>vv-logo</title><path class="cls-1" d="M190.45,0a21.9,21.9,0,0,0-21.87,21.87c0,41-27.55,73.28-62.71,73.28S43.79,63.61,43.79,21.89A21.89,21.89,0,1,0,0,21.89H0a123.93,123.93,0,0,0,29.44,82.28,100.52,100.52,0,0,0,76.41,34.72c59.71,0,106.45-51.35,106.45-117A21.9,21.9,0,0,0,190.45,0"/><path class="cls-1" d="M105.62,82.73A41.34,41.34,0,1,0,64.27,41.39h0a41.41,41.41,0,0,0,41.34,41.34"/><path class="cls-1" d="M287.56,13.27a5.84,5.84,0,0,1,5.62-4.8,5.33,5.33,0,0,1,5.61,5q0,.16,0,.32A9.88,9.88,0,0,1,298,17L284.65,49.53c-2.21,5.3-5.24,6-7.57,6s-5.49-.73-7.64-6L256.31,17.28a9.47,9.47,0,0,1-.73-3.16,5.46,5.46,0,0,1,5.36-5.56h.26a6,6,0,0,1,5.81,5l10.16,28.12h.25Z"/><path class="cls-1" d="M330.6,45.93H310.88l-2.27,5.49a5.68,5.68,0,0,1-5.43,4.13,5.14,5.14,0,0,1-5.36-4.92q0-.19,0-.39a7.42,7.42,0,0,1,.73-3.16l15.12-33.2a7.76,7.76,0,0,1,7.29-5.43,7.45,7.45,0,0,1,7.29,5.43l15,33.11a8,8,0,0,1,.63,3,5.33,5.33,0,0,1-5.11,5.55h-.39a5.68,5.68,0,0,1-5.55-4.2Zm-16.1-8.87h12.62l-6.31-15.18Z"/><path class="cls-1" d="M377.59,10.56a6.12,6.12,0,0,1,4.29-2.08A4.89,4.89,0,0,1,387,13.14q0,.13,0,.26a5.87,5.87,0,0,1-2.27,4.51L371.09,30.19l15.59,15.4A6.09,6.09,0,0,1,388.89,50a5.37,5.37,0,0,1-5.23,5.49h-.32a6.31,6.31,0,0,1-4.58-2.27L360.08,33.78h0V49.56a5.46,5.46,0,1,1-10.86,0v-35a5.46,5.46,0,1,1,10.86,0V27.76h.19Z"/><path class="cls-1" d="M424.49,45.93H404.77l-2.27,5.49a5.71,5.71,0,0,1-5.43,4.13,5.14,5.14,0,0,1-5.36-4.92q0-.19,0-.39a7.38,7.38,0,0,1,.73-3.16l15.12-33.2a7.76,7.76,0,0,1,7.29-5.43,7.45,7.45,0,0,1,7.23,5.43l15,33.11a8,8,0,0,1,.63,3,5.33,5.33,0,0,1-5.08,5.58h-.23a5.68,5.68,0,0,1-5.55-4.2Zm-16.1-8.87H421l-6.31-15.18Z"/><path class="cls-1" d="M453.68,26h-.19l.19,23.61a5.37,5.37,0,1,1-10.67,0V16a6.63,6.63,0,0,1,6.6-7.57,8.17,8.17,0,0,1,7,4.32L474,38h.19L474,14.5a5.37,5.37,0,1,1,10.67,0V48a6.63,6.63,0,0,1-6.6,7.57,8.17,8.17,0,0,1-7-4.32Z"/><path class="cls-1" d="M494.27,18.57a4.58,4.58,0,0,1-5.08-4.73,4.58,4.58,0,0,1,5.24-4.73h27.74a4.58,4.58,0,0,1,5.24,4.73,4.58,4.58,0,0,1-5.24,4.73h-8.33V49.34a5.55,5.55,0,1,1-11,0V18.57h-8.52Z"/><path class="cls-1" d="M531.64,14.69a5.59,5.59,0,1,1,11.11,0V49.41a5.59,5.59,0,1,1-11.11,0Z"/><path class="cls-1" d="M577.56,27.09a4.48,4.48,0,1,1,0,8.87H563v9.47H579.7a4.73,4.73,0,1,1,0,9.47H558.62a5.52,5.52,0,0,1-6.31-6.31V15.48a5.52,5.52,0,0,1,6.31-6.31h19.85a4.58,4.58,0,0,1,5.24,4.64,4.58,4.58,0,0,1-5.24,4.73H562.94v8.55Z"/><path class="cls-1" d="M287.56,85.76a5.84,5.84,0,0,1,5.62-4.8,5.33,5.33,0,0,1,5.61,5q0,.16,0,.32a9.88,9.88,0,0,1-.79,3.16l-13.35,32.57c-2.21,5.3-5.24,6-7.57,6s-5.49-.69-7.64-6L256.31,89.77a9.47,9.47,0,0,1-.73-3.16,5.46,5.46,0,0,1,5.36-5.56h.26A6,6,0,0,1,267,86l10.16,28.12h.25Z"/><path class="cls-1" d="M329.18,99.62a4.48,4.48,0,1,1,0,8.87H314.63V118h16.76a4.73,4.73,0,1,1,0,9.47H310.31a5.52,5.52,0,0,1-6.31-6.31V88a5.52,5.52,0,0,1,6.31-6.31h19.85a4.73,4.73,0,1,1,0,9.47H314.63v8.62h14.55Z"/><path class="cls-1" d="M343.19,87.18a5.59,5.59,0,1,1,11.11,0V121.9a5.59,5.59,0,1,1-11.11,0Z"/><path class="cls-1" d="M370.08,127.42a5.52,5.52,0,0,1-6.31-6.31V87.18a5.59,5.59,0,1,1,11.11,0v30.58h12.94a4.86,4.86,0,1,1,0,9.63h-17.7Z"/><path class="cls-1" d="M397.67,87.18a5.59,5.59,0,1,1,11.11,0V121.9a5.59,5.59,0,1,1-11.11,0Z"/><path class="cls-1" d="M429,98.51h-.19l.19,23.61a5.37,5.37,0,1,1-10.67,0V88.54A6.63,6.63,0,0,1,424.9,81a8.17,8.17,0,0,1,7,4.26l17.39,25.25h.19l-.19-23.54a5.37,5.37,0,1,1,10.67,0v33.55a6.63,6.63,0,0,1-6.6,7.57,8.17,8.17,0,0,1-7-4.32Z"/><path class="cls-1" d="M510,119.94a6.31,6.31,0,0,1-5,6.75,41.63,41.63,0,0,1-12.62,1.86c-14.61,0-25.25-9.69-25.25-24.11s10.86-24,24.84-24a25.25,25.25,0,0,1,13.19,3.16,5.33,5.33,0,0,1,3,4.83,4.86,4.86,0,0,1-4.6,5.11h-.26a7.16,7.16,0,0,1-3.5-1.1,15.18,15.18,0,0,0-7.57-2.08,13.44,13.44,0,0,0-13.28,13.61q0,.35,0,.69c0,8.39,5,14.42,13.95,14.42a17.61,17.61,0,0,0,6.91-1.23v-8.49H495.5a4.48,4.48,0,1,1,0-8.93H504a5.3,5.3,0,0,1,6.09,6.09v13.48Z"/><path class="cls-1" d="M544.29,99.62a4.48,4.48,0,1,1,0,8.87H529.74V118h16.69a4.73,4.73,0,0,1,0,9.47h-21a5.52,5.52,0,0,1-6.31-6.31V88a5.52,5.52,0,0,1,6.31-6.31h19.85a4.73,4.73,0,1,1,0,9.47H529.74v8.62h14.55Z"/><path class="cls-1" d="M569,98.51h-.19l.19,23.61a5.37,5.37,0,1,1-10.67,0V88.54A6.63,6.63,0,0,1,564.9,81a8.17,8.17,0,0,1,7,4.26l17.39,25.25h.19l-.19-23.54a5.37,5.37,0,1,1,10.67,0v33.55a6.63,6.63,0,0,1-6.6,7.57,8.14,8.14,0,0,1-7-4.32Z"/></svg>