<svg id="Layer_1" data-name="Layer 1" xmlns="http://www.w3.org/2000/svg" viewBox="0 0 600 178.67"><defs><style>.cls-1{fill:#271d10;}.cls-2{fill:#fedc00;}</style></defs><title>xs4all-logo</title><path class="cls-1" d="M52.7,177.6H547.25a51.71,51.71,0,0,0,51.65-51.66h0V52.71A51.69,51.69,0,0,0,547.25,1.07H52.7A51.69,51.69,0,0,0,1.06,52.71h0v73.23A51.71,51.71,0,0,0,52.7,177.6Z"/><path class="cls-2" d="M547.25,165H52.7a39,39,0,0,1-39-39h0V52.71a39,39,0,0,1,39-39H547.25a39,39,0,0,1,39,39h0v73.23a39,39,0,0,1-39,39Z"/><path class="cls-1" d="M382.84,117.18l7.26,18.76H404L368.23,42.7l-18,0-35.83,93.22h13.95l7.26-18.76Zm-42.27-12.93,18.67-49,18.69,49Z"/><path class="cls-1" d="M228.77,103.18l0,14h48.28v18.75h13V117.19h12.78V104.26H290.1V42.72H274.37l-45.6,60.46Zm14.52,1.08,33.8-46.49v46.49Z"/><path class="cls-1" d="M116.59,135.94h16.76L99.19,88.7l33.34-46H115.8l-25,34.44-25-34.42H49.06l33.34,46L48.24,135.94H65l25.78-35.7,25.81,35.7Z"/><path class="cls-1" d="M423.42,135.93h56.34v-13H436.39V42.72h-13v93.21Z"/><path class="cls-1" d="M497,135.95H553.3v-13H509.94V42.71H497v93.23Z"/><path class="cls-1" d="M175.18,137.4c19.37,0,35.41-10.83,35.45-27h0c0-16.41-10-21.3-28.41-29h0c-13.71-5.72-19-11.48-19.12-16.86h0a8,8,0,0,1,1.87-5h0c4.2-4.81,10.48-6.32,16.82-6.32h0c10.24,0,20.91,3.91,24.55,5.37h0l1.52-12.25c-10.22-3.39-18.91-4.77-26.18-4.77h0c-21.44,0-30.81,11.89-32.24,21h0a21.18,21.18,0,0,0-.29,3.58h0c-.11,14.73,15.79,21.41,29.32,27.52h0c16.1,7.35,18.26,12.85,18.26,16.2h0c0,.72-.1,1.3-.1,1.53h0c-.31,8-9.18,12.74-20.27,13.84h0c-1.07.1-2.11.16-3.17.16h0c-10.78,0-21.43-4.92-25.2-6.84h0l-1.31,13.89c2.39,1.1,11.79,5.11,28.5,5.11Z"/><path class="cls-1" d="M52.71,178.67A52.72,52.72,0,0,1,0,125.94V52.72A52.72,52.72,0,0,1,52.71,0H547.28A52.72,52.72,0,0,1,600,52.72v73.22a52.72,52.72,0,0,1-52.72,52.72Zm494.56-14.74a38,38,0,0,0,38-38V52.72a38,38,0,0,0-38-38H52.71a38,38,0,0,0-38,38v73.22a38,38,0,0,0,38,38Z"/><path class="cls-1" d="M369,41.65,405.62,137H389.38l-7.26-18.75H336.39L329.14,137H312.91l36.64-95.35Zm7.42,61.55-17.14-45-17.12,45Z"/><path class="cls-1" d="M303.95,103.2v15H291.19V137H276.05V118.25H227.77l0-15.43,46.14-61.16h17.33V103.2ZM276.05,61.06,245.39,103.2h30.66Z"/><polygon class="cls-1" points="90.81 102.06 116.06 137 135.46 137 100.5 88.71 134.63 41.65 115.26 41.65 90.81 75.33 66.36 41.65 46.99 41.65 81.1 88.71 46.17 137 65.57 137 90.81 102.06"/><polygon class="cls-1" points="480.85 121.89 480.85 137 422.39 137 422.39 41.65 437.49 41.65 437.49 121.89 480.85 121.89"/><polygon class="cls-1" points="554.41 121.89 554.41 137 495.93 137 495.93 41.65 511.03 41.65 511.03 121.89 554.41 121.89"/><path class="cls-1" d="M209,45.51,207.23,60s-29.86-13.18-41.41.14c-3.93,4.91-1.54,12.59,16.81,20.19s29.09,13,29.09,30-16.79,28.11-36.51,28.11S145.58,133,145.58,133l1.51-16.22s15.29,8.69,29.18,7.3c10.93-1.08,19.16-5.78,19.33-12.8,0-1.9,2.3-7.63-17.57-16.73-14.42-6.58-32.48-13.87-29.64-32.25C150.42,49.3,167.8,31.58,209,45.51Z"/></svg>