<svg id="Layer_1" data-name="Layer 1" xmlns="http://www.w3.org/2000/svg" xmlns:xlink="http://www.w3.org/1999/xlink" viewBox="0 0 600 188.82"><defs><style>.cls-1{fill:#1e69b3;}.cls-2{clip-path:url(#clip-path);}</style><clipPath id="clip-path"><path id="SVGID" class="cls-1" d="M100.45,187.5h26.61a2.64,2.64,0,0,0,2.65-2.67v-4.11a291.53,291.53,0,0,1-29.26,6.78M57.78,177v7.84a2.54,2.54,0,0,0,.14.85,300.21,300.21,0,0,0,71.79-11.54v-6.36A309.66,309.66,0,0,1,57.78,177m0-15.26v8.68a297.2,297.2,0,0,0,71.93-9.17v-6.37a306.28,306.28,0,0,1-71.93,6.87m0-15.28v8.71a295.25,295.25,0,0,0,71.93-6.85v-6.36a304.1,304.1,0,0,1-71.93,4.5m0-15.27v8.7a291.65,291.65,0,0,0,71.93-4.51V129a302,302,0,0,1-71.93,2.17m115.31-2.62h11.75a2.67,2.67,0,0,0,2.65-2.69v-3.11c-3.67,1.64-10.66,4.33-14.4,5.8M0,125.86a2.66,2.66,0,0,0,2.66,2.69H38.32C26.68,126.83,11.69,124,0,121.25Zm132.63,2.69H157a243.26,243.26,0,0,0,30.53-11.79v-4a245.84,245.84,0,0,1-54.86,15.76M0,104.65v9.89c86.58,22.06,149.1,7.91,187.5-8.83v-4C130,124.07,65,122.17,0,104.65m0-7.26c86.58,24.88,149.1,12.75,187.5-2.73v-4C130,111.15,65,107.14,0,87.49ZM0,80.23c86.58,27.71,149.1,17.61,187.5,3.38v-4C130,98.23,65,92.11,0,70.33ZM2.66,59A2.66,2.66,0,0,0,0,61.62v1.45C86.58,93.6,149.1,85.54,187.5,72.57v-4C134.93,83.86,76.12,78.3,16.72,59Zm55.12,0H36.66c66.41,18.26,118.53,12.43,150.82,2.56A2.64,2.64,0,0,0,184.84,59h-3.22c-38.81,8.81-80.82,6.47-123.84-4.15Zm0-10.72c27.12,6.84,51.1,9.49,71.93,9.55V51.42c-23.36-.91-47.48-5.06-71.93-11.87Zm0-15.27c27.12,7.71,51.1,11.15,71.93,11.87V38.48c-23.36-1.68-47.48-6.59-71.93-14.22Zm0-15.28c27.12,8.6,51.1,12.82,71.93,14.22V25.56C106.35,23.11,82.23,17.42,57.78,9ZM60.43,0A2.65,2.65,0,0,0,57.8,2.42C84.9,11.91,108.88,16.9,129.71,19V12.64A317.27,317.27,0,0,1,75.69,0Zm32.3,0c11.21,2.79,27.2,5.3,37,6.59V2.67A2.66,2.66,0,0,0,127.06,0Z"/></clipPath></defs><title>zilveren-kruis-logo</title><path class="cls-1" d="M225.35,13.8V2.64h51.77V15L240.53,68.1v2.19h36.58V81.44H225.35V69.25L261.81,16.1V13.8Z"/><path class="cls-1" d="M288.38,14.15V.92h12.54V14.15Zm0,67.29V23.93h12.54V81.44Z"/><path class="cls-1" d="M315.64,81.44V0h12.54V81.44Z"/><path class="cls-1" d="M337.5,23.93h13.11l11,46.82h3.68l11.51-46.82h12.77l-15,57.51H352.34Z"/><path class="cls-1" d="M438.26,71.09l3.22-.35.23,9.32a119.25,119.25,0,0,1-23.24,2.64q-12.77,0-18.35-7t-5.58-22.43q0-30.6,25-30.6,24.16,0,24.16,26.34l-.8,9H407.21q.11,7.13,3.11,10.47t11.16,3.34Q429.64,71.78,438.26,71.09Zm-6.9-22.78q0-8.51-2.7-11.91T419.51,33q-6.44,0-9.37,3.57t-3,11.73Z"/><path class="cls-1" d="M454.6,81.44V23.93H467v6.9a54.68,54.68,0,0,1,19.55-8.17V35.2a80.75,80.75,0,0,0-16.91,5.06l-2.53,1V81.44Z"/><path class="cls-1" d="M535.47,71.09l3.22-.35.23,9.32a119.25,119.25,0,0,1-23.24,2.64q-12.77,0-18.35-7t-5.58-22.43q0-30.6,25-30.6,24.16,0,24.16,26.34l-.81,9H504.41q.11,7.13,3.11,10.47t11.16,3.34Q526.84,71.78,535.47,71.09Zm-6.9-22.78q0-8.51-2.7-11.91T516.71,33q-6.44,0-9.37,3.57t-3,11.73Z"/><path class="cls-1" d="M564.34,81.44H551.8V23.93h12.42v3.57q8.4-4.83,15.88-4.83,11.5,0,15.7,6.5T600,50.61V81.44H587.57V51q0-9.32-2-13.23t-8.23-3.91a28.5,28.5,0,0,0-11.27,2.3l-1.73.69Z"/><path class="cls-1" d="M237.77,187.56H225v-78.8h12.77v35.55l11.73-.92,16.1-34.63h14.61l-19.44,39.57L281,187.56H266.18l-16.68-32.9-11.73.8Z"/><path class="cls-1" d="M288.84,187.56V130h12.42v6.9a54.68,54.68,0,0,1,19.55-8.17v12.54a80.75,80.75,0,0,0-16.91,5.06l-2.53,1v40.15Z"/><path class="cls-1" d="M364.07,130H376.5v57.51H364.07V184q-8.4,4.83-15.53,4.83-11.85,0-15.87-6.38t-4-22.38V130h12.54v30.14q0,10.35,1.73,13.92t8.05,3.57a27.74,27.74,0,0,0,11.39-2.3l1.73-.69Z"/><path class="cls-1" d="M390.53,120.27V107h12.54v13.23Zm0,67.29V130h12.54v57.51Z"/><path class="cls-1" d="M457,141.89a166.2,166.2,0,0,0-19.67-1.84q-6.1,0-8.45,1.44a4.93,4.93,0,0,0-2.36,4.54,4.47,4.47,0,0,0,2.59,4.37q2.59,1.27,12.19,2.93t13.63,5.24q4,3.56,4,12.65t-5.81,13.34q-5.81,4.25-17,4.25a102.11,102.11,0,0,1-17.72-2l-3.56-.57.46-10.47a171.07,171.07,0,0,0,19.9,1.84q6.09,0,8.68-1.5a5.25,5.25,0,0,0,2.59-4.94q0-3.45-2.47-4.78t-11.85-2.88q-9.38-1.55-13.75-4.89t-4.37-12.19q0-8.86,6-13.23t15.47-4.37a109.5,109.5,0,0,1,18.06,1.84l3.57.69Z"/><path id="SVGID-2" data-name="SVGID" class="cls-1" d="M100.45,187.5h26.61a2.64,2.64,0,0,0,2.65-2.67v-4.11a291.53,291.53,0,0,1-29.26,6.78M57.78,177v7.84a2.54,2.54,0,0,0,.14.85,300.21,300.21,0,0,0,71.79-11.54v-6.36A309.66,309.66,0,0,1,57.78,177m0-15.26v8.68a297.2,297.2,0,0,0,71.93-9.17v-6.37a306.28,306.28,0,0,1-71.93,6.87m0-15.28v8.71a295.25,295.25,0,0,0,71.93-6.85v-6.36a304.1,304.1,0,0,1-71.93,4.5m0-15.27v8.7a291.65,291.65,0,0,0,71.93-4.51V129a302,302,0,0,1-71.93,2.17m115.31-2.62h11.75a2.67,2.67,0,0,0,2.65-2.69v-3.11c-3.67,1.64-10.66,4.33-14.4,5.8M0,125.86a2.66,2.66,0,0,0,2.66,2.69H38.32C26.68,126.83,11.69,124,0,121.25Zm132.63,2.69H157a243.26,243.26,0,0,0,30.53-11.79v-4a245.84,245.84,0,0,1-54.86,15.76M0,104.65v9.89c86.58,22.06,149.1,7.91,187.5-8.83v-4C130,124.07,65,122.17,0,104.65m0-7.26c86.58,24.88,149.1,12.75,187.5-2.73v-4C130,111.15,65,107.14,0,87.49ZM0,80.23c86.58,27.71,149.1,17.61,187.5,3.38v-4C130,98.23,65,92.11,0,70.33ZM2.66,59A2.66,2.66,0,0,0,0,61.62v1.45C86.58,93.6,149.1,85.54,187.5,72.57v-4C134.93,83.86,76.12,78.3,16.72,59Zm55.12,0H36.66c66.41,18.26,118.53,12.43,150.82,2.56A2.64,2.64,0,0,0,184.84,59h-3.22c-38.81,8.81-80.82,6.47-123.84-4.15Zm0-10.72c27.12,6.84,51.1,9.49,71.93,9.55V51.42c-23.36-.91-47.48-5.06-71.93-11.87Zm0-15.27c27.12,7.71,51.1,11.15,71.93,11.87V38.48c-23.36-1.68-47.48-6.59-71.93-14.22Zm0-15.28c27.12,8.6,51.1,12.82,71.93,14.22V25.56C106.35,23.11,82.23,17.42,57.78,9ZM60.43,0A2.65,2.65,0,0,0,57.8,2.42C84.9,11.91,108.88,16.9,129.71,19V12.64A317.27,317.27,0,0,1,75.69,0Zm32.3,0c11.21,2.79,27.2,5.3,37,6.59V2.67A2.66,2.66,0,0,0,127.06,0Z"/><g class="cls-2"><rect class="cls-1" width="187.28" height="187.28"/></g></svg>