<?xml version="1.0" encoding="utf-8"?>
<!-- Generator: Adobe Illustrator 21.1.0, SVG Export Plug-In . SVG Version: 6.00 Build 0)  -->
<svg version="1.1" xmlns="http://www.w3.org/2000/svg" xmlns:xlink="http://www.w3.org/1999/xlink" x="0px" y="0px"
	 viewBox="0 0 870.5 449.5" style="enable-background:new 0 0 870.5 449.5;" xml:space="preserve">

<g id="name">
	<g class="logo__name">
		<g class="logo__name">
			<path class="logo__name" d="M12,4.3c3.1,2.8,6.5,4.6,9.8,7c7.1,2.4,13.8,6.1,20.5,9.5c3.4,2.7,7.9,3.8,11.5,6.5
				c4.1,2.1,8.2,4.2,12.2,6.2c3.3,2,6.9,3.4,10,6c6.5,3.2,11.9,7.5,18,11.8c10.8,7.1,22.2,12.4,31,23.3c6.1,4.5,11.3,10,16.5,16.2
				c1.6,3.5,4.8,5.2,7,8.2c1.9,3,4.4,6.3,7,9.2c5.4,8.4,10.4,16.9,14,26c1.8,5.2,4,10.1,5.2,15.5c2.6,4.2,1.9,10.4,3.8,15.2
				c-0.4,5.4,1.7,9.9,1.2,15c0.6,0.3-0.1,1,0.5,1.2c0.6,12.7,0.1,26.2-1.2,38.8c-2.6,9-3.7,18.6-7.8,27c-1.9,2.1-1.6,5.2-3.8,7
				c-2.5,6.7-6.8,12.9-11.5,18.5c-5.6,5.9-10.7,12.8-16.8,18.5c-5.7,3.8-11.7,9.3-17.5,13.2c-4.4,0.8-6.9,4.6-11,6
				c-4.7,3.4-10,5.3-15,8c-1.3,1.5-3.8,0-4.8,2.2c-3.7,0-6,3-9.8,2.8c-4.6,1.6-9.8,1.9-14.8,2.8c-7.4,0.7-14.8-0.1-21.8-1.2
				c-3.2,0-5.1-3.2-8.2-3.2c-2.8-2.2-6-3.8-7.5-7c-2.5-1.2-2.8-3.8-3.2-6c0.3-10.1,6.1-18.3,13.2-24.8c4.7-5.6,10.3-11,16.5-15.5
				c4.1-1.1,6.7-5.7,11-6.2c5-3,9.9-6.3,15.5-7.8c5.9-1.9,12.1-3.1,18-5c6.8-0.2,15.2-1.4,21,2.2c0.4,0.4,1,1.1,1.5,1.8
				c0.4,1.6-1.5,2-2.5,2.5c-1.6,0-2.8-0.7-4-1.5c-4.7-0.9-10.1-1-14.5,0.5c-4.1-1-6.2,2.6-9.8,2.8c-2.7,1.2-6,1-8.5,2.8
				c-3.6,1.6-7.3,2.8-10.8,4.8c-2.9,2.4-6.5,3.5-9,6.2c-9.2,4.6-17.1,13.2-23.8,21.2c-4.6,3.7-6.9,9.6-7.2,15.8
				c3.2,7.1,11.3,9.9,18.5,11c4.3,1.1,9.2,2.2,13.8,1c2.5-1.7,6.4-0.2,9-1.8c13-2.2,24.6-7.8,35.8-14.5c1-1,2.4-2,3.8-2.8
				c1.2-0.1,2.1-1.1,3.2-1.2c1.9-2.5,5-2.1,7-4.2c3.1-1.8,4.3-5.1,7.8-6.2c7.2-4.7,11.6-12.1,18-18.2c5.1-6.8,11.2-13.4,14-21.5
				c3.1-7.5,7.2-14.6,8-23c4.4-15.1,3.1-32,3-48.8c-0.9-3.1-1.2-6.8-1.8-9.8c0.2-4-1.2-8-1.8-12c-1.1-6.8-3.4-13.1-6.5-19
				c-0.1-4.1-3.6-6.8-4.2-10.8c-1.2-1.3-2.2-2.8-2.5-4.5c-3.5-4.9-6.4-9.6-10-14.2c-0.5-2.2-3.1-2.8-3.5-5
				c-6.8-6.8-11.6-13.5-18.2-20.5c-1.7-0.7-3.2-3.1-5-4.2c-4.7-3.8-9.6-9.6-15-12.2c-5.7-2.9-10.3-8.2-16.2-10.5
				c-2.5-2.9-6.2-3.3-8.8-6c-5-3-9.2-6.3-14.5-8.5c-7.7-5.6-16.4-8.9-24.8-13c-5.3-4.2-11.7-5.7-17.2-9.2C18.5,18.2,15,12.6,9.8,11
				C7.4,9.1,4.9,9.3,3,6.8C2.4,6.3,1.5,6.6,1,6C0,5.1-0.2,3.5,0.2,2.3c0.4-1.2,2-1.8,3.2-2.2C6.9-0.1,8.7,4,12,4.3"/>
			<path class="logo__name" d="M429.5,437c0-0.9-1.1-1.2-1.8-1.8c-1.2,0.9-1.2,1.9-2.5,2.5c-1.1,0.4-3.1,0.5-3-1.2
				c-0.5-6.6-1.8-12.8-2.8-19.2c-0.4-8.8-1.2-18.3-1.2-27.2c0.3-9,0.3-19.6,1-28.8c-0.1-6.2,1.2-12.7,0.8-19c0.5-0.3,0-1,0.5-1.2
				c-0.3-9,0.5-16.9,0.2-25.5c-0.5-3.9,1-8.6-0.2-12.2c0.3-8.8-0.5-18.3-0.2-26.8c-0.4-0.1,0-0.6-0.5-0.8c0.2-7.7-1.4-15.2-1.5-23
				c-0.9-4.8-1.1-10-2.8-14.5c0-6.3-2.7-11.5-3.5-17.5c-0.5-4.6-1.8-8.8-2.8-13.2c-0.9-2.9-1.8-5.8-2.5-8.8
				c-1.4-3.5,2.8-5.4,2.8-8.8c1.8-2.8,2.2-6.1,3.8-9c0.1-3,1.8-5.3,1.5-8.5c1.7-7.8,1.9-16.5,1.8-24.8c-1-3-1-6.5-2-9.5
				c-2.3-2.5-2.5-5.8-3.8-8.8c-1.1-2.4-2.8-4.6-3.2-7.2c-3.1-5.5-6.5-10.9-11.5-15c-5.8-4.9-11.7-10.7-19.8-9
				c-6.2,3.3-0.8,9.2-1.8,14.5c1.2,1.3,0.6,3.3,1.5,4.8c-0.3,8.6,5.2,14.9,5.5,23.2c2.3,3.9,2.4,8.7,4.8,12.5c1.8,7,4.1,13.8,6,20.8
				c1.5,5,2.8,10,4.8,14.8c-0.2,3.2,2.4,5.7,1.2,9c-4.5,5.6-8.8,11.2-15,14.8c-3.2,6.1-10,6.5-13.5,11.8c-0.3,1.9,0.9-0.4,1.5,0
				c2.1,0.4-0.9,1.3-0.2,2c1.7-0.2,4.5,0.7,5.5-1.8c7.3-2.8,11.4-8.5,17.8-13.5c1.1-1.9,3.3-2.6,4.2-4.8c0.8-0.7,1-2.5,2.5-2
				c1.7,2.6,1.7,5.8,3,8.5c0.8,6.2,2.3,12,3.5,18c2.2,8.2,4,16.5,4,25.5c1.2,5.5,0.8,12,1.2,17.5c1,7.4,1.2,15.5,0.8,23.2
				c0.2,1.2,0.5,2.3,0.8,3.5c-0.7,12.8,0.5,27.9-1,40.8c0.5,2.7-1.4,5.1,0,7.5c-1,4.2-0.5,8.1-1,12.5c0.8,12.2-1.4,23.2-1,35.2
				c0.5,7.3,1.1,14.6,1.2,21.8c1.5,7.4,2,15.3,3.5,22.8c0.2,3,0.1,6.9,3.5,8c2.1,1.6,3.8-0.8,5.8-1.2c1.2-1.4,0.5-2.8-0.5-4
				C425.7,441,428.5,439.5,429.5,437z M404,187.8c-1.6-1.3-0.8-4-2-5.8c-2.7-6.5-3.5-13.8-6.2-20.2c-2.2-6.9-4.3-14-7-20.8
				c-0.1-2.9-2.7-4.9-2.5-8c-2.5-4.9-2.1-11-4.2-16c-0.7-3,0.5-6.8-1-9.5c0.2-0.8-0.6-2.6,0.8-2.5c6.3,3.1,12.9,8.4,16.5,14.8
				c3.3,3.2,4.5,7.3,6.8,11c0.2,2.7,1.5,4.8,2.2,7.2c3.7,5.4,2.2,13.3,3.2,20c-0.6,4.7-0.8,9.5-1.8,14c-0.9,2.5-1.3,5.3-1.8,8
				c-1.2,1.5-0.7,3.6-2,5C405.1,186.1,403.9,186.7,404,187.8z"/>
			<path class="logo__name" d="M236.8,230.5c-0.2,0.9,0.2,2.1,0.8,3c0.1,4-0.2,8.5,0.2,12c1.1,2.1,2.9-0.8,3.8-1.8
				c5.1-6.1,11.8-13.4,20.8-11.5c4,1.3,5.4,5.9,7,9.2c0.8,4.3,3.4,7.9,3.5,12.5c2.3,3,0.4,7.8,2.8,10.8c-0.2,1.8,0.1,3.4,1,4.8
				c1.2,14.4,2.6,27.8,3.2,42.5c1.7,3.2-0.8,7.1,0.8,10.5c0.8,8,1.3,17.2,2.2,25.2l0.5,0.5c0.2,2.8-0.2,5.9,1,8.2
				c-0.7,7.2,2,13.7,2.5,20.8c1,3.1,0.9,6.6,2,9.8c4.6,13.4,5.5,28.4,13.8,40.2c0.8,1,0.4,3.1,2.2,3c2-2.4,0.9-6.5,4-8
				c3.4,1.5,0.8,5.8,1.2,8.8c-0.7,1.9-0.7,4-1.5,5.8c-1.4,1.4-3.2,2.6-5.2,1.8c-5.1-1.3-5.3-6.8-8-10.2c-0.4-1.6-2.1-2.6-2.5-4.2
				c-3.5-8.7-6.4-17.6-8-27c-4.2-10.2-5.1-21.9-7-33c-1.6-11.7-3-23.5-3.8-35.5c-0.2-0.7-0.5-1.3-0.8-2c0.3-10.2-1.6-21-1.2-31.5
				c-0.9-4.8-0.2-10.8-1.5-15.8c-0.3-6.2-1.1-13-3.2-18.8c0.3-2.8-1.6-4.7-1.2-7.5c-1.7-3-0.8-7.1-3.5-9.8c0.3-2.2-2-3.3-3-5
				c-1.8,0.3-4.1,1-5.8,2.2c-2.9,0.5-3.2,3.7-5.8,4.5c-2.1,3.3-5,5.5-6.5,9c-2.2,2-3.2,5-3.2,8.2c-0.2,0.7-1,1.2-1.5,1.8
				c-2.4,0.9-3.7-1.5-4.5-3c-1.2-10.8-0.8-23.4-1.2-34.2c0.4-1.1,0.1-1.9,1.2-2.5c0.7-0.4,1.8-0.4,2.5,0
				C235.4,226.3,236.4,228.3,236.8,230.5"/>
			<path class="logo__name" d="M204.5,230.5c0,0.9,0.2,3.2-1.2,2.2c-1.9-2-4.2,0.5-6.2,0.8c-4.2,2.1-5.2,6.8-8.2,10
				c-0.5,1.4-0.2,3.2-0.2,4.8c2.7,0.4,4.7-2.5,7.2-3.2c2.3-4.1,7.3-6.5,8.8-11c3.2-1.6,3.5-7.1,8-5.5c2.4,3.2,2.3,8,4,11.8
				c1.1,2.9,2,5.8,4.2,8.2c-0.6,0.9,0.2,2.5-0.8,3.2c-1,1.2-2.6,1.6-4,1c-5.4-2.5-4-9.7-6.8-14.2c-0.2-0.3-0.5-0.2-0.8-0.2
				c-3.9,4.4-7.7,7.8-11.8,12.5c-1.7,1.4-3.9,2.5-6,2c-1,2.3-3.8,0.8-5.2,1.2c-2.4-0.9-3.6-3.7-3.8-6.2c0.5-2.8,0.9-5.6,1.8-8.2
				c3.9-4.8,7.8-10.8,14-12.2C200.3,227.2,203.4,227.9,204.5,230.5"/>
			<path class="logo__name" d="M352.2,232.5c0.3,1.6-0.5,2.8-1.2,4c-3.9,2.4-9,2.1-13,4.2c-0.8-0.6-1.8,0-2.5,0.5c0,0.9,1,1.3,1.5,2
				c1.5-0.2,1.7,1.3,3,1.5c3.3,0.6,7.1,0.8,10.5,0.8c1,1.2,1.2,3.3,0.8,5c-0.8,0.5-1.1,1.7-2,1.8c-3.2-0.8-6.8-0.3-9.5-2.2
				c-4.2-1-8.3-2.7-11.2-6c-0.2-1-0.5-2-1.5-2.8c-1.9-0.6-4.6-0.5-5.2-3c0-1.1,0.8-1.9,1.8-2.2c2.2,0.5,4.4-0.9,6.8-0.8
				c3-2.5,5.5-4.8,9-6.2C343.9,229.4,350.1,227.6,352.2,232.5"/>
			<path class="logo__name" d="M344.4,233.5c-2.1,0.7-5.2,0.3-7.1,0.4C339.7,232.5,342.2,232.4,344.4,233.5"/>
			<path class="logo__name" d="M301.8,235.5c1.3,2.9,0.4,6.7,1.8,9.5c0.4,5.8-0.3,12.1,3.5,16.5c0.1,0.8,0,1.8-1,1.8
				c-2.9,0.6-4.8-2-6.5-4c-3-4.3-1.6-10.3-2-15.8c-1.8-2.8-0.9-6-0.8-9.2C298.3,232.8,300.9,233.6,301.8,235.5"/>
		</g>
		<g class="logo__name">
			<path class="logo__name" d="M12,4.3c3.1,2.8,6.5,4.6,9.8,7c7.1,2.4,13.8,6.1,20.5,9.5c3.4,2.7,7.9,3.8,11.5,6.5
				c4.1,2.1,8.2,4.2,12.2,6.2c3.3,2,6.9,3.4,10,6c6.5,3.2,11.9,7.5,18,11.8c10.8,7.1,22.2,12.4,31,23.3c6.1,4.5,11.3,10,16.5,16.2
				c1.6,3.5,4.8,5.2,7,8.2c1.9,3,4.4,6.3,7,9.2c5.4,8.4,10.4,16.9,14,26c1.8,5.2,4,10.1,5.2,15.5c2.6,4.2,1.9,10.4,3.8,15.2
				c-0.4,5.4,1.7,9.9,1.2,15c0.6,0.3-0.1,1,0.5,1.2c0.6,12.7,0.1,26.2-1.2,38.8c-2.6,9-3.7,18.6-7.8,27c-1.9,2.1-1.6,5.2-3.8,7
				c-2.5,6.7-6.8,12.9-11.5,18.5c-5.6,5.9-10.7,12.8-16.8,18.5c-5.7,3.8-11.7,9.3-17.5,13.2c-4.4,0.8-6.9,4.6-11,6
				c-4.7,3.4-10,5.3-15,8c-1.3,1.5-3.8,0-4.8,2.2c-3.7,0-6,3-9.8,2.8c-4.6,1.6-9.8,1.9-14.8,2.8c-7.4,0.7-14.8-0.1-21.8-1.2
				c-3.2,0-5.1-3.2-8.2-3.2c-2.8-2.2-6-3.8-7.5-7c-2.5-1.2-2.8-3.8-3.2-6c0.3-10.1,6.1-18.3,13.2-24.8c4.7-5.6,10.3-11,16.5-15.5
				c4.1-1.1,6.7-5.7,11-6.2c5-3,9.9-6.3,15.5-7.8c5.9-1.9,12.1-3.1,18-5c6.8-0.2,15.2-1.4,21,2.2c0.4,0.4,1,1.1,1.5,1.8
				c0.4,1.6-1.5,2-2.5,2.5c-1.6,0-2.8-0.7-4-1.5c-4.7-0.9-10.1-1-14.5,0.5c-4.1-1-6.2,2.6-9.8,2.8c-2.7,1.2-6,1-8.5,2.8
				c-3.6,1.6-7.3,2.8-10.8,4.8c-2.9,2.4-6.5,3.5-9,6.2c-9.2,4.6-17.1,13.2-23.8,21.2c-4.6,3.7-6.9,9.6-7.2,15.8
				c3.2,7.1,11.3,9.9,18.5,11c4.3,1.1,9.2,2.2,13.8,1c2.5-1.7,6.4-0.2,9-1.8c13-2.2,24.6-7.8,35.8-14.5c1-1,2.4-2,3.8-2.8
				c1.2-0.1,2.1-1.1,3.2-1.2c1.9-2.5,5-2.1,7-4.2c3.1-1.8,4.3-5.1,7.8-6.2c7.2-4.7,11.6-12.1,18-18.2c5.1-6.8,11.2-13.4,14-21.5
				c3.1-7.5,7.2-14.6,8-23c4.4-15.1,3.1-32,3-48.8c-0.9-3.1-1.2-6.8-1.8-9.8c0.2-4-1.2-8-1.8-12c-1.1-6.8-3.4-13.1-6.5-19
				c-0.1-4.1-3.6-6.8-4.2-10.8c-1.2-1.3-2.2-2.8-2.5-4.5c-3.5-4.9-6.4-9.6-10-14.2c-0.5-2.2-3.1-2.8-3.5-5
				c-6.8-6.8-11.6-13.5-18.2-20.5c-1.7-0.7-3.2-3.1-5-4.2c-4.7-3.8-9.6-9.6-15-12.2c-5.7-2.9-10.3-8.2-16.2-10.5
				c-2.5-2.9-6.2-3.3-8.8-6c-5-3-9.2-6.3-14.5-8.5c-7.7-5.6-16.4-8.9-24.8-13c-5.3-4.2-11.7-5.7-17.2-9.2C18.5,18.2,15,12.6,9.8,11
				C7.4,9.1,4.9,9.3,3,6.8C2.4,6.3,1.5,6.6,1,6C0,5.1-0.2,3.5,0.2,2.3c0.4-1.2,2-1.8,3.2-2.2C6.9-0.1,8.7,4,12,4.3"/>
			<path class="logo__name" d="M429.5,437c0-0.9-1.1-1.2-1.8-1.8c-1.2,0.9-1.2,1.9-2.5,2.5c-1.1,0.4-3.1,0.5-3-1.2
				c-0.5-6.6-1.8-12.8-2.8-19.2c-0.4-8.8-1.2-18.3-1.2-27.2c0.3-9,0.3-19.6,1-28.8c-0.1-6.2,1.2-12.7,0.8-19c0.5-0.3,0-1,0.5-1.2
				c-0.3-9,0.5-16.9,0.2-25.5c-0.5-3.9,1-8.6-0.2-12.2c0.3-8.8-0.5-18.3-0.2-26.8c-0.4-0.1,0-0.6-0.5-0.8c0.2-7.7-1.4-15.2-1.5-23
				c-0.9-4.8-1.1-10-2.8-14.5c0-6.3-2.7-11.5-3.5-17.5c-0.5-4.6-1.8-8.8-2.8-13.2c-0.9-2.9-1.8-5.8-2.5-8.8
				c-1.4-3.5,2.8-5.4,2.8-8.8c1.8-2.8,2.2-6.1,3.8-9c0.1-3,1.8-5.3,1.5-8.5c1.7-7.8,1.9-16.5,1.8-24.8c-1-3-1-6.5-2-9.5
				c-2.3-2.5-2.5-5.8-3.8-8.8c-1.1-2.4-2.8-4.6-3.2-7.2c-3.1-5.5-6.5-10.9-11.5-15c-5.8-4.9-11.7-10.7-19.8-9
				c-6.2,3.3-0.8,9.2-1.8,14.5c1.2,1.3,0.6,3.3,1.5,4.8c-0.3,8.6,5.2,14.9,5.5,23.2c2.3,3.9,2.4,8.7,4.8,12.5c1.8,7,4.1,13.8,6,20.8
				c1.5,5,2.8,10,4.8,14.8c-0.2,3.2,2.4,5.7,1.2,9c-4.5,5.6-8.8,11.2-15,14.8c-3.2,6.1-10,6.5-13.5,11.8c-0.3,1.9,0.9-0.4,1.5,0
				c2.1,0.4-0.9,1.3-0.2,2c1.7-0.2,4.5,0.7,5.5-1.8c7.3-2.8,11.4-8.5,17.8-13.5c1.1-1.9,3.3-2.6,4.2-4.8c0.8-0.7,1-2.5,2.5-2
				c1.7,2.6,1.7,5.8,3,8.5c0.8,6.2,2.3,12,3.5,18c2.2,8.2,4,16.5,4,25.5c1.2,5.5,0.8,12,1.2,17.5c1,7.4,1.2,15.5,0.8,23.2
				c0.2,1.2,0.5,2.3,0.8,3.5c-0.7,12.8,0.5,27.9-1,40.8c0.5,2.7-1.4,5.1,0,7.5c-1,4.2-0.5,8.1-1,12.5c0.8,12.2-1.4,23.2-1,35.2
				c0.5,7.3,1.1,14.6,1.2,21.8c1.5,7.4,2,15.3,3.5,22.8c0.2,3,0.1,6.9,3.5,8c2.1,1.6,3.8-0.8,5.8-1.2c1.2-1.4,0.5-2.8-0.5-4
				C425.7,441,428.5,439.5,429.5,437z M404,187.8c-1.6-1.3-0.8-4-2-5.8c-2.7-6.5-3.5-13.8-6.2-20.2c-2.2-6.9-4.3-14-7-20.8
				c-0.1-2.9-2.7-4.9-2.5-8c-2.5-4.9-2.1-11-4.2-16c-0.7-3,0.5-6.8-1-9.5c0.2-0.8-0.6-2.6,0.8-2.5c6.3,3.1,12.9,8.4,16.5,14.8
				c3.3,3.2,4.5,7.3,6.8,11c0.2,2.7,1.5,4.8,2.2,7.2c3.7,5.4,2.2,13.3,3.2,20c-0.6,4.7-0.8,9.5-1.8,14c-0.9,2.5-1.3,5.3-1.8,8
				c-1.2,1.5-0.7,3.6-2,5C405.1,186.1,403.9,186.7,404,187.8z"/>
			<path class="logo__name" d="M236.8,230.5c-0.2,0.9,0.2,2.1,0.8,3c0.1,4-0.2,8.5,0.2,12c1.1,2.1,2.9-0.8,3.8-1.8
				c5.1-6.1,11.8-13.4,20.8-11.5c4,1.3,5.4,5.9,7,9.2c0.8,4.3,3.4,7.9,3.5,12.5c2.3,3,0.4,7.8,2.8,10.8c-0.2,1.8,0.1,3.4,1,4.8
				c1.2,14.4,2.6,27.8,3.2,42.5c1.7,3.2-0.8,7.1,0.8,10.5c0.8,8,1.3,17.2,2.2,25.2l0.5,0.5c0.2,2.8-0.2,5.9,1,8.2
				c-0.7,7.2,2,13.7,2.5,20.8c1,3.1,0.9,6.6,2,9.8c4.6,13.4,5.5,28.4,13.8,40.2c0.8,1,0.4,3.1,2.2,3c2-2.4,0.9-6.5,4-8
				c3.4,1.5,0.8,5.8,1.2,8.8c-0.7,1.9-0.7,4-1.5,5.8c-1.4,1.4-3.2,2.6-5.2,1.8c-5.1-1.3-5.3-6.8-8-10.2c-0.4-1.6-2.1-2.6-2.5-4.2
				c-3.5-8.7-6.4-17.6-8-27c-4.2-10.2-5.1-21.9-7-33c-1.6-11.7-3-23.5-3.8-35.5c-0.2-0.7-0.5-1.3-0.8-2c0.3-10.2-1.6-21-1.2-31.5
				c-0.9-4.8-0.2-10.8-1.5-15.8c-0.3-6.2-1.1-13-3.2-18.8c0.3-2.8-1.6-4.7-1.2-7.5c-1.7-3-0.8-7.1-3.5-9.8c0.3-2.2-2-3.3-3-5
				c-1.8,0.3-4.1,1-5.8,2.2c-2.9,0.5-3.2,3.7-5.8,4.5c-2.1,3.3-5,5.5-6.5,9c-2.2,2-3.2,5-3.2,8.2c-0.2,0.7-1,1.2-1.5,1.8
				c-2.4,0.9-3.7-1.5-4.5-3c-1.2-10.8-0.8-23.4-1.2-34.2c0.4-1.1,0.1-1.9,1.2-2.5c0.7-0.4,1.8-0.4,2.5,0
				C235.4,226.3,236.4,228.3,236.8,230.5"/>
			<path class="logo__name" d="M204.5,230.5c0,0.9,0.2,3.2-1.2,2.2c-1.9-2-4.2,0.5-6.2,0.8c-4.2,2.1-5.2,6.8-8.2,10
				c-0.5,1.4-0.2,3.2-0.2,4.8c2.7,0.4,4.7-2.5,7.2-3.2c2.3-4.1,7.3-6.5,8.8-11c3.2-1.6,3.5-7.1,8-5.5c2.4,3.2,2.3,8,4,11.8
				c1.1,2.9,2,5.8,4.2,8.2c-0.6,0.9,0.2,2.5-0.8,3.2c-1,1.2-2.6,1.6-4,1c-5.4-2.5-4-9.7-6.8-14.2c-0.2-0.3-0.5-0.2-0.8-0.2
				c-3.9,4.4-7.7,7.8-11.8,12.5c-1.7,1.4-3.9,2.5-6,2c-1,2.3-3.8,0.8-5.2,1.2c-2.4-0.9-3.6-3.7-3.8-6.2c0.5-2.8,0.9-5.6,1.8-8.2
				c3.9-4.8,7.8-10.8,14-12.2C200.3,227.2,203.4,227.9,204.5,230.5"/>
			<path class="logo__name" d="M352.2,232.5c0.3,1.6-0.5,2.8-1.2,4c-3.9,2.4-9,2.1-13,4.2c-0.8-0.6-1.8,0-2.5,0.5c0,0.9,1,1.3,1.5,2
				c1.5-0.2,1.7,1.3,3,1.5c3.3,0.6,7.1,0.8,10.5,0.8c1,1.2,1.2,3.3,0.8,5c-0.8,0.5-1.1,1.7-2,1.8c-3.2-0.8-6.8-0.3-9.5-2.2
				c-4.2-1-8.3-2.7-11.2-6c-0.2-1-0.5-2-1.5-2.8c-1.9-0.6-4.6-0.5-5.2-3c0-1.1,0.8-1.9,1.8-2.2c2.2,0.5,4.4-0.9,6.8-0.8
				c3-2.5,5.5-4.8,9-6.2C343.9,229.4,350.1,227.6,352.2,232.5"/>
			<path class="logo__name" d="M344.4,233.5c-2.1,0.7-5.2,0.3-7.1,0.4C339.7,232.5,342.2,232.4,344.4,233.5"/>
			<path class="logo__name" d="M301.8,235.5c1.3,2.9,0.4,6.7,1.8,9.5c0.4,5.8-0.3,12.1,3.5,16.5c0.1,0.8,0,1.8-1,1.8
				c-2.9,0.6-4.8-2-6.5-4c-3-4.3-1.6-10.3-2-15.8c-1.8-2.8-0.9-6-0.8-9.2C298.3,232.8,300.9,233.6,301.8,235.5"/>
		</g>
	</g>
</g>
<g id="title">
	<g class="logo__title">
		<path class="logo__title" d="M483.6,241.6h-11v11.6h-3.5v-26.3h16.3v2.8h-12.8v9h11V241.6z"/>
		<path class="logo__title" d="M499.2,242.6H493v10.6h-3.5v-26.3h8.7c3,0,5.2,0.7,6.8,2c1.6,1.3,2.4,3.3,2.4,5.9c0,1.6-0.4,3.1-1.3,4.3
			c-0.9,1.2-2.1,2.1-3.7,2.7l6.2,11.2v0.2h-3.7L499.2,242.6z M493,239.7h5.3c1.7,0,3.1-0.4,4.1-1.3c1-0.9,1.5-2.1,1.5-3.6
			c0-1.6-0.5-2.9-1.5-3.7c-1-0.9-2.4-1.3-4.2-1.3H493V239.7z"/>
		<path class="logo__title" d="M532.5,240.9c0,2.6-0.4,4.8-1.3,6.7c-0.9,1.9-2.1,3.4-3.7,4.4s-3.4,1.5-5.6,1.5c-2.1,0-3.9-0.5-5.5-1.5
			c-1.6-1-2.8-2.5-3.7-4.4c-0.9-1.9-1.3-4.1-1.4-6.5v-1.9c0-2.5,0.4-4.8,1.3-6.7c0.9-1.9,2.1-3.4,3.7-4.5c1.6-1,3.4-1.5,5.5-1.5
			c2.1,0,4,0.5,5.6,1.5c1.6,1,2.8,2.5,3.7,4.4c0.9,1.9,1.3,4.2,1.3,6.7V240.9z M529.1,239.2c0-3.1-0.6-5.5-1.9-7.2
			c-1.3-1.7-3-2.5-5.3-2.5c-2.2,0-3.9,0.8-5.2,2.5c-1.3,1.7-1.9,4-1.9,6.9v1.9c0,3,0.6,5.4,1.9,7.1c1.3,1.7,3,2.6,5.2,2.6
			c2.2,0,4-0.8,5.2-2.4c1.2-1.6,1.9-4,1.9-7V239.2z"/>
		<path class="logo__title" d="M557.9,253.2h-3.5l-13.2-20.3v20.3h-3.5v-26.3h3.5l13.3,20.4v-20.4h3.5V253.2z"/>
		<path class="logo__title" d="M582.3,229.7h-8.5v23.5h-3.5v-23.5h-8.4v-2.8h20.3V229.7z"/>
		<path class="logo__title" d="M588.4,243.4h-8.8v-2.7h8.8V243.4z"/>
		<path class="logo__title" d="M607.1,241h-11.4v9.3h13.2v2.8h-16.7v-26.3h16.5v2.8h-13.1v8.5h11.4V241z"/>
		<path class="logo__title" d="M633.4,253.2H630l-13.2-20.3v20.3h-3.5v-26.3h3.5l13.3,20.4v-20.4h3.5V253.2z"/>
		<path class="logo__title" d="M639.6,253.2v-26.3h7.4c2.3,0,4.3,0.5,6.1,1.5s3.1,2.5,4.1,4.3c1,1.9,1.4,4,1.5,6.4v1.7c0,2.5-0.5,4.7-1.4,6.5
			c-1,1.9-2.3,3.3-4.1,4.3c-1.8,1-3.8,1.5-6.2,1.5H639.6z M643.1,229.7v20.6h3.7c2.7,0,4.8-0.8,6.2-2.5s2.2-4,2.2-7.1v-1.5
			c0-3-0.7-5.3-2.1-7c-1.4-1.7-3.4-2.5-6-2.5H643.1z"/>
		<path class="logo__title" d="M673,253.2v-26.3h7.4c2.3,0,4.3,0.5,6.1,1.5s3.1,2.5,4.1,4.3c1,1.9,1.4,4,1.5,6.4v1.7c0,2.5-0.5,4.7-1.4,6.5
			c-1,1.9-2.3,3.3-4.1,4.3c-1.8,1-3.8,1.5-6.2,1.5H673z M676.5,229.7v20.6h3.7c2.7,0,4.8-0.8,6.2-2.5s2.2-4,2.2-7.1v-1.5
			c0-3-0.7-5.3-2.1-7c-1.4-1.7-3.4-2.5-6-2.5H676.5z"/>
		<path class="logo__title" d="M712.2,241h-11.4v9.3H714v2.8h-16.7v-26.3h16.5v2.8h-13.1v8.5h11.4V241z"/>
		<path class="logo__title" d="M727,248.6l7.5-21.7h3.8l-9.8,26.3h-3.1l-9.7-26.3h3.8L727,248.6z"/>
		<path class="logo__title" d="M756.7,241h-11.4v9.3h13.2v2.8h-16.7v-26.3h16.5v2.8h-13.1v8.5h11.4V241z"/>
		<path class="logo__title" d="M766.4,250.4h12.5v2.8h-16v-26.3h3.5V250.4z"/>
		<path class="logo__title" d="M801.9,240.9c0,2.6-0.4,4.8-1.3,6.7c-0.9,1.9-2.1,3.4-3.7,4.4s-3.4,1.5-5.6,1.5c-2.1,0-3.9-0.5-5.5-1.5
			c-1.6-1-2.8-2.5-3.7-4.4c-0.9-1.9-1.3-4.1-1.4-6.5v-1.9c0-2.5,0.4-4.8,1.3-6.7c0.9-1.9,2.1-3.4,3.7-4.5c1.6-1,3.4-1.5,5.5-1.5
			c2.1,0,4,0.5,5.6,1.5c1.6,1,2.8,2.5,3.7,4.4c0.9,1.9,1.3,4.2,1.3,6.7V240.9z M798.4,239.2c0-3.1-0.6-5.5-1.9-7.2
			c-1.3-1.7-3-2.5-5.3-2.5c-2.2,0-3.9,0.8-5.2,2.5c-1.3,1.7-1.9,4-1.9,6.9v1.9c0,3,0.6,5.4,1.9,7.1c1.3,1.7,3,2.6,5.2,2.6
			c2.2,0,4-0.8,5.2-2.4c1.2-1.6,1.9-4,1.9-7V239.2z"/>
		<path class="logo__title" d="M810.5,242.9v10.3h-3.5v-26.3h9.7c2.9,0,5.1,0.7,6.8,2.2c1.6,1.5,2.4,3.4,2.4,5.8c0,2.6-0.8,4.5-2.4,5.9
			c-1.6,1.4-3.9,2.1-6.9,2.1H810.5z M810.5,240.1h6.2c1.9,0,3.3-0.4,4.3-1.3s1.5-2.1,1.5-3.8c0-1.6-0.5-2.8-1.5-3.8
			c-1-0.9-2.3-1.4-4.1-1.5h-6.4V240.1z"/>
		<path class="logo__title" d="M845.3,241h-11.4v9.3h13.2v2.8h-16.7v-26.3h16.5v2.8h-13.1v8.5h11.4V241z"/>
		<path class="logo__title" d="M861.1,242.6h-6.2v10.6h-3.5v-26.3h8.7c3,0,5.2,0.7,6.8,2c1.6,1.3,2.4,3.3,2.4,5.9c0,1.6-0.4,3.1-1.3,4.3
			c-0.9,1.2-2.1,2.1-3.7,2.7l6.2,11.2v0.2h-3.7L861.1,242.6z M854.9,239.7h5.3c1.7,0,3.1-0.4,4.1-1.3c1-0.9,1.5-2.1,1.5-3.6
			c0-1.6-0.5-2.9-1.5-3.7c-1-0.9-2.4-1.3-4.2-1.3h-5.3V239.7z"/>
	</g>
</g>

</svg>
