<?xml version="1.0" encoding="utf-8"?>
<!-- Generator: Adobe Illustrator 21.1.0, SVG Export Plug-In . SVG Version: 6.00 Build 0)  -->
<svg version="1.1" xmlns="http://www.w3.org/2000/svg" xmlns:xlink="http://www.w3.org/1999/xlink" x="0px" y="0px"
	 viewBox="0 0 880.7 449.5" style="enable-background:new 0 0 880.7 449.5;" xml:space="preserve">
<g id="name">
	<g class="logo__name">
		<g class="logo__name">
			<path class="logo__name" d="M12,4.3c3.1,2.8,6.5,4.6,9.8,7c7.1,2.4,13.8,6.1,20.5,9.5c3.4,2.7,7.9,3.8,11.5,6.5
				c4.1,2.1,8.2,4.2,12.2,6.2c3.3,2,6.9,3.4,10,6c6.5,3.2,11.9,7.5,18,11.8c10.8,7.1,22.2,12.4,31,23.3c6.1,4.5,11.3,10,16.5,16.2
				c1.6,3.5,4.8,5.2,7,8.2c1.9,3,4.4,6.3,7,9.2c5.4,8.4,10.4,16.9,14,26c1.8,5.2,4,10.1,5.2,15.5c2.6,4.2,1.9,10.4,3.8,15.2
				c-0.4,5.4,1.7,9.9,1.2,15c0.6,0.3-0.1,1,0.5,1.2c0.6,12.7,0.1,26.2-1.2,38.8c-2.6,9-3.7,18.6-7.8,27c-1.9,2.1-1.6,5.2-3.8,7
				c-2.5,6.7-6.8,12.9-11.5,18.5c-5.6,5.9-10.7,12.8-16.8,18.5c-5.7,3.8-11.7,9.3-17.5,13.2c-4.4,0.8-6.9,4.6-11,6
				c-4.7,3.4-10,5.3-15,8c-1.3,1.5-3.8,0-4.8,2.2c-3.7,0-6,3-9.8,2.8c-4.6,1.6-9.8,1.9-14.8,2.8c-7.4,0.7-14.8-0.1-21.8-1.2
				c-3.2,0-5.1-3.2-8.2-3.2c-2.8-2.2-6-3.8-7.5-7c-2.5-1.2-2.8-3.8-3.2-6c0.3-10.1,6.1-18.3,13.2-24.8c4.7-5.6,10.3-11,16.5-15.5
				c4.1-1.1,6.7-5.7,11-6.2c5-3,9.9-6.3,15.5-7.8c5.9-1.9,12.1-3.1,18-5c6.8-0.2,15.2-1.4,21,2.2c0.4,0.4,1,1.1,1.5,1.8
				c0.4,1.6-1.5,2-2.5,2.5c-1.6,0-2.8-0.7-4-1.5c-4.7-0.9-10.1-1-14.5,0.5c-4.1-1-6.2,2.6-9.8,2.8c-2.7,1.2-6,1-8.5,2.8
				c-3.6,1.6-7.3,2.8-10.8,4.8c-2.9,2.4-6.5,3.5-9,6.2c-9.2,4.6-17.1,13.2-23.8,21.2c-4.6,3.7-6.9,9.6-7.2,15.8
				c3.2,7.1,11.3,9.9,18.5,11c4.3,1.1,9.2,2.2,13.8,1c2.5-1.7,6.4-0.2,9-1.8c13-2.2,24.6-7.8,35.8-14.5c1-1,2.4-2,3.8-2.8
				c1.2-0.1,2.1-1.1,3.2-1.2c1.9-2.5,5-2.1,7-4.2c3.1-1.8,4.3-5.1,7.8-6.2c7.2-4.7,11.6-12.1,18-18.2c5.1-6.8,11.2-13.4,14-21.5
				c3.1-7.5,7.2-14.6,8-23c4.4-15.1,3.1-32,3-48.8c-0.9-3.1-1.2-6.8-1.8-9.8c0.2-4-1.2-8-1.8-12c-1.1-6.8-3.4-13.1-6.5-19
				c-0.1-4.1-3.6-6.8-4.2-10.8c-1.2-1.3-2.2-2.8-2.5-4.5c-3.5-4.9-6.4-9.6-10-14.2c-0.5-2.2-3.1-2.8-3.5-5
				c-6.8-6.8-11.6-13.5-18.2-20.5c-1.7-0.7-3.2-3.1-5-4.2c-4.7-3.8-9.6-9.6-15-12.2c-5.7-2.9-10.3-8.2-16.2-10.5
				c-2.5-2.9-6.2-3.3-8.8-6c-5-3-9.2-6.3-14.5-8.5c-7.7-5.6-16.4-8.9-24.8-13c-5.3-4.2-11.7-5.7-17.2-9.2C18.5,18.2,15,12.6,9.8,11
				C7.4,9.1,4.9,9.3,3,6.8C2.4,6.3,1.5,6.6,1,6C0,5.1-0.2,3.5,0.2,2.3c0.4-1.2,2-1.8,3.2-2.2C6.9-0.1,8.7,4,12,4.3"/>
			<path class="logo__name" d="M429.5,437c0-0.9-1.1-1.2-1.8-1.8c-1.2,0.9-1.2,1.9-2.5,2.5c-1.1,0.4-3.1,0.5-3-1.2
				c-0.5-6.6-1.8-12.8-2.8-19.2c-0.4-8.8-1.2-18.3-1.2-27.2c0.3-9,0.3-19.6,1-28.8c-0.1-6.2,1.2-12.7,0.8-19c0.5-0.3,0-1,0.5-1.2
				c-0.3-9,0.5-16.9,0.2-25.5c-0.5-3.9,1-8.6-0.2-12.2c0.3-8.8-0.5-18.3-0.2-26.8c-0.4-0.1,0-0.6-0.5-0.8c0.2-7.7-1.4-15.2-1.5-23
				c-0.9-4.8-1.1-10-2.8-14.5c0-6.3-2.7-11.5-3.5-17.5c-0.5-4.6-1.8-8.8-2.8-13.2c-0.9-2.9-1.8-5.8-2.5-8.8
				c-1.4-3.5,2.8-5.4,2.8-8.8c1.8-2.8,2.2-6.1,3.8-9c0.1-3,1.8-5.3,1.5-8.5c1.7-7.8,1.9-16.5,1.8-24.8c-1-3-1-6.5-2-9.5
				c-2.3-2.5-2.5-5.8-3.8-8.8c-1.1-2.4-2.8-4.6-3.2-7.2c-3.1-5.5-6.5-10.9-11.5-15c-5.8-4.9-11.7-10.7-19.8-9
				c-6.2,3.3-0.8,9.2-1.8,14.5c1.2,1.3,0.6,3.3,1.5,4.8c-0.3,8.6,5.2,14.9,5.5,23.2c2.3,3.9,2.4,8.7,4.8,12.5c1.8,7,4.1,13.8,6,20.8
				c1.5,5,2.8,10,4.8,14.8c-0.2,3.2,2.4,5.7,1.2,9c-4.5,5.6-8.8,11.2-15,14.8c-3.2,6.1-10,6.5-13.5,11.8c-0.3,1.9,0.9-0.4,1.5,0
				c2.1,0.4-0.9,1.3-0.2,2c1.7-0.2,4.5,0.7,5.5-1.8c7.3-2.8,11.4-8.5,17.8-13.5c1.1-1.9,3.3-2.6,4.2-4.8c0.8-0.7,1-2.5,2.5-2
				c1.7,2.6,1.7,5.8,3,8.5c0.8,6.2,2.3,12,3.5,18c2.2,8.2,4,16.5,4,25.5c1.2,5.5,0.8,12,1.2,17.5c1,7.4,1.2,15.5,0.8,23.2
				c0.2,1.2,0.5,2.3,0.8,3.5c-0.7,12.8,0.5,27.9-1,40.8c0.5,2.7-1.4,5.1,0,7.5c-1,4.2-0.5,8.1-1,12.5c0.8,12.2-1.4,23.2-1,35.2
				c0.5,7.3,1.1,14.6,1.2,21.8c1.5,7.4,2,15.3,3.5,22.8c0.2,3,0.1,6.9,3.5,8c2.1,1.6,3.8-0.8,5.8-1.2c1.2-1.4,0.5-2.8-0.5-4
				C425.7,441,428.5,439.5,429.5,437z M404,187.8c-1.6-1.3-0.8-4-2-5.8c-2.7-6.5-3.5-13.8-6.2-20.2c-2.2-6.9-4.3-14-7-20.8
				c-0.1-2.9-2.7-4.9-2.5-8c-2.5-4.9-2.1-11-4.2-16c-0.7-3,0.5-6.8-1-9.5c0.2-0.8-0.6-2.6,0.8-2.5c6.3,3.1,12.9,8.4,16.5,14.8
				c3.3,3.2,4.5,7.3,6.8,11c0.2,2.7,1.5,4.8,2.2,7.2c3.7,5.4,2.2,13.3,3.2,20c-0.6,4.7-0.8,9.5-1.8,14c-0.9,2.5-1.3,5.3-1.8,8
				c-1.2,1.5-0.7,3.6-2,5C405.1,186.1,403.9,186.7,404,187.8z"/>
			<path class="logo__name" d="M236.8,230.5c-0.2,0.9,0.2,2.1,0.8,3c0.1,4-0.2,8.5,0.2,12c1.1,2.1,2.9-0.8,3.8-1.8
				c5.1-6.1,11.8-13.4,20.8-11.5c4,1.3,5.4,5.9,7,9.2c0.8,4.3,3.4,7.9,3.5,12.5c2.3,3,0.4,7.8,2.8,10.8c-0.2,1.8,0.1,3.4,1,4.8
				c1.2,14.4,2.6,27.8,3.2,42.5c1.7,3.2-0.8,7.1,0.8,10.5c0.8,8,1.3,17.2,2.2,25.2l0.5,0.5c0.2,2.8-0.2,5.9,1,8.2
				c-0.7,7.2,2,13.7,2.5,20.8c1,3.1,0.9,6.6,2,9.8c4.6,13.4,5.5,28.4,13.8,40.2c0.8,1,0.4,3.1,2.2,3c2-2.4,0.9-6.5,4-8
				c3.4,1.5,0.8,5.8,1.2,8.8c-0.7,1.9-0.7,4-1.5,5.8c-1.4,1.4-3.2,2.6-5.2,1.8c-5.1-1.3-5.3-6.8-8-10.2c-0.4-1.6-2.1-2.6-2.5-4.2
				c-3.5-8.7-6.4-17.6-8-27c-4.2-10.2-5.1-21.9-7-33c-1.6-11.7-3-23.5-3.8-35.5c-0.2-0.7-0.5-1.3-0.8-2c0.3-10.2-1.6-21-1.2-31.5
				c-0.9-4.8-0.2-10.8-1.5-15.8c-0.3-6.2-1.1-13-3.2-18.8c0.3-2.8-1.6-4.7-1.2-7.5c-1.7-3-0.8-7.1-3.5-9.8c0.3-2.2-2-3.3-3-5
				c-1.8,0.3-4.1,1-5.8,2.2c-2.9,0.5-3.2,3.7-5.8,4.5c-2.1,3.3-5,5.5-6.5,9c-2.2,2-3.2,5-3.2,8.2c-0.2,0.7-1,1.2-1.5,1.8
				c-2.4,0.9-3.7-1.5-4.5-3c-1.2-10.8-0.8-23.4-1.2-34.2c0.4-1.1,0.1-1.9,1.2-2.5c0.7-0.4,1.8-0.4,2.5,0
				C235.4,226.3,236.4,228.3,236.8,230.5"/>
			<path class="logo__name" d="M204.5,230.5c0,0.9,0.2,3.2-1.2,2.2c-1.9-2-4.2,0.5-6.2,0.8c-4.2,2.1-5.2,6.8-8.2,10
				c-0.5,1.4-0.2,3.2-0.2,4.8c2.7,0.4,4.7-2.5,7.2-3.2c2.3-4.1,7.3-6.5,8.8-11c3.2-1.6,3.5-7.1,8-5.5c2.4,3.2,2.3,8,4,11.8
				c1.1,2.9,2,5.8,4.2,8.2c-0.6,0.9,0.2,2.5-0.8,3.2c-1,1.2-2.6,1.6-4,1c-5.4-2.5-4-9.7-6.8-14.2c-0.2-0.3-0.5-0.2-0.8-0.2
				c-3.9,4.4-7.7,7.8-11.8,12.5c-1.7,1.4-3.9,2.5-6,2c-1,2.3-3.8,0.8-5.2,1.2c-2.4-0.9-3.6-3.7-3.8-6.2c0.5-2.8,0.9-5.6,1.8-8.2
				c3.9-4.8,7.8-10.8,14-12.2C200.3,227.2,203.4,227.9,204.5,230.5"/>
			<path class="logo__name" d="M352.2,232.5c0.3,1.6-0.5,2.8-1.2,4c-3.9,2.4-9,2.1-13,4.2c-0.8-0.6-1.8,0-2.5,0.5c0,0.9,1,1.3,1.5,2
				c1.5-0.2,1.7,1.3,3,1.5c3.3,0.6,7.1,0.8,10.5,0.8c1,1.2,1.2,3.3,0.8,5c-0.8,0.5-1.1,1.7-2,1.8c-3.2-0.8-6.8-0.3-9.5-2.2
				c-4.2-1-8.3-2.7-11.2-6c-0.2-1-0.5-2-1.5-2.8c-1.9-0.6-4.6-0.5-5.2-3c0-1.1,0.8-1.9,1.8-2.2c2.2,0.5,4.4-0.9,6.8-0.8
				c3-2.5,5.5-4.8,9-6.2C343.9,229.4,350.1,227.6,352.2,232.5"/>
			<path class="logo__name" d="M344.4,233.5c-2.1,0.7-5.2,0.3-7.1,0.4C339.7,232.5,342.2,232.4,344.4,233.5"/>
			<path class="logo__name" d="M301.8,235.5c1.3,2.9,0.4,6.7,1.8,9.5c0.4,5.8-0.3,12.1,3.5,16.5c0.1,0.8,0,1.8-1,1.8
				c-2.9,0.6-4.8-2-6.5-4c-3-4.3-1.6-10.3-2-15.8c-1.8-2.8-0.9-6-0.8-9.2C298.3,232.8,300.9,233.6,301.8,235.5"/>
		</g>
		<g class="logo__name">
			<path class="logo__name" d="M12,4.3c3.1,2.8,6.5,4.6,9.8,7c7.1,2.4,13.8,6.1,20.5,9.5c3.4,2.7,7.9,3.8,11.5,6.5
				c4.1,2.1,8.2,4.2,12.2,6.2c3.3,2,6.9,3.4,10,6c6.5,3.2,11.9,7.5,18,11.8c10.8,7.1,22.2,12.4,31,23.3c6.1,4.5,11.3,10,16.5,16.2
				c1.6,3.5,4.8,5.2,7,8.2c1.9,3,4.4,6.3,7,9.2c5.4,8.4,10.4,16.9,14,26c1.8,5.2,4,10.1,5.2,15.5c2.6,4.2,1.9,10.4,3.8,15.2
				c-0.4,5.4,1.7,9.9,1.2,15c0.6,0.3-0.1,1,0.5,1.2c0.6,12.7,0.1,26.2-1.2,38.8c-2.6,9-3.7,18.6-7.8,27c-1.9,2.1-1.6,5.2-3.8,7
				c-2.5,6.7-6.8,12.9-11.5,18.5c-5.6,5.9-10.7,12.8-16.8,18.5c-5.7,3.8-11.7,9.3-17.5,13.2c-4.4,0.8-6.9,4.6-11,6
				c-4.7,3.4-10,5.3-15,8c-1.3,1.5-3.8,0-4.8,2.2c-3.7,0-6,3-9.8,2.8c-4.6,1.6-9.8,1.9-14.8,2.8c-7.4,0.7-14.8-0.1-21.8-1.2
				c-3.2,0-5.1-3.2-8.2-3.2c-2.8-2.2-6-3.8-7.5-7c-2.5-1.2-2.8-3.8-3.2-6c0.3-10.1,6.1-18.3,13.2-24.8c4.7-5.6,10.3-11,16.5-15.5
				c4.1-1.1,6.7-5.7,11-6.2c5-3,9.9-6.3,15.5-7.8c5.9-1.9,12.1-3.1,18-5c6.8-0.2,15.2-1.4,21,2.2c0.4,0.4,1,1.1,1.5,1.8
				c0.4,1.6-1.5,2-2.5,2.5c-1.6,0-2.8-0.7-4-1.5c-4.7-0.9-10.1-1-14.5,0.5c-4.1-1-6.2,2.6-9.8,2.8c-2.7,1.2-6,1-8.5,2.8
				c-3.6,1.6-7.3,2.8-10.8,4.8c-2.9,2.4-6.5,3.5-9,6.2c-9.2,4.6-17.1,13.2-23.8,21.2c-4.6,3.7-6.9,9.6-7.2,15.8
				c3.2,7.1,11.3,9.9,18.5,11c4.3,1.1,9.2,2.2,13.8,1c2.5-1.7,6.4-0.2,9-1.8c13-2.2,24.6-7.8,35.8-14.5c1-1,2.4-2,3.8-2.8
				c1.2-0.1,2.1-1.1,3.2-1.2c1.9-2.5,5-2.1,7-4.2c3.1-1.8,4.3-5.1,7.8-6.2c7.2-4.7,11.6-12.1,18-18.2c5.1-6.8,11.2-13.4,14-21.5
				c3.1-7.5,7.2-14.6,8-23c4.4-15.1,3.1-32,3-48.8c-0.9-3.1-1.2-6.8-1.8-9.8c0.2-4-1.2-8-1.8-12c-1.1-6.8-3.4-13.1-6.5-19
				c-0.1-4.1-3.6-6.8-4.2-10.8c-1.2-1.3-2.2-2.8-2.5-4.5c-3.5-4.9-6.4-9.6-10-14.2c-0.5-2.2-3.1-2.8-3.5-5
				c-6.8-6.8-11.6-13.5-18.2-20.5c-1.7-0.7-3.2-3.1-5-4.2c-4.7-3.8-9.6-9.6-15-12.2c-5.7-2.9-10.3-8.2-16.2-10.5
				c-2.5-2.9-6.2-3.3-8.8-6c-5-3-9.2-6.3-14.5-8.5c-7.7-5.6-16.4-8.9-24.8-13c-5.3-4.2-11.7-5.7-17.2-9.2C18.5,18.2,15,12.6,9.8,11
				C7.4,9.1,4.9,9.3,3,6.8C2.4,6.3,1.5,6.6,1,6C0,5.1-0.2,3.5,0.2,2.3c0.4-1.2,2-1.8,3.2-2.2C6.9-0.1,8.7,4,12,4.3"/>
			<path class="logo__name" d="M429.5,437c0-0.9-1.1-1.2-1.8-1.8c-1.2,0.9-1.2,1.9-2.5,2.5c-1.1,0.4-3.1,0.5-3-1.2
				c-0.5-6.6-1.8-12.8-2.8-19.2c-0.4-8.8-1.2-18.3-1.2-27.2c0.3-9,0.3-19.6,1-28.8c-0.1-6.2,1.2-12.7,0.8-19c0.5-0.3,0-1,0.5-1.2
				c-0.3-9,0.5-16.9,0.2-25.5c-0.5-3.9,1-8.6-0.2-12.2c0.3-8.8-0.5-18.3-0.2-26.8c-0.4-0.1,0-0.6-0.5-0.8c0.2-7.7-1.4-15.2-1.5-23
				c-0.9-4.8-1.1-10-2.8-14.5c0-6.3-2.7-11.5-3.5-17.5c-0.5-4.6-1.8-8.8-2.8-13.2c-0.9-2.9-1.8-5.8-2.5-8.8
				c-1.4-3.5,2.8-5.4,2.8-8.8c1.8-2.8,2.2-6.1,3.8-9c0.1-3,1.8-5.3,1.5-8.5c1.7-7.8,1.9-16.5,1.8-24.8c-1-3-1-6.5-2-9.5
				c-2.3-2.5-2.5-5.8-3.8-8.8c-1.1-2.4-2.8-4.6-3.2-7.2c-3.1-5.5-6.5-10.9-11.5-15c-5.8-4.9-11.7-10.7-19.8-9
				c-6.2,3.3-0.8,9.2-1.8,14.5c1.2,1.3,0.6,3.3,1.5,4.8c-0.3,8.6,5.2,14.9,5.5,23.2c2.3,3.9,2.4,8.7,4.8,12.5c1.8,7,4.1,13.8,6,20.8
				c1.5,5,2.8,10,4.8,14.8c-0.2,3.2,2.4,5.7,1.2,9c-4.5,5.6-8.8,11.2-15,14.8c-3.2,6.1-10,6.5-13.5,11.8c-0.3,1.9,0.9-0.4,1.5,0
				c2.1,0.4-0.9,1.3-0.2,2c1.7-0.2,4.5,0.7,5.5-1.8c7.3-2.8,11.4-8.5,17.8-13.5c1.1-1.9,3.3-2.6,4.2-4.8c0.8-0.7,1-2.5,2.5-2
				c1.7,2.6,1.7,5.8,3,8.5c0.8,6.2,2.3,12,3.5,18c2.2,8.2,4,16.5,4,25.5c1.2,5.5,0.8,12,1.2,17.5c1,7.4,1.2,15.5,0.8,23.2
				c0.2,1.2,0.5,2.3,0.8,3.5c-0.7,12.8,0.5,27.9-1,40.8c0.5,2.7-1.4,5.1,0,7.5c-1,4.2-0.5,8.1-1,12.5c0.8,12.2-1.4,23.2-1,35.2
				c0.5,7.3,1.1,14.6,1.2,21.8c1.5,7.4,2,15.3,3.5,22.8c0.2,3,0.1,6.9,3.5,8c2.1,1.6,3.8-0.8,5.8-1.2c1.2-1.4,0.5-2.8-0.5-4
				C425.7,441,428.5,439.5,429.5,437z M404,187.8c-1.6-1.3-0.8-4-2-5.8c-2.7-6.5-3.5-13.8-6.2-20.2c-2.2-6.9-4.3-14-7-20.8
				c-0.1-2.9-2.7-4.9-2.5-8c-2.5-4.9-2.1-11-4.2-16c-0.7-3,0.5-6.8-1-9.5c0.2-0.8-0.6-2.6,0.8-2.5c6.3,3.1,12.9,8.4,16.5,14.8
				c3.3,3.2,4.5,7.3,6.8,11c0.2,2.7,1.5,4.8,2.2,7.2c3.7,5.4,2.2,13.3,3.2,20c-0.6,4.7-0.8,9.5-1.8,14c-0.9,2.5-1.3,5.3-1.8,8
				c-1.2,1.5-0.7,3.6-2,5C405.1,186.1,403.9,186.7,404,187.8z"/>
			<path class="logo__name" d="M236.8,230.5c-0.2,0.9,0.2,2.1,0.8,3c0.1,4-0.2,8.5,0.2,12c1.1,2.1,2.9-0.8,3.8-1.8
				c5.1-6.1,11.8-13.4,20.8-11.5c4,1.3,5.4,5.9,7,9.2c0.8,4.3,3.4,7.9,3.5,12.5c2.3,3,0.4,7.8,2.8,10.8c-0.2,1.8,0.1,3.4,1,4.8
				c1.2,14.4,2.6,27.8,3.2,42.5c1.7,3.2-0.8,7.1,0.8,10.5c0.8,8,1.3,17.2,2.2,25.2l0.5,0.5c0.2,2.8-0.2,5.9,1,8.2
				c-0.7,7.2,2,13.7,2.5,20.8c1,3.1,0.9,6.6,2,9.8c4.6,13.4,5.5,28.4,13.8,40.2c0.8,1,0.4,3.1,2.2,3c2-2.4,0.9-6.5,4-8
				c3.4,1.5,0.8,5.8,1.2,8.8c-0.7,1.9-0.7,4-1.5,5.8c-1.4,1.4-3.2,2.6-5.2,1.8c-5.1-1.3-5.3-6.8-8-10.2c-0.4-1.6-2.1-2.6-2.5-4.2
				c-3.5-8.7-6.4-17.6-8-27c-4.2-10.2-5.1-21.9-7-33c-1.6-11.7-3-23.5-3.8-35.5c-0.2-0.7-0.5-1.3-0.8-2c0.3-10.2-1.6-21-1.2-31.5
				c-0.9-4.8-0.2-10.8-1.5-15.8c-0.3-6.2-1.1-13-3.2-18.8c0.3-2.8-1.6-4.7-1.2-7.5c-1.7-3-0.8-7.1-3.5-9.8c0.3-2.2-2-3.3-3-5
				c-1.8,0.3-4.1,1-5.8,2.2c-2.9,0.5-3.2,3.7-5.8,4.5c-2.1,3.3-5,5.5-6.5,9c-2.2,2-3.2,5-3.2,8.2c-0.2,0.7-1,1.2-1.5,1.8
				c-2.4,0.9-3.7-1.5-4.5-3c-1.2-10.8-0.8-23.4-1.2-34.2c0.4-1.1,0.1-1.9,1.2-2.5c0.7-0.4,1.8-0.4,2.5,0
				C235.4,226.3,236.4,228.3,236.8,230.5"/>
			<path class="logo__name" d="M204.5,230.5c0,0.9,0.2,3.2-1.2,2.2c-1.9-2-4.2,0.5-6.2,0.8c-4.2,2.1-5.2,6.8-8.2,10
				c-0.5,1.4-0.2,3.2-0.2,4.8c2.7,0.4,4.7-2.5,7.2-3.2c2.3-4.1,7.3-6.5,8.8-11c3.2-1.6,3.5-7.1,8-5.5c2.4,3.2,2.3,8,4,11.8
				c1.1,2.9,2,5.8,4.2,8.2c-0.6,0.9,0.2,2.5-0.8,3.2c-1,1.2-2.6,1.6-4,1c-5.4-2.5-4-9.7-6.8-14.2c-0.2-0.3-0.5-0.2-0.8-0.2
				c-3.9,4.4-7.7,7.8-11.8,12.5c-1.7,1.4-3.9,2.5-6,2c-1,2.3-3.8,0.8-5.2,1.2c-2.4-0.9-3.6-3.7-3.8-6.2c0.5-2.8,0.9-5.6,1.8-8.2
				c3.9-4.8,7.8-10.8,14-12.2C200.3,227.2,203.4,227.9,204.5,230.5"/>
			<path class="logo__name" d="M352.2,232.5c0.3,1.6-0.5,2.8-1.2,4c-3.9,2.4-9,2.1-13,4.2c-0.8-0.6-1.8,0-2.5,0.5c0,0.9,1,1.3,1.5,2
				c1.5-0.2,1.7,1.3,3,1.5c3.3,0.6,7.1,0.8,10.5,0.8c1,1.2,1.2,3.3,0.8,5c-0.8,0.5-1.1,1.7-2,1.8c-3.2-0.8-6.8-0.3-9.5-2.2
				c-4.2-1-8.3-2.7-11.2-6c-0.2-1-0.5-2-1.5-2.8c-1.9-0.6-4.6-0.5-5.2-3c0-1.1,0.8-1.9,1.8-2.2c2.2,0.5,4.4-0.9,6.8-0.8
				c3-2.5,5.5-4.8,9-6.2C343.9,229.4,350.1,227.6,352.2,232.5"/>
			<path class="logo__name" d="M344.4,233.5c-2.1,0.7-5.2,0.3-7.1,0.4C339.7,232.5,342.2,232.4,344.4,233.5"/>
			<path class="logo__name" d="M301.8,235.5c1.3,2.9,0.4,6.7,1.8,9.5c0.4,5.8-0.3,12.1,3.5,16.5c0.1,0.8,0,1.8-1,1.8
				c-2.9,0.6-4.8-2-6.5-4c-3-4.3-1.6-10.3-2-15.8c-1.8-2.8-0.9-6-0.8-9.2C298.3,232.8,300.9,233.6,301.8,235.5"/>
		</g>
	</g>
</g>
<g id="title">
	<g class="logo__title">
		<g class="logo__title">
			<path class="logo__title" d="M469.1,253.2v-26.3h8.1c3.4,0,6.2,1.1,8.3,3.2c2.1,2.1,3.1,4.8,3.1,8.2v3.6c0,3.4-1,6.1-3.1,8.2
				c-2.1,2.1-4.8,3.2-8.3,3.2H469.1z M472.6,229.7v20.7h4.5c2.4,0,4.4-0.8,5.8-2.4c1.4-1.6,2.1-3.7,2.1-6.2v-3.6
				c0-2.5-0.7-4.5-2.1-6.1c-1.4-1.6-3.3-2.4-5.8-2.4H472.6z"/>
			<path class="logo__title" d="M509,241H497v9.4h13.9v2.8h-17.5v-26.3h17.3v2.8H497v8.5H509V241z"/>
			<path class="logo__title" d="M529.4,246.6c0-1.2-0.5-2.2-1.4-3c-0.9-0.8-2.5-1.5-4.8-2c-2.8-0.7-5-1.6-6.5-2.9
				c-1.6-1.3-2.3-2.9-2.3-4.9c0-2.1,0.8-3.8,2.5-5.1c1.7-1.4,3.9-2.1,6.5-2.1c2.9,0,5.2,0.8,6.9,2.4c1.7,1.6,2.5,3.4,2.5,5.5l0,0.1
				h-3.4c0-1.5-0.5-2.8-1.5-3.7c-1-1-2.5-1.4-4.4-1.4c-1.8,0-3.1,0.4-4.1,1.2c-0.9,0.8-1.4,1.8-1.4,3.1c0,1.1,0.5,2.1,1.5,2.9
				c1,0.8,2.7,1.4,5,2c2.8,0.7,4.9,1.7,6.3,3s2.2,3,2.2,5c0,2.1-0.9,3.8-2.6,5.1c-1.7,1.3-4,1.9-6.8,1.9c-2.6,0-4.9-0.7-7-2.1
				c-2-1.4-3-3.3-2.9-5.7l0-0.1h3.4c0,1.7,0.6,3,1.9,3.8c1.2,0.9,2.8,1.3,4.6,1.3c1.8,0,3.2-0.4,4.3-1.1S529.4,247.9,529.4,246.6z"
				/>
			<path class="logo__title" d="M541.9,253.2h-3.6v-26.3h3.6V253.2z"/>
			<path class="logo__title" d="M567.6,249.7c-0.6,1-1.7,1.8-3.3,2.7c-1.5,0.8-3.5,1.2-6,1.2c-3.1,0-5.7-1-7.8-3
				c-2.1-2-3.1-4.6-3.1-7.8v-5.4c0-3.2,1-5.8,2.9-7.8c1.9-2,4.4-3,7.4-3c3,0,5.4,0.7,7.1,2.2s2.6,3.4,2.6,5.7l0,0.1h-3.4
				c-0.1-1.5-0.7-2.8-1.7-3.8c-1.1-1-2.6-1.5-4.6-1.5c-2,0-3.6,0.8-4.9,2.3c-1.2,1.5-1.8,3.4-1.8,5.7v5.5c0,2.3,0.7,4.3,2.1,5.8
				s3.1,2.3,5.2,2.3c1.5,0,2.7-0.2,3.7-0.6c1-0.4,1.6-0.8,2-1.4v-6h-5.8v-2.8h9.3V249.7z"/>
			<path class="logo__title" d="M593.7,253.2h-3.6l-12.7-20.3l-0.1,0v20.3h-3.6v-26.3h3.6l12.7,20.3l0.1,0v-20.3h3.6V253.2z"/>
			<path class="logo__title" d="M615.8,241h-12.1v9.4h13.9v2.8h-17.5v-26.3h17.3v2.8h-13.7v8.5h12.1V241z"/>
			<path class="logo__title" d="M625.4,241.8v11.4h-3.6v-26.3h9.5c2.9,0,5.1,0.6,6.6,1.9c1.5,1.3,2.3,3.1,2.3,5.6
				c0,1.3-0.4,2.5-1.1,3.5c-0.7,1-1.7,1.8-3.1,2.4c1.4,0.5,2.5,1.2,3.1,2.3c0.6,1.1,0.9,2.4,0.9,3.9v2.5c0,0.8,0.1,1.6,0.3,2.2
				c0.2,0.7,0.5,1.2,0.9,1.6v0.4h-3.7c-0.5-0.4-0.8-1-0.9-1.8s-0.2-1.6-0.2-2.5v-2.4c0-1.4-0.4-2.6-1.2-3.4s-1.9-1.3-3.3-1.3H625.4z
				 M625.4,239h5.6c2,0,3.5-0.4,4.3-1.1c0.9-0.8,1.3-1.9,1.3-3.5c0-1.5-0.4-2.6-1.3-3.4c-0.9-0.8-2.2-1.2-4-1.2h-6V239z"/>
			<path class="logo__title" d="M655.6,255.5h-3l11-28.6h3L655.6,255.5z"/>
			<path class="logo__title" d="M680.1,253.2v-26.3h8.1c3.4,0,6.2,1.1,8.3,3.2c2.1,2.1,3.1,4.8,3.1,8.2v3.6c0,3.4-1,6.1-3.1,8.2
				c-2.1,2.1-4.8,3.2-8.3,3.2H680.1z M683.6,229.7v20.7h4.5c2.4,0,4.4-0.8,5.8-2.4c1.4-1.6,2.1-3.7,2.1-6.2v-3.6
				c0-2.5-0.7-4.5-2.1-6.1c-1.4-1.6-3.3-2.4-5.8-2.4H683.6z"/>
			<path class="logo__title" d="M720.1,241H708v9.4h13.9v2.8h-17.5v-26.3h17.3v2.8H708v8.5h12.1V241z"/>
			<path class="logo__title" d="M733.9,246.7l0.6,2.1h0.1l0.6-2.1l6.8-19.8h3.8l-9.8,26.3H733l-9.8-26.3h3.9L733.9,246.7z"/>
			<path class="logo__title" d="M765.1,241H753v9.4h13.9v2.8h-17.5v-26.3h17.3v2.8H753v8.5h12.1V241z"/>
			<path class="logo__title" d="M774.7,250.4h12.4v2.8h-16v-26.3h3.6V250.4z"/>
			<path class="logo__title" d="M810.5,242.4c0,3.2-1,5.9-3,8c-2,2.1-4.6,3.2-7.8,3.2c-3.1,0-5.6-1.1-7.5-3.2
				c-1.9-2.1-2.9-4.8-2.9-8v-4.7c0-3.2,1-5.9,2.9-8s4.4-3.2,7.5-3.2c3.2,0,5.8,1.1,7.8,3.2c2,2.1,3,4.8,3,8V242.4z M807,237.7
				c0-2.4-0.7-4.4-2-5.9c-1.3-1.5-3-2.3-5.2-2.3c-2.1,0-3.7,0.8-5,2.3c-1.2,1.5-1.9,3.5-1.9,5.9v4.7c0,2.4,0.6,4.4,1.9,6
				c1.2,1.5,2.9,2.3,5,2.3c2.2,0,4-0.8,5.2-2.3c1.3-1.5,1.9-3.5,1.9-6V237.7z"/>
			<path class="logo__title" d="M819.4,242.6v10.6h-3.6v-26.3h10.1c2.8,0,5,0.7,6.5,2.2c1.6,1.4,2.3,3.3,2.3,5.7
				c0,2.4-0.8,4.3-2.3,5.7c-1.6,1.4-3.7,2.1-6.5,2.1H819.4z M819.4,239.8h6.5c1.8,0,3.1-0.5,4-1.4c0.9-1,1.3-2.2,1.3-3.6
				c0-1.5-0.4-2.7-1.3-3.6c-0.9-1-2.2-1.5-4-1.5h-6.5V239.8z"/>
			<path class="logo__title" d="M855.2,241h-12.1v9.4H857v2.8h-17.5v-26.3h17.3v2.8h-13.7v8.5h12.1V241z"/>
			<path class="logo__title" d="M864.7,241.8v11.4h-3.6v-26.3h9.5c2.9,0,5.1,0.6,6.6,1.9c1.5,1.3,2.3,3.1,2.3,5.6
				c0,1.3-0.4,2.5-1.1,3.5c-0.7,1-1.7,1.8-3.1,2.4c1.4,0.5,2.5,1.2,3.1,2.3c0.6,1.1,0.9,2.4,0.9,3.9v2.5c0,0.8,0.1,1.6,0.3,2.2
				c0.2,0.7,0.5,1.2,0.9,1.6v0.4H877c-0.5-0.4-0.8-1-0.9-1.8s-0.2-1.6-0.2-2.5v-2.4c0-1.4-0.4-2.6-1.2-3.4s-1.9-1.3-3.3-1.3H864.7z
				 M864.7,239h5.6c2,0,3.5-0.4,4.3-1.1c0.9-0.8,1.3-1.9,1.3-3.5c0-1.5-0.4-2.6-1.3-3.4c-0.9-0.8-2.2-1.2-4-1.2h-6V239z"/>
		</g>
		<g class="logo__title">
			<path class="logo__title" d="M469.1,253.2v-26.3h8.1c3.4,0,6.2,1.1,8.3,3.2c2.1,2.1,3.1,4.8,3.1,8.2v3.6c0,3.4-1,6.1-3.1,8.2
				c-2.1,2.1-4.8,3.2-8.3,3.2H469.1z M472.6,229.7v20.7h4.5c2.4,0,4.4-0.8,5.8-2.4c1.4-1.6,2.1-3.7,2.1-6.2v-3.6
				c0-2.5-0.7-4.5-2.1-6.1c-1.4-1.6-3.3-2.4-5.8-2.4H472.6z"/>
			<path class="logo__title" d="M509,241H497v9.4h13.9v2.8h-17.5v-26.3h17.3v2.8H497v8.5H509V241z"/>
			<path class="logo__title" d="M529.4,246.6c0-1.2-0.5-2.2-1.4-3c-0.9-0.8-2.5-1.5-4.8-2c-2.8-0.7-5-1.6-6.5-2.9
				c-1.6-1.3-2.3-2.9-2.3-4.9c0-2.1,0.8-3.8,2.5-5.1c1.7-1.4,3.9-2.1,6.5-2.1c2.9,0,5.2,0.8,6.9,2.4c1.7,1.6,2.5,3.4,2.5,5.5l0,0.1
				h-3.4c0-1.5-0.5-2.8-1.5-3.7c-1-1-2.5-1.4-4.4-1.4c-1.8,0-3.1,0.4-4.1,1.2c-0.9,0.8-1.4,1.8-1.4,3.1c0,1.1,0.5,2.1,1.5,2.9
				c1,0.8,2.7,1.4,5,2c2.8,0.7,4.9,1.7,6.3,3s2.2,3,2.2,5c0,2.1-0.9,3.8-2.6,5.1c-1.7,1.3-4,1.9-6.8,1.9c-2.6,0-4.9-0.7-7-2.1
				c-2-1.4-3-3.3-2.9-5.7l0-0.1h3.4c0,1.7,0.6,3,1.9,3.8c1.2,0.9,2.8,1.3,4.6,1.3c1.8,0,3.2-0.4,4.3-1.1S529.4,247.9,529.4,246.6z"
				/>
			<path class="logo__title" d="M541.9,253.2h-3.6v-26.3h3.6V253.2z"/>
			<path class="logo__title" d="M567.6,249.7c-0.6,1-1.7,1.8-3.3,2.7c-1.5,0.8-3.5,1.2-6,1.2c-3.1,0-5.7-1-7.8-3
				c-2.1-2-3.1-4.6-3.1-7.8v-5.4c0-3.2,1-5.8,2.9-7.8c1.9-2,4.4-3,7.4-3c3,0,5.4,0.7,7.1,2.2s2.6,3.4,2.6,5.7l0,0.1h-3.4
				c-0.1-1.5-0.7-2.8-1.7-3.8c-1.1-1-2.6-1.5-4.6-1.5c-2,0-3.6,0.8-4.9,2.3c-1.2,1.5-1.8,3.4-1.8,5.7v5.5c0,2.3,0.7,4.3,2.1,5.8
				s3.1,2.3,5.2,2.3c1.5,0,2.7-0.2,3.7-0.6c1-0.4,1.6-0.8,2-1.4v-6h-5.8v-2.8h9.3V249.7z"/>
			<path class="logo__title" d="M593.7,253.2h-3.6l-12.7-20.3l-0.1,0v20.3h-3.6v-26.3h3.6l12.7,20.3l0.1,0v-20.3h3.6V253.2z"/>
			<path class="logo__title" d="M615.8,241h-12.1v9.4h13.9v2.8h-17.5v-26.3h17.3v2.8h-13.7v8.5h12.1V241z"/>
			<path class="logo__title" d="M625.4,241.8v11.4h-3.6v-26.3h9.5c2.9,0,5.1,0.6,6.6,1.9c1.5,1.3,2.3,3.1,2.3,5.6
				c0,1.3-0.4,2.5-1.1,3.5c-0.7,1-1.7,1.8-3.1,2.4c1.4,0.5,2.5,1.2,3.1,2.3c0.6,1.1,0.9,2.4,0.9,3.9v2.5c0,0.8,0.1,1.6,0.3,2.2
				c0.2,0.7,0.5,1.2,0.9,1.6v0.4h-3.7c-0.5-0.4-0.8-1-0.9-1.8s-0.2-1.6-0.2-2.5v-2.4c0-1.4-0.4-2.6-1.2-3.4s-1.9-1.3-3.3-1.3H625.4z
				 M625.4,239h5.6c2,0,3.5-0.4,4.3-1.1c0.9-0.8,1.3-1.9,1.3-3.5c0-1.5-0.4-2.6-1.3-3.4c-0.9-0.8-2.2-1.2-4-1.2h-6V239z"/>
			<path class="logo__title" d="M655.6,255.5h-3l11-28.6h3L655.6,255.5z"/>
			<path class="logo__title" d="M680.1,253.2v-26.3h8.1c3.4,0,6.2,1.1,8.3,3.2c2.1,2.1,3.1,4.8,3.1,8.2v3.6c0,3.4-1,6.1-3.1,8.2
				c-2.1,2.1-4.8,3.2-8.3,3.2H680.1z M683.6,229.7v20.7h4.5c2.4,0,4.4-0.8,5.8-2.4c1.4-1.6,2.1-3.7,2.1-6.2v-3.6
				c0-2.5-0.7-4.5-2.1-6.1c-1.4-1.6-3.3-2.4-5.8-2.4H683.6z"/>
			<path class="logo__title" d="M720.1,241H708v9.4h13.9v2.8h-17.5v-26.3h17.3v2.8H708v8.5h12.1V241z"/>
			<path class="logo__title" d="M733.9,246.7l0.6,2.1h0.1l0.6-2.1l6.8-19.8h3.8l-9.8,26.3H733l-9.8-26.3h3.9L733.9,246.7z"/>
			<path class="logo__title" d="M765.1,241H753v9.4h13.9v2.8h-17.5v-26.3h17.3v2.8H753v8.5h12.1V241z"/>
			<path class="logo__title" d="M774.7,250.4h12.4v2.8h-16v-26.3h3.6V250.4z"/>
			<path class="logo__title" d="M810.5,242.4c0,3.2-1,5.9-3,8c-2,2.1-4.6,3.2-7.8,3.2c-3.1,0-5.6-1.1-7.5-3.2
				c-1.9-2.1-2.9-4.8-2.9-8v-4.7c0-3.2,1-5.9,2.9-8s4.4-3.2,7.5-3.2c3.2,0,5.8,1.1,7.8,3.2c2,2.1,3,4.8,3,8V242.4z M807,237.7
				c0-2.4-0.7-4.4-2-5.9c-1.3-1.5-3-2.3-5.2-2.3c-2.1,0-3.7,0.8-5,2.3c-1.2,1.5-1.9,3.5-1.9,5.9v4.7c0,2.4,0.6,4.4,1.9,6
				c1.2,1.5,2.9,2.3,5,2.3c2.2,0,4-0.8,5.2-2.3c1.3-1.5,1.9-3.5,1.9-6V237.7z"/>
			<path class="logo__title" d="M819.4,242.6v10.6h-3.6v-26.3h10.1c2.8,0,5,0.7,6.5,2.2c1.6,1.4,2.3,3.3,2.3,5.7
				c0,2.4-0.8,4.3-2.3,5.7c-1.6,1.4-3.7,2.1-6.5,2.1H819.4z M819.4,239.8h6.5c1.8,0,3.1-0.5,4-1.4c0.9-1,1.3-2.2,1.3-3.6
				c0-1.5-0.4-2.7-1.3-3.6c-0.9-1-2.2-1.5-4-1.5h-6.5V239.8z"/>
			<path class="logo__title" d="M855.2,241h-12.1v9.4H857v2.8h-17.5v-26.3h17.3v2.8h-13.7v8.5h12.1V241z"/>
			<path class="logo__title" d="M864.7,241.8v11.4h-3.6v-26.3h9.5c2.9,0,5.1,0.6,6.6,1.9c1.5,1.3,2.3,3.1,2.3,5.6
				c0,1.3-0.4,2.5-1.1,3.5c-0.7,1-1.7,1.8-3.1,2.4c1.4,0.5,2.5,1.2,3.1,2.3c0.6,1.1,0.9,2.4,0.9,3.9v2.5c0,0.8,0.1,1.6,0.3,2.2
				c0.2,0.7,0.5,1.2,0.9,1.6v0.4H877c-0.5-0.4-0.8-1-0.9-1.8s-0.2-1.6-0.2-2.5v-2.4c0-1.4-0.4-2.6-1.2-3.4s-1.9-1.3-3.3-1.3H864.7z
				 M864.7,239h5.6c2,0,3.5-0.4,4.3-1.1c0.9-0.8,1.3-1.9,1.3-3.5c0-1.5-0.4-2.6-1.3-3.4c-0.9-0.8-2.2-1.2-4-1.2h-6V239z"/>
		</g>
	</g>
</g>
<g id="Layer_2">
</g>
</svg>
