<svg id="Layer_1" data-name="Layer 1" xmlns="http://www.w3.org/2000/svg" viewBox="0 0 429.5 449.54"><defs><style>.cls-1{fill:#fff;}</style></defs><title>Artboard 1</title><path class="cls-1" d="M12,4.25c3.07,2.75,6.52,4.6,9.75,7,7.15,2.38,13.77,6.05,20.5,9.5,3.42,2.65,7.9,3.75,11.5,6.5L66,33.5c3.32,2,6.9,3.43,10,6C82.52,42.68,87.95,47,94,51.25c10.82,7.05,22.2,12.35,31,23.25a96.42,96.42,0,0,1,16.5,16.25c1.57,3.5,4.77,5.23,7,8.25a76.3,76.3,0,0,0,7,9.25c5.43,8.35,10.45,16.88,14,26,1.75,5.18,4,10.1,5.25,15.5,2.65,4.18,1.95,10.4,3.75,15.25-.4,5.35,1.73,9.93,1.25,15,.55.27-.05,1,.5,1.25A256.7,256.7,0,0,1,179,220c-2.55,9-3.73,18.6-7.75,27-1.9,2.05-1.6,5.25-3.75,7-2.5,6.73-6.77,12.92-11.5,18.5-5.65,5.92-10.68,12.75-16.75,18.5-5.65,3.83-11.7,9.27-17.5,13.25-4.37.83-6.85,4.65-11,6-4.68,3.42-10,5.33-15,8-1.28,1.5-3.78,0-4.75,2.25-3.65,0-6,3-9.75,2.75-4.6,1.65-9.83,1.85-14.75,2.75a83.71,83.71,0,0,1-21.75-1.25c-3.18,0-5.05-3.23-8.25-3.25-2.78-2.23-6-3.83-7.5-7-2.48-1.2-2.78-3.75-3.25-6,.32-10.15,6.13-18.27,13.25-24.75a91.15,91.15,0,0,1,16.5-15.5c4.07-1.12,6.7-5.7,11-6.25,5-2.95,9.88-6.3,15.5-7.75,5.9-1.95,12.1-3.07,18-5,6.77-.23,15.2-1.37,21,2.25a15.9,15.9,0,0,1,1.5,1.75c.38,1.63-1.53,2-2.5,2.5a7,7,0,0,1-4-1.5c-4.7-.9-10.05-1-14.5.5-4.05-1-6.15,2.65-9.75,2.75-2.73,1.18-6,1-8.5,2.75-3.57,1.58-7.33,2.8-10.75,4.75-2.9,2.35-6.48,3.52-9,6.25-9.18,4.6-17.1,13.2-23.75,21.25-4.62,3.67-6.93,9.65-7.25,15.75,3.2,7.1,11.3,9.85,18.5,11,4.28,1.08,9.17,2.17,13.75,1,2.52-1.73,6.4-.23,9-1.75,13-2.2,24.6-7.8,35.75-14.5a18.37,18.37,0,0,1,3.75-2.75c1.2-.15,2.07-1.1,3.25-1.25,1.88-2.55,5-2.08,7-4.25,3.15-1.8,4.35-5.08,7.75-6.25,7.22-4.7,11.57-12.12,18-18.25,5.1-6.77,11.18-13.35,14-21.5,3.05-7.52,7.2-14.57,8-23,4.38-15.15,3.13-32,3-48.75-.95-3.1-1.18-6.82-1.75-9.75.18-4-1.18-8-1.75-12a63.79,63.79,0,0,0-6.5-19c-.1-4.12-3.62-6.85-4.25-10.75a8.91,8.91,0,0,1-2.5-4.5c-3.48-4.9-6.4-9.6-10-14.25-.48-2.17-3.05-2.82-3.5-5-6.78-6.77-11.6-13.47-18.25-20.5-1.73-.72-3.23-3.1-5-4.25-4.68-3.77-9.6-9.62-15-12.25-5.68-2.87-10.32-8.22-16.25-10.5-2.53-2.92-6.15-3.27-8.75-6-5-3-9.23-6.27-14.5-8.5-7.7-5.65-16.4-8.95-24.75-13C36.22,23.5,29.82,22,24.25,18.5,18.52,18.15,15,12.55,9.75,11,7.4,9.1,4.88,9.3,3,6.75,2.4,6.33,1.52,6.6,1,6A3.47,3.47,0,0,1,.25,2.25C.7,1.05,2.27.4,3.5,0,6.95-.07,8.7,4,12,4.25"/><path class="cls-1" d="M429.5,437c0-.92-1.15-1.22-1.75-1.75-1.25.88-1.15,1.9-2.5,2.5-1.1.42-3.08.45-3-1.25-.55-6.58-1.83-12.83-2.75-19.25-.37-8.8-1.23-18.33-1.25-27.25.33-9,.3-19.62,1-28.75-.12-6.17,1.25-12.67.75-19,.55-.27,0-1,.5-1.25-.3-9,.55-16.85.25-25.5-.45-3.92,1-8.62-.25-12.25.28-8.77-.53-18.3-.25-26.75-.42-.15,0-.6-.5-.75.25-7.67-1.37-15.17-1.5-23-.92-4.82-1.08-10-2.75-14.5,0-6.3-2.7-11.52-3.5-17.5-.55-4.57-1.83-8.82-2.75-13.25-.9-2.9-1.83-5.77-2.5-8.75-1.37-3.55,2.8-5.45,2.75-8.75,1.78-2.77,2.22-6.1,3.75-9,.13-3,1.75-5.35,1.5-8.5,1.7-7.77,1.92-16.5,1.75-24.75-1-3-1-6.47-2-9.5-2.3-2.47-2.5-5.82-3.75-8.75-1.15-2.4-2.8-4.57-3.25-7.25-3.08-5.52-6.55-10.9-11.5-15-5.78-4.92-11.65-10.67-19.75-9-6.2,3.3-.8,9.2-1.75,14.5,1.25,1.28.63,3.33,1.5,4.75-.28,8.63,5.25,14.85,5.5,23.25,2.33,3.85,2.42,8.65,4.75,12.5,1.83,7,4.1,13.8,6,20.75,1.47,5,2.85,10,4.75,14.75-.17,3.25,2.42,5.65,1.25,9-4.53,5.55-8.78,11.23-15,14.75-3.15,6.13-10,6.53-13.5,11.75-.3,1.88.85-.37,1.5,0,2.08.4-.92,1.33-.25,2,1.67-.2,4.45.7,5.5-1.75,7.27-2.85,11.38-8.52,17.75-13.5,1.08-1.9,3.28-2.62,4.25-4.75.83-.67,1-2.5,2.5-2,1.7,2.55,1.65,5.8,3,8.5.8,6.15,2.33,12,3.5,18,2.2,8.15,4,16.48,4,25.5,1.17,5.53.83,12,1.25,17.5A119.75,119.75,0,0,1,413.5,297l.75,3.5c-.7,12.8.45,27.93-1,40.75.45,2.68-1.35,5.05,0,7.5-1,4.18-.47,8.1-1,12.5.8,12.23-1.42,23.17-1,35.25.47,7.27,1.08,14.6,1.25,21.75,1.55,7.42,2,15.33,3.5,22.75.22,3,.1,6.92,3.5,8,2.15,1.6,3.83-.83,5.75-1.25,1.23-1.4.5-2.83-.5-4C425.7,441,428.45,439.48,429.5,437ZM404,187.75c-1.58-1.32-.8-4-2-5.75-2.67-6.5-3.47-13.77-6.25-20.25-2.23-6.95-4.35-14-7-20.75-.15-2.95-2.67-4.92-2.5-8-2.55-4.87-2.08-11-4.25-16-.7-3,.45-6.8-1-9.5.25-.82-.62-2.57.75-2.5,6.28,3.05,12.92,8.38,16.5,14.75,3.3,3.23,4.55,7.3,6.75,11,.22,2.65,1.5,4.83,2.25,7.25,3.7,5.35,2.17,13.33,3.25,20-.58,4.68-.8,9.48-1.75,14a49.47,49.47,0,0,0-1.75,8c-1.17,1.45-.67,3.6-2,5C405.15,186.1,403.9,186.65,404,187.75Z"/><path class="cls-1" d="M236.75,230.5a4.85,4.85,0,0,0,.75,3c.07,4-.2,8.48.25,12,1.15,2.15,2.88-.8,3.75-1.75,5.1-6.12,11.75-13.45,20.75-11.5,4,1.28,5.42,5.85,7,9.25.8,4.33,3.45,7.88,3.5,12.5,2.3,3,.4,7.78,2.75,10.75a7.25,7.25,0,0,0,1,4.75c1.22,14.43,2.65,27.82,3.25,42.5,1.72,3.18-.8,7.07.75,10.5.85,8.05,1.3,17.23,2.25,25.25l.5.5c.25,2.78-.23,5.88,1,8.25-.68,7.23,2,13.68,2.5,20.75,1,3.1.95,6.65,2,9.75,4.57,13.43,5.47,28.35,13.75,40.25.75,1,.38,3.13,2.25,3,2-2.37.9-6.5,4-8,3.42,1.55.82,5.82,1.25,8.75-.68,1.85-.65,4-1.5,5.75-1.4,1.43-3.2,2.63-5.25,1.75-5.08-1.32-5.33-6.82-8-10.25-.35-1.6-2.1-2.65-2.5-4.25a131.76,131.76,0,0,1-8-27c-4.2-10.23-5.05-21.85-7-33-1.55-11.7-3-23.45-3.75-35.5l-.75-2c.32-10.2-1.58-21-1.25-31.5-.87-4.77-.25-10.82-1.5-15.75-.33-6.25-1.05-13-3.25-18.75.32-2.82-1.58-4.7-1.25-7.5-1.68-3-.78-7.15-3.5-9.75.32-2.22-2-3.32-3-5a13.3,13.3,0,0,0-5.75,2.25c-2.85.45-3.18,3.73-5.75,4.5-2.05,3.28-5,5.53-6.5,9a11,11,0,0,0-3.25,8.25c-.23.68-1,1.18-1.5,1.75-2.37.9-3.68-1.5-4.5-3-1.18-10.8-.83-23.45-1.25-34.25.38-1.12.1-1.9,1.25-2.5a2.92,2.92,0,0,1,2.5,0c.67,2.08,1.7,4,2,6.25"/><path class="cls-1" d="M204.5,230.5c0,.9.25,3.15-1.25,2.25-1.85-2-4.18.5-6.25.75-4.15,2.1-5.23,6.78-8.25,10-.45,1.43-.18,3.18-.25,4.75,2.7.38,4.7-2.52,7.25-3.25,2.27-4.15,7.27-6.52,8.75-11,3.2-1.6,3.55-7.12,8-5.5,2.45,3.23,2.3,8,4,11.75,1.15,2.85,2,5.83,4.25,8.25-.62.93.25,2.48-.75,3.25a3.48,3.48,0,0,1-4,1c-5.43-2.55-4-9.7-6.75-14.25-.15-.32-.48-.23-.75-.25-3.93,4.38-7.65,7.75-11.75,12.5-1.68,1.43-3.85,2.45-6,2-1,2.3-3.8.83-5.25,1.25-2.37-.95-3.62-3.7-3.75-6.25a80.43,80.43,0,0,1,1.75-8.25c3.92-4.82,7.8-10.8,14-12.25,2.8,0,5.95.68,7,3.25"/><path class="cls-1" d="M352.25,232.5c.32,1.65-.45,2.83-1.25,4-3.93,2.43-9,2.15-13,4.25-.83-.57-1.83,0-2.5.5,0,.9,1,1.33,1.5,2,1.52-.2,1.67,1.28,3,1.5a53,53,0,0,0,10.5.75,5.74,5.74,0,0,1,.75,5c-.83.52-1.05,1.73-2,1.75-3.15-.8-6.8-.35-9.5-2.25-4.18-1-8.28-2.7-11.25-6a4,4,0,0,0-1.5-2.75c-1.9-.62-4.55-.52-5.25-3A2.43,2.43,0,0,1,323.5,236c2.25.5,4.35-.87,6.75-.75,3-2.5,5.52-4.82,9-6.25,4.65.43,10.88-1.42,13,3.5"/><path class="cls-1" d="M344.43,233.5c-2.14.68-5.21.26-7.12.38a7.28,7.28,0,0,1,7.13-.37"/><path class="cls-1" d="M301.75,235.5c1.32,2.85.42,6.65,1.75,9.5.42,5.8-.3,12.1,3.5,16.5.1.8,0,1.8-1,1.75-2.87.6-4.8-2-6.5-4-3-4.27-1.65-10.35-2-15.75-1.75-2.77-.87-6-.75-9.25a3.22,3.22,0,0,1,5,1.25"/></svg>